G04 #@! TF.GenerationSoftware,KiCad,Pcbnew,(5.1.4-0)*
G04 #@! TF.CreationDate,2020-01-15T23:19:41+03:00*
G04 #@! TF.ProjectId,stl,73746c2e-6b69-4636-9164-5f7063625858,rev?*
G04 #@! TF.SameCoordinates,Original*
G04 #@! TF.FileFunction,Legend,Top*
G04 #@! TF.FilePolarity,Positive*
%FSLAX46Y46*%
G04 Gerber Fmt 4.6, Leading zero omitted, Abs format (unit mm)*
G04 Created by KiCad (PCBNEW (5.1.4-0)) date 2020-01-15 23:19:41*
%MOMM*%
%LPD*%
G04 APERTURE LIST*
%ADD10C,0.150000*%
%ADD11C,0.300000*%
%ADD12C,0.381000*%
%ADD13C,0.120000*%
G04 APERTURE END LIST*
D10*
X211427214Y-21281828D02*
X212093880Y-21281828D01*
X211522452Y-21281828D02*
X211474833Y-21234209D01*
X211427214Y-21138971D01*
X211427214Y-20996114D01*
X211474833Y-20900876D01*
X211570071Y-20853257D01*
X212093880Y-20853257D01*
X212093880Y-19805638D02*
X211617690Y-20138971D01*
X212093880Y-20377066D02*
X211093880Y-20377066D01*
X211093880Y-19996114D01*
X211141500Y-19900876D01*
X211189119Y-19853257D01*
X211284357Y-19805638D01*
X211427214Y-19805638D01*
X211522452Y-19853257D01*
X211570071Y-19900876D01*
X211617690Y-19996114D01*
X211617690Y-20377066D01*
X212046261Y-19424685D02*
X212093880Y-19281828D01*
X212093880Y-19043733D01*
X212046261Y-18948495D01*
X211998642Y-18900876D01*
X211903404Y-18853257D01*
X211808166Y-18853257D01*
X211712928Y-18900876D01*
X211665309Y-18948495D01*
X211617690Y-19043733D01*
X211570071Y-19234209D01*
X211522452Y-19329447D01*
X211474833Y-19377066D01*
X211379595Y-19424685D01*
X211284357Y-19424685D01*
X211189119Y-19377066D01*
X211141500Y-19329447D01*
X211093880Y-19234209D01*
X211093880Y-18996114D01*
X211141500Y-18853257D01*
X211093880Y-18567542D02*
X211093880Y-17996114D01*
X212093880Y-18281828D02*
X211093880Y-18281828D01*
X214546261Y-21329447D02*
X214593880Y-21186590D01*
X214593880Y-20948495D01*
X214546261Y-20853257D01*
X214498642Y-20805638D01*
X214403404Y-20758019D01*
X214308166Y-20758019D01*
X214212928Y-20805638D01*
X214165309Y-20853257D01*
X214117690Y-20948495D01*
X214070071Y-21138971D01*
X214022452Y-21234209D01*
X213974833Y-21281828D01*
X213879595Y-21329447D01*
X213784357Y-21329447D01*
X213689119Y-21281828D01*
X213641500Y-21234209D01*
X213593880Y-21138971D01*
X213593880Y-20900876D01*
X213641500Y-20758019D01*
X213593880Y-20424685D02*
X214593880Y-20186590D01*
X213879595Y-19996114D01*
X214593880Y-19805638D01*
X213593880Y-19567542D01*
X214593880Y-19186590D02*
X213593880Y-19186590D01*
X214593880Y-18710400D02*
X213593880Y-18710400D01*
X214308166Y-18377066D01*
X213593880Y-18043733D01*
X214593880Y-18043733D01*
X216712928Y-21281829D02*
X216712928Y-20519924D01*
X218828047Y-20773852D02*
X219589952Y-20773852D01*
X219209000Y-21154804D02*
X219209000Y-20392900D01*
X271946714Y-39523724D02*
X272613380Y-39523724D01*
X271565761Y-39761820D02*
X272280047Y-39999915D01*
X272280047Y-39380867D01*
X271613380Y-35047534D02*
X271613380Y-34428486D01*
X271994333Y-34761820D01*
X271994333Y-34618962D01*
X272041952Y-34523724D01*
X272089571Y-34476105D01*
X272184809Y-34428486D01*
X272422904Y-34428486D01*
X272518142Y-34476105D01*
X272565761Y-34523724D01*
X272613380Y-34618962D01*
X272613380Y-34904677D01*
X272565761Y-34999915D01*
X272518142Y-35047534D01*
X271708619Y-29999915D02*
X271661000Y-29952296D01*
X271613380Y-29857058D01*
X271613380Y-29618962D01*
X271661000Y-29523724D01*
X271708619Y-29476105D01*
X271803857Y-29428486D01*
X271899095Y-29428486D01*
X272041952Y-29476105D01*
X272613380Y-30047534D01*
X272613380Y-29428486D01*
X272613380Y-24428486D02*
X272613380Y-24999915D01*
X272613380Y-24714201D02*
X271613380Y-24714201D01*
X271756238Y-24809439D01*
X271851476Y-24904677D01*
X271899095Y-24999915D01*
X177836485Y-28041457D02*
X177836485Y-25755742D01*
D11*
X179069857Y-32116685D02*
X176784142Y-32116685D01*
X177927000Y-33259542D02*
X177927000Y-30973828D01*
D12*
X183681428Y-43195714D02*
X184286190Y-44889047D01*
X184890952Y-43195714D01*
X185737619Y-42590952D02*
X185858571Y-42470000D01*
X186100476Y-42349047D01*
X186705238Y-42349047D01*
X186947142Y-42470000D01*
X187068095Y-42590952D01*
X187189047Y-42832857D01*
X187189047Y-43074761D01*
X187068095Y-43437619D01*
X185616666Y-44889047D01*
X187189047Y-44889047D01*
X188277619Y-44647142D02*
X188398571Y-44768095D01*
X188277619Y-44889047D01*
X188156666Y-44768095D01*
X188277619Y-44647142D01*
X188277619Y-44889047D01*
X189970952Y-42349047D02*
X190212857Y-42349047D01*
X190454761Y-42470000D01*
X190575714Y-42590952D01*
X190696666Y-42832857D01*
X190817619Y-43316666D01*
X190817619Y-43921428D01*
X190696666Y-44405238D01*
X190575714Y-44647142D01*
X190454761Y-44768095D01*
X190212857Y-44889047D01*
X189970952Y-44889047D01*
X189729047Y-44768095D01*
X189608095Y-44647142D01*
X189487142Y-44405238D01*
X189366190Y-43921428D01*
X189366190Y-43316666D01*
X189487142Y-42832857D01*
X189608095Y-42590952D01*
X189729047Y-42470000D01*
X189970952Y-42349047D01*
D10*
X275590000Y-50927000D02*
X173990000Y-50927000D01*
X173990000Y-13589000D02*
X173990000Y-50927000D01*
X275590000Y-13589000D02*
X173990000Y-13589000D01*
X275590000Y-13589000D02*
X275590000Y-50927000D01*
D13*
G04 #@! TO.C,J1*
X264352444Y-25397518D02*
G75*
G02X264207200Y-24714200I1534756J683318D01*
G01*
X266570242Y-26249626D02*
G75*
G02X265203200Y-26249200I-683042J1535426D01*
G01*
X267422626Y-24031158D02*
G75*
G02X267422200Y-25398200I-1535426J-683042D01*
G01*
X265204158Y-23178774D02*
G75*
G02X266571200Y-23179200I683042J-1535426D01*
G01*
X264206947Y-24743005D02*
G75*
G02X264352200Y-24030200I1680253J28805D01*
G01*
X267567200Y-29714200D02*
G75*
G03X267567200Y-29714200I-1680000J0D01*
G01*
X267567200Y-34714200D02*
G75*
G03X267567200Y-34714200I-1680000J0D01*
G01*
X267567200Y-39714200D02*
G75*
G03X267567200Y-39714200I-1680000J0D01*
G01*
X261787200Y-22154200D02*
X261787200Y-42275200D01*
X263287200Y-22154200D02*
X263287200Y-42275200D01*
X268188200Y-22154200D02*
X268188200Y-42275200D01*
X271148200Y-22154200D02*
X271148200Y-42275200D01*
X261227200Y-22154200D02*
X261227200Y-42275200D01*
X271148200Y-22154200D02*
X261227200Y-22154200D01*
X271148200Y-42275200D02*
X261227200Y-42275200D01*
X266956200Y-30989200D02*
X266910200Y-30942200D01*
X264648200Y-28680200D02*
X264613200Y-28645200D01*
X267162200Y-30784200D02*
X267126200Y-30749200D01*
X264864200Y-28487200D02*
X264818200Y-28440200D01*
X266956200Y-35989200D02*
X266910200Y-35942200D01*
X264648200Y-33680200D02*
X264613200Y-33645200D01*
X267162200Y-35784200D02*
X267126200Y-35749200D01*
X264864200Y-33487200D02*
X264818200Y-33440200D01*
X266956200Y-40989200D02*
X266910200Y-40942200D01*
X264648200Y-38680200D02*
X264613200Y-38645200D01*
X267162200Y-40784200D02*
X267126200Y-40749200D01*
X264864200Y-38487200D02*
X264818200Y-38440200D01*
X261727200Y-21914200D02*
X260987200Y-21914200D01*
X260987200Y-21914200D02*
X260987200Y-22414200D01*
G04 #@! TO.C,D2*
X215810000Y-39985000D02*
X219695000Y-39985000D01*
X219695000Y-39985000D02*
X219695000Y-37715000D01*
X219695000Y-37715000D02*
X215810000Y-37715000D01*
G04 #@! TO.C,Q6*
X248661200Y-22026200D02*
X247161200Y-22026200D01*
X247161200Y-22026200D02*
X247161200Y-22296200D01*
X247161200Y-22296200D02*
X244331200Y-22296200D01*
X248661200Y-28926200D02*
X247161200Y-28926200D01*
X247161200Y-28926200D02*
X247161200Y-28656200D01*
X247161200Y-28656200D02*
X246061200Y-28656200D01*
G04 #@! TO.C,Q8*
X247161200Y-46309200D02*
X246061200Y-46309200D01*
X247161200Y-46579200D02*
X247161200Y-46309200D01*
X248661200Y-46579200D02*
X247161200Y-46579200D01*
X247161200Y-39949200D02*
X244331200Y-39949200D01*
X247161200Y-39679200D02*
X247161200Y-39949200D01*
X248661200Y-39679200D02*
X247161200Y-39679200D01*
G04 #@! TO.C,Q3*
X247161200Y-37419200D02*
X246061200Y-37419200D01*
X247161200Y-37689200D02*
X247161200Y-37419200D01*
X248661200Y-37689200D02*
X247161200Y-37689200D01*
X247161200Y-31059200D02*
X244331200Y-31059200D01*
X247161200Y-30789200D02*
X247161200Y-31059200D01*
X248661200Y-30789200D02*
X247161200Y-30789200D01*
G04 #@! TO.C,C2*
X211307000Y-34322936D02*
X211307000Y-35527064D01*
X213127000Y-34322936D02*
X213127000Y-35527064D01*
G04 #@! TO.C,C3*
X209698000Y-34322936D02*
X209698000Y-35527064D01*
X207878000Y-34322936D02*
X207878000Y-35527064D01*
G04 #@! TO.C,C4*
X196883000Y-46456000D02*
X204943000Y-46456000D01*
X204943000Y-46456000D02*
X204943000Y-41936000D01*
X204943000Y-41936000D02*
X196883000Y-41936000D01*
G04 #@! TO.C,C5*
X203927000Y-24283000D02*
X195867000Y-24283000D01*
X203927000Y-28803000D02*
X203927000Y-24283000D01*
X195867000Y-28803000D02*
X203927000Y-28803000D01*
G04 #@! TO.C,LEARN1*
X225736000Y-21531000D02*
X225736000Y-25551000D01*
X225736000Y-25551000D02*
X233456000Y-25551000D01*
X233456000Y-25551000D02*
X233456000Y-21531000D01*
X233456000Y-21531000D02*
X225736000Y-21531000D01*
X225736000Y-23241000D02*
X226236000Y-23241000D01*
X226236000Y-23241000D02*
X226236000Y-22031000D01*
X226236000Y-22031000D02*
X232956000Y-22031000D01*
X232956000Y-22031000D02*
X232956000Y-23241000D01*
X232956000Y-23241000D02*
X233456000Y-23241000D01*
X225736000Y-24051000D02*
X226736000Y-24051000D01*
X226736000Y-24051000D02*
X226736000Y-25551000D01*
X233456000Y-24051000D02*
X232456000Y-24051000D01*
X232456000Y-24051000D02*
X232456000Y-25551000D01*
X225436000Y-23351000D02*
X225436000Y-25851000D01*
X225436000Y-25851000D02*
X227936000Y-25851000D01*
G04 #@! TO.C,SWIM1*
X209099000Y-21531000D02*
X209099000Y-25551000D01*
X209099000Y-25551000D02*
X221819000Y-25551000D01*
X221819000Y-25551000D02*
X221819000Y-21531000D01*
X221819000Y-21531000D02*
X209099000Y-21531000D01*
X209099000Y-23241000D02*
X209599000Y-23241000D01*
X209599000Y-23241000D02*
X209599000Y-22031000D01*
X209599000Y-22031000D02*
X221319000Y-22031000D01*
X221319000Y-22031000D02*
X221319000Y-23241000D01*
X221319000Y-23241000D02*
X221819000Y-23241000D01*
X209099000Y-24051000D02*
X210099000Y-24051000D01*
X210099000Y-24051000D02*
X210099000Y-25551000D01*
X221819000Y-24051000D02*
X220819000Y-24051000D01*
X220819000Y-24051000D02*
X220819000Y-25551000D01*
X208799000Y-23351000D02*
X208799000Y-25851000D01*
X208799000Y-25851000D02*
X211299000Y-25851000D01*
D10*
G04 #@! TO.C,U3*
X228303000Y-31221600D02*
X228303000Y-31246600D01*
X232453000Y-31221600D02*
X232453000Y-31326600D01*
X232453000Y-41371600D02*
X232453000Y-41266600D01*
X228303000Y-41371600D02*
X228303000Y-41266600D01*
X228303000Y-31221600D02*
X232453000Y-31221600D01*
X228303000Y-41371600D02*
X232453000Y-41371600D01*
X228303000Y-31246600D02*
X226928000Y-31246600D01*
G04 #@! TO.C,U1*
X215961000Y-36470000D02*
X220411000Y-36470000D01*
X214436000Y-29570000D02*
X220411000Y-29570000D01*
D13*
G04 #@! TO.C,U2*
X198607000Y-36911000D02*
X198607000Y-38411000D01*
X198607000Y-38411000D02*
X198877000Y-38411000D01*
X198877000Y-38411000D02*
X198877000Y-41241000D01*
X205507000Y-36911000D02*
X205507000Y-38411000D01*
X205507000Y-38411000D02*
X205237000Y-38411000D01*
X205237000Y-38411000D02*
X205237000Y-39511000D01*
G04 #@! TO.C,R9*
X242032200Y-43847936D02*
X242032200Y-45052064D01*
X240212200Y-43847936D02*
X240212200Y-45052064D01*
G04 #@! TO.C,R8*
X240212200Y-35084936D02*
X240212200Y-36289064D01*
X242032200Y-35084936D02*
X242032200Y-36289064D01*
G04 #@! TO.C,R7*
X242032200Y-25940936D02*
X242032200Y-27145064D01*
X240212200Y-25940936D02*
X240212200Y-27145064D01*
G04 #@! TO.C,R5*
X210787064Y-31009000D02*
X209582936Y-31009000D01*
X210787064Y-29189000D02*
X209582936Y-29189000D01*
G04 #@! TO.C,IN1*
X179374000Y-34654000D02*
X191974000Y-34654000D01*
X191974000Y-34654000D02*
X191974000Y-24304000D01*
X191974000Y-24304000D02*
X191024000Y-24304000D01*
X191024000Y-24304000D02*
X191274000Y-23804000D01*
X191274000Y-23804000D02*
X189374000Y-23804000D01*
X189374000Y-23804000D02*
X189324000Y-23804000D01*
X189324000Y-23804000D02*
X189574000Y-24304000D01*
X189574000Y-24304000D02*
X184174000Y-24304000D01*
X184174000Y-24304000D02*
X184474000Y-23804000D01*
X184474000Y-23804000D02*
X179374000Y-23804000D01*
X179374000Y-23804000D02*
X179374000Y-34654000D01*
G04 #@! TD*
G04 #@! TO.C,J1*
D10*
X259332380Y-41443333D02*
X260046666Y-41443333D01*
X260189523Y-41490952D01*
X260284761Y-41586190D01*
X260332380Y-41729047D01*
X260332380Y-41824285D01*
X260332380Y-40443333D02*
X260332380Y-41014761D01*
X260332380Y-40729047D02*
X259332380Y-40729047D01*
X259475238Y-40824285D01*
X259570476Y-40919523D01*
X259618095Y-41014761D01*
G04 #@! TO.C,D2*
X214560380Y-39588095D02*
X213560380Y-39588095D01*
X213560380Y-39350000D01*
X213608000Y-39207142D01*
X213703238Y-39111904D01*
X213798476Y-39064285D01*
X213988952Y-39016666D01*
X214131809Y-39016666D01*
X214322285Y-39064285D01*
X214417523Y-39111904D01*
X214512761Y-39207142D01*
X214560380Y-39350000D01*
X214560380Y-39588095D01*
X213655619Y-38635714D02*
X213608000Y-38588095D01*
X213560380Y-38492857D01*
X213560380Y-38254761D01*
X213608000Y-38159523D01*
X213655619Y-38111904D01*
X213750857Y-38064285D01*
X213846095Y-38064285D01*
X213988952Y-38111904D01*
X214560380Y-38683333D01*
X214560380Y-38064285D01*
G04 #@! TO.C,Q6*
X249535961Y-21523819D02*
X249440723Y-21476200D01*
X249345485Y-21380961D01*
X249202628Y-21238104D01*
X249107390Y-21190485D01*
X249012152Y-21190485D01*
X249059771Y-21428580D02*
X248964533Y-21380961D01*
X248869295Y-21285723D01*
X248821676Y-21095247D01*
X248821676Y-20761914D01*
X248869295Y-20571438D01*
X248964533Y-20476200D01*
X249059771Y-20428580D01*
X249250247Y-20428580D01*
X249345485Y-20476200D01*
X249440723Y-20571438D01*
X249488342Y-20761914D01*
X249488342Y-21095247D01*
X249440723Y-21285723D01*
X249345485Y-21380961D01*
X249250247Y-21428580D01*
X249059771Y-21428580D01*
X250345485Y-20428580D02*
X250155009Y-20428580D01*
X250059771Y-20476200D01*
X250012152Y-20523819D01*
X249916914Y-20666676D01*
X249869295Y-20857152D01*
X249869295Y-21238104D01*
X249916914Y-21333342D01*
X249964533Y-21380961D01*
X250059771Y-21428580D01*
X250250247Y-21428580D01*
X250345485Y-21380961D01*
X250393104Y-21333342D01*
X250440723Y-21238104D01*
X250440723Y-21000009D01*
X250393104Y-20904771D01*
X250345485Y-20857152D01*
X250250247Y-20809533D01*
X250059771Y-20809533D01*
X249964533Y-20857152D01*
X249916914Y-20904771D01*
X249869295Y-21000009D01*
G04 #@! TO.C,Q8*
X249535961Y-39176819D02*
X249440723Y-39129200D01*
X249345485Y-39033961D01*
X249202628Y-38891104D01*
X249107390Y-38843485D01*
X249012152Y-38843485D01*
X249059771Y-39081580D02*
X248964533Y-39033961D01*
X248869295Y-38938723D01*
X248821676Y-38748247D01*
X248821676Y-38414914D01*
X248869295Y-38224438D01*
X248964533Y-38129200D01*
X249059771Y-38081580D01*
X249250247Y-38081580D01*
X249345485Y-38129200D01*
X249440723Y-38224438D01*
X249488342Y-38414914D01*
X249488342Y-38748247D01*
X249440723Y-38938723D01*
X249345485Y-39033961D01*
X249250247Y-39081580D01*
X249059771Y-39081580D01*
X250059771Y-38510152D02*
X249964533Y-38462533D01*
X249916914Y-38414914D01*
X249869295Y-38319676D01*
X249869295Y-38272057D01*
X249916914Y-38176819D01*
X249964533Y-38129200D01*
X250059771Y-38081580D01*
X250250247Y-38081580D01*
X250345485Y-38129200D01*
X250393104Y-38176819D01*
X250440723Y-38272057D01*
X250440723Y-38319676D01*
X250393104Y-38414914D01*
X250345485Y-38462533D01*
X250250247Y-38510152D01*
X250059771Y-38510152D01*
X249964533Y-38557771D01*
X249916914Y-38605390D01*
X249869295Y-38700628D01*
X249869295Y-38891104D01*
X249916914Y-38986342D01*
X249964533Y-39033961D01*
X250059771Y-39081580D01*
X250250247Y-39081580D01*
X250345485Y-39033961D01*
X250393104Y-38986342D01*
X250440723Y-38891104D01*
X250440723Y-38700628D01*
X250393104Y-38605390D01*
X250345485Y-38557771D01*
X250250247Y-38510152D01*
G04 #@! TO.C,Q3*
X249535961Y-30286819D02*
X249440723Y-30239200D01*
X249345485Y-30143961D01*
X249202628Y-30001104D01*
X249107390Y-29953485D01*
X249012152Y-29953485D01*
X249059771Y-30191580D02*
X248964533Y-30143961D01*
X248869295Y-30048723D01*
X248821676Y-29858247D01*
X248821676Y-29524914D01*
X248869295Y-29334438D01*
X248964533Y-29239200D01*
X249059771Y-29191580D01*
X249250247Y-29191580D01*
X249345485Y-29239200D01*
X249440723Y-29334438D01*
X249488342Y-29524914D01*
X249488342Y-29858247D01*
X249440723Y-30048723D01*
X249345485Y-30143961D01*
X249250247Y-30191580D01*
X249059771Y-30191580D01*
X249821676Y-29191580D02*
X250440723Y-29191580D01*
X250107390Y-29572533D01*
X250250247Y-29572533D01*
X250345485Y-29620152D01*
X250393104Y-29667771D01*
X250440723Y-29763009D01*
X250440723Y-30001104D01*
X250393104Y-30096342D01*
X250345485Y-30143961D01*
X250250247Y-30191580D01*
X249964533Y-30191580D01*
X249869295Y-30143961D01*
X249821676Y-30096342D01*
G04 #@! TO.C,C2*
X210923142Y-34964666D02*
X210970761Y-35012285D01*
X211018380Y-35155142D01*
X211018380Y-35250380D01*
X210970761Y-35393238D01*
X210875523Y-35488476D01*
X210780285Y-35536095D01*
X210589809Y-35583714D01*
X210446952Y-35583714D01*
X210256476Y-35536095D01*
X210161238Y-35488476D01*
X210066000Y-35393238D01*
X210018380Y-35250380D01*
X210018380Y-35155142D01*
X210066000Y-35012285D01*
X210113619Y-34964666D01*
X210113619Y-34583714D02*
X210066000Y-34536095D01*
X210018380Y-34440857D01*
X210018380Y-34202761D01*
X210066000Y-34107523D01*
X210113619Y-34059904D01*
X210208857Y-34012285D01*
X210304095Y-34012285D01*
X210446952Y-34059904D01*
X211018380Y-34631333D01*
X211018380Y-34012285D01*
G04 #@! TO.C,C3*
X207113142Y-34837666D02*
X207160761Y-34885285D01*
X207208380Y-35028142D01*
X207208380Y-35123380D01*
X207160761Y-35266238D01*
X207065523Y-35361476D01*
X206970285Y-35409095D01*
X206779809Y-35456714D01*
X206636952Y-35456714D01*
X206446476Y-35409095D01*
X206351238Y-35361476D01*
X206256000Y-35266238D01*
X206208380Y-35123380D01*
X206208380Y-35028142D01*
X206256000Y-34885285D01*
X206303619Y-34837666D01*
X206208380Y-34504333D02*
X206208380Y-33885285D01*
X206589333Y-34218619D01*
X206589333Y-34075761D01*
X206636952Y-33980523D01*
X206684571Y-33932904D01*
X206779809Y-33885285D01*
X207017904Y-33885285D01*
X207113142Y-33932904D01*
X207160761Y-33980523D01*
X207208380Y-34075761D01*
X207208380Y-34361476D01*
X207160761Y-34456714D01*
X207113142Y-34504333D01*
G04 #@! TO.C,C4*
X195429142Y-44362666D02*
X195476761Y-44410285D01*
X195524380Y-44553142D01*
X195524380Y-44648380D01*
X195476761Y-44791238D01*
X195381523Y-44886476D01*
X195286285Y-44934095D01*
X195095809Y-44981714D01*
X194952952Y-44981714D01*
X194762476Y-44934095D01*
X194667238Y-44886476D01*
X194572000Y-44791238D01*
X194524380Y-44648380D01*
X194524380Y-44553142D01*
X194572000Y-44410285D01*
X194619619Y-44362666D01*
X194857714Y-43505523D02*
X195524380Y-43505523D01*
X194476761Y-43743619D02*
X195191047Y-43981714D01*
X195191047Y-43362666D01*
G04 #@! TO.C,C5*
X194413142Y-26709666D02*
X194460761Y-26757285D01*
X194508380Y-26900142D01*
X194508380Y-26995380D01*
X194460761Y-27138238D01*
X194365523Y-27233476D01*
X194270285Y-27281095D01*
X194079809Y-27328714D01*
X193936952Y-27328714D01*
X193746476Y-27281095D01*
X193651238Y-27233476D01*
X193556000Y-27138238D01*
X193508380Y-26995380D01*
X193508380Y-26900142D01*
X193556000Y-26757285D01*
X193603619Y-26709666D01*
X193508380Y-25804904D02*
X193508380Y-26281095D01*
X193984571Y-26328714D01*
X193936952Y-26281095D01*
X193889333Y-26185857D01*
X193889333Y-25947761D01*
X193936952Y-25852523D01*
X193984571Y-25804904D01*
X194079809Y-25757285D01*
X194317904Y-25757285D01*
X194413142Y-25804904D01*
X194460761Y-25852523D01*
X194508380Y-25947761D01*
X194508380Y-26185857D01*
X194460761Y-26281095D01*
X194413142Y-26328714D01*
G04 #@! TO.C,LEARN1*
X227524571Y-20772380D02*
X227048380Y-20772380D01*
X227048380Y-19772380D01*
X227857904Y-20248571D02*
X228191238Y-20248571D01*
X228334095Y-20772380D02*
X227857904Y-20772380D01*
X227857904Y-19772380D01*
X228334095Y-19772380D01*
X228715047Y-20486666D02*
X229191238Y-20486666D01*
X228619809Y-20772380D02*
X228953142Y-19772380D01*
X229286476Y-20772380D01*
X230191238Y-20772380D02*
X229857904Y-20296190D01*
X229619809Y-20772380D02*
X229619809Y-19772380D01*
X230000761Y-19772380D01*
X230096000Y-19820000D01*
X230143619Y-19867619D01*
X230191238Y-19962857D01*
X230191238Y-20105714D01*
X230143619Y-20200952D01*
X230096000Y-20248571D01*
X230000761Y-20296190D01*
X229619809Y-20296190D01*
X230619809Y-20772380D02*
X230619809Y-19772380D01*
X231191238Y-20772380D01*
X231191238Y-19772380D01*
X232191238Y-20772380D02*
X231619809Y-20772380D01*
X231905523Y-20772380D02*
X231905523Y-19772380D01*
X231810285Y-19915238D01*
X231715047Y-20010476D01*
X231619809Y-20058095D01*
G04 #@! TO.C,SWIM1*
X213299942Y-26896961D02*
X213442800Y-26944580D01*
X213680895Y-26944580D01*
X213776133Y-26896961D01*
X213823752Y-26849342D01*
X213871371Y-26754104D01*
X213871371Y-26658866D01*
X213823752Y-26563628D01*
X213776133Y-26516009D01*
X213680895Y-26468390D01*
X213490419Y-26420771D01*
X213395180Y-26373152D01*
X213347561Y-26325533D01*
X213299942Y-26230295D01*
X213299942Y-26135057D01*
X213347561Y-26039819D01*
X213395180Y-25992200D01*
X213490419Y-25944580D01*
X213728514Y-25944580D01*
X213871371Y-25992200D01*
X214204704Y-25944580D02*
X214442800Y-26944580D01*
X214633276Y-26230295D01*
X214823752Y-26944580D01*
X215061847Y-25944580D01*
X215442800Y-26944580D02*
X215442800Y-25944580D01*
X215918990Y-26944580D02*
X215918990Y-25944580D01*
X216252323Y-26658866D01*
X216585657Y-25944580D01*
X216585657Y-26944580D01*
X217585657Y-26944580D02*
X217014228Y-26944580D01*
X217299942Y-26944580D02*
X217299942Y-25944580D01*
X217204704Y-26087438D01*
X217109466Y-26182676D01*
X217014228Y-26230295D01*
G04 #@! TO.C,U3*
X229616095Y-29748980D02*
X229616095Y-30558504D01*
X229663714Y-30653742D01*
X229711333Y-30701361D01*
X229806571Y-30748980D01*
X229997047Y-30748980D01*
X230092285Y-30701361D01*
X230139904Y-30653742D01*
X230187523Y-30558504D01*
X230187523Y-29748980D01*
X230568476Y-29748980D02*
X231187523Y-29748980D01*
X230854190Y-30129933D01*
X230997047Y-30129933D01*
X231092285Y-30177552D01*
X231139904Y-30225171D01*
X231187523Y-30320409D01*
X231187523Y-30558504D01*
X231139904Y-30653742D01*
X231092285Y-30701361D01*
X230997047Y-30748980D01*
X230711333Y-30748980D01*
X230616095Y-30701361D01*
X230568476Y-30653742D01*
G04 #@! TO.C,U1*
X217424095Y-28172380D02*
X217424095Y-28981904D01*
X217471714Y-29077142D01*
X217519333Y-29124761D01*
X217614571Y-29172380D01*
X217805047Y-29172380D01*
X217900285Y-29124761D01*
X217947904Y-29077142D01*
X217995523Y-28981904D01*
X217995523Y-28172380D01*
X218995523Y-29172380D02*
X218424095Y-29172380D01*
X218709809Y-29172380D02*
X218709809Y-28172380D01*
X218614571Y-28315238D01*
X218519333Y-28410476D01*
X218424095Y-28458095D01*
G04 #@! TO.C,U2*
X197191380Y-35051904D02*
X198000904Y-35051904D01*
X198096142Y-35004285D01*
X198143761Y-34956666D01*
X198191380Y-34861428D01*
X198191380Y-34670952D01*
X198143761Y-34575714D01*
X198096142Y-34528095D01*
X198000904Y-34480476D01*
X197191380Y-34480476D01*
X197286619Y-34051904D02*
X197239000Y-34004285D01*
X197191380Y-33909047D01*
X197191380Y-33670952D01*
X197239000Y-33575714D01*
X197286619Y-33528095D01*
X197381857Y-33480476D01*
X197477095Y-33480476D01*
X197619952Y-33528095D01*
X198191380Y-34099523D01*
X198191380Y-33480476D01*
G04 #@! TO.C,R9*
X239702380Y-44806666D02*
X239226190Y-45140000D01*
X239702380Y-45378095D02*
X238702380Y-45378095D01*
X238702380Y-44997142D01*
X238750000Y-44901904D01*
X238797619Y-44854285D01*
X238892857Y-44806666D01*
X239035714Y-44806666D01*
X239130952Y-44854285D01*
X239178571Y-44901904D01*
X239226190Y-44997142D01*
X239226190Y-45378095D01*
X239702380Y-44330476D02*
X239702380Y-44140000D01*
X239654761Y-44044761D01*
X239607142Y-43997142D01*
X239464285Y-43901904D01*
X239273809Y-43854285D01*
X238892857Y-43854285D01*
X238797619Y-43901904D01*
X238750000Y-43949523D01*
X238702380Y-44044761D01*
X238702380Y-44235238D01*
X238750000Y-44330476D01*
X238797619Y-44378095D01*
X238892857Y-44425714D01*
X239130952Y-44425714D01*
X239226190Y-44378095D01*
X239273809Y-44330476D01*
X239321428Y-44235238D01*
X239321428Y-44044761D01*
X239273809Y-43949523D01*
X239226190Y-43901904D01*
X239130952Y-43854285D01*
G04 #@! TO.C,R8*
X239492380Y-36026666D02*
X239016190Y-36360000D01*
X239492380Y-36598095D02*
X238492380Y-36598095D01*
X238492380Y-36217142D01*
X238540000Y-36121904D01*
X238587619Y-36074285D01*
X238682857Y-36026666D01*
X238825714Y-36026666D01*
X238920952Y-36074285D01*
X238968571Y-36121904D01*
X239016190Y-36217142D01*
X239016190Y-36598095D01*
X238920952Y-35455238D02*
X238873333Y-35550476D01*
X238825714Y-35598095D01*
X238730476Y-35645714D01*
X238682857Y-35645714D01*
X238587619Y-35598095D01*
X238540000Y-35550476D01*
X238492380Y-35455238D01*
X238492380Y-35264761D01*
X238540000Y-35169523D01*
X238587619Y-35121904D01*
X238682857Y-35074285D01*
X238730476Y-35074285D01*
X238825714Y-35121904D01*
X238873333Y-35169523D01*
X238920952Y-35264761D01*
X238920952Y-35455238D01*
X238968571Y-35550476D01*
X239016190Y-35598095D01*
X239111428Y-35645714D01*
X239301904Y-35645714D01*
X239397142Y-35598095D01*
X239444761Y-35550476D01*
X239492380Y-35455238D01*
X239492380Y-35264761D01*
X239444761Y-35169523D01*
X239397142Y-35121904D01*
X239301904Y-35074285D01*
X239111428Y-35074285D01*
X239016190Y-35121904D01*
X238968571Y-35169523D01*
X238920952Y-35264761D01*
G04 #@! TO.C,R7*
X239642380Y-26726666D02*
X239166190Y-27060000D01*
X239642380Y-27298095D02*
X238642380Y-27298095D01*
X238642380Y-26917142D01*
X238690000Y-26821904D01*
X238737619Y-26774285D01*
X238832857Y-26726666D01*
X238975714Y-26726666D01*
X239070952Y-26774285D01*
X239118571Y-26821904D01*
X239166190Y-26917142D01*
X239166190Y-27298095D01*
X238642380Y-26393333D02*
X238642380Y-25726666D01*
X239642380Y-26155238D01*
G04 #@! TO.C,R5*
X207335380Y-30265666D02*
X206859190Y-30599000D01*
X207335380Y-30837095D02*
X206335380Y-30837095D01*
X206335380Y-30456142D01*
X206383000Y-30360904D01*
X206430619Y-30313285D01*
X206525857Y-30265666D01*
X206668714Y-30265666D01*
X206763952Y-30313285D01*
X206811571Y-30360904D01*
X206859190Y-30456142D01*
X206859190Y-30837095D01*
X206335380Y-29360904D02*
X206335380Y-29837095D01*
X206811571Y-29884714D01*
X206763952Y-29837095D01*
X206716333Y-29741857D01*
X206716333Y-29503761D01*
X206763952Y-29408523D01*
X206811571Y-29360904D01*
X206906809Y-29313285D01*
X207144904Y-29313285D01*
X207240142Y-29360904D01*
X207287761Y-29408523D01*
X207335380Y-29503761D01*
X207335380Y-29741857D01*
X207287761Y-29837095D01*
X207240142Y-29884714D01*
G04 #@! TO.C,IN1*
X184851800Y-35885380D02*
X184851800Y-34885380D01*
X185327990Y-35885380D02*
X185327990Y-34885380D01*
X185899419Y-35885380D01*
X185899419Y-34885380D01*
X186899419Y-35885380D02*
X186327990Y-35885380D01*
X186613704Y-35885380D02*
X186613704Y-34885380D01*
X186518466Y-35028238D01*
X186423228Y-35123476D01*
X186327990Y-35171095D01*
G04 #@! TD*
M02*
