G04 #@! TF.GenerationSoftware,KiCad,Pcbnew,(5.1.4-0)*
G04 #@! TF.CreationDate,2020-01-15T23:19:41+03:00*
G04 #@! TF.ProjectId,stl,73746c2e-6b69-4636-9164-5f7063625858,rev?*
G04 #@! TF.SameCoordinates,Original*
G04 #@! TF.FileFunction,Copper,L2,Bot*
G04 #@! TF.FilePolarity,Positive*
%FSLAX46Y46*%
G04 Gerber Fmt 4.6, Leading zero omitted, Abs format (unit mm)*
G04 Created by KiCad (PCBNEW (5.1.4-0)) date 2020-01-15 23:19:41*
%MOMM*%
%LPD*%
G04 APERTURE LIST*
G04 #@! TA.AperFunction,NonConductor*
%ADD10C,0.150000*%
G04 #@! TD*
G04 #@! TA.AperFunction,ComponentPad*
%ADD11R,2.600000X2.600000*%
G04 #@! TD*
G04 #@! TA.AperFunction,ComponentPad*
%ADD12C,2.600000*%
G04 #@! TD*
G04 #@! TA.AperFunction,SMDPad,CuDef*
%ADD13R,2.200000X1.200000*%
G04 #@! TD*
G04 #@! TA.AperFunction,SMDPad,CuDef*
%ADD14R,6.400000X5.800000*%
G04 #@! TD*
G04 #@! TA.AperFunction,Conductor*
%ADD15C,0.100000*%
G04 #@! TD*
G04 #@! TA.AperFunction,SMDPad,CuDef*
%ADD16C,1.250000*%
G04 #@! TD*
G04 #@! TA.AperFunction,SMDPad,CuDef*
%ADD17R,9.400000X10.800000*%
G04 #@! TD*
G04 #@! TA.AperFunction,SMDPad,CuDef*
%ADD18R,4.600000X1.100000*%
G04 #@! TD*
G04 #@! TA.AperFunction,ComponentPad*
%ADD19C,1.700000*%
G04 #@! TD*
G04 #@! TA.AperFunction,ComponentPad*
%ADD20O,1.700000X2.000000*%
G04 #@! TD*
G04 #@! TA.AperFunction,ComponentPad*
%ADD21O,1.700000X1.950000*%
G04 #@! TD*
G04 #@! TA.AperFunction,SMDPad,CuDef*
%ADD22R,2.300000X2.500000*%
G04 #@! TD*
G04 #@! TA.AperFunction,ComponentPad*
%ADD23R,3.960000X1.980000*%
G04 #@! TD*
G04 #@! TA.AperFunction,ComponentPad*
%ADD24O,3.960000X1.980000*%
G04 #@! TD*
G04 #@! TA.AperFunction,ViaPad*
%ADD25C,0.800000*%
G04 #@! TD*
G04 #@! TA.AperFunction,Conductor*
%ADD26C,0.500000*%
G04 #@! TD*
G04 #@! TA.AperFunction,Conductor*
%ADD27C,2.000000*%
G04 #@! TD*
G04 #@! TA.AperFunction,Conductor*
%ADD28C,1.270000*%
G04 #@! TD*
G04 #@! TA.AperFunction,Conductor*
%ADD29C,0.431800*%
G04 #@! TD*
G04 #@! TA.AperFunction,Conductor*
%ADD30C,0.381000*%
G04 #@! TD*
G04 #@! TA.AperFunction,Conductor*
%ADD31C,0.762000*%
G04 #@! TD*
G04 #@! TA.AperFunction,Conductor*
%ADD32C,0.508000*%
G04 #@! TD*
G04 #@! TA.AperFunction,Conductor*
%ADD33C,2.032000*%
G04 #@! TD*
G04 #@! TA.AperFunction,Conductor*
%ADD34C,0.254000*%
G04 #@! TD*
G04 APERTURE END LIST*
D10*
X275590000Y-50927000D02*
X173990000Y-50927000D01*
X173990000Y-13589000D02*
X173990000Y-50927000D01*
X275590000Y-13589000D02*
X173990000Y-13589000D01*
X275590000Y-13589000D02*
X275590000Y-50927000D01*
D11*
G04 #@! TO.P,J1,1*
G04 #@! TO.N,+BATT*
X265887200Y-24714200D03*
D12*
G04 #@! TO.P,J1,2*
G04 #@! TO.N,lamp2_out*
X265887200Y-29714200D03*
G04 #@! TO.P,J1,3*
G04 #@! TO.N,lamp3_out*
X265887200Y-34714200D03*
G04 #@! TO.P,J1,4*
G04 #@! TO.N,lamp4_out*
X265887200Y-39714200D03*
G04 #@! TD*
D13*
G04 #@! TO.P,Q2,1*
G04 #@! TO.N,lamp2_ctrl*
X245431200Y-27629200D03*
G04 #@! TO.P,Q2,3*
G04 #@! TO.N,+12V*
X245431200Y-23069200D03*
D14*
G04 #@! TO.P,Q2,2*
G04 #@! TO.N,lamp2_out*
X251731200Y-25349200D03*
G04 #@! TD*
D15*
G04 #@! TO.N,Net-(D2-Pad1)*
G04 #@! TO.C,R15*
G36*
X218914504Y-37965204D02*
G01*
X218938773Y-37968804D01*
X218962571Y-37974765D01*
X218985671Y-37983030D01*
X219007849Y-37993520D01*
X219028893Y-38006133D01*
X219048598Y-38020747D01*
X219066777Y-38037223D01*
X219083253Y-38055402D01*
X219097867Y-38075107D01*
X219110480Y-38096151D01*
X219120970Y-38118329D01*
X219129235Y-38141429D01*
X219135196Y-38165227D01*
X219138796Y-38189496D01*
X219140000Y-38214000D01*
X219140000Y-39464000D01*
X219138796Y-39488504D01*
X219135196Y-39512773D01*
X219129235Y-39536571D01*
X219120970Y-39559671D01*
X219110480Y-39581849D01*
X219097867Y-39602893D01*
X219083253Y-39622598D01*
X219066777Y-39640777D01*
X219048598Y-39657253D01*
X219028893Y-39671867D01*
X219007849Y-39684480D01*
X218985671Y-39694970D01*
X218962571Y-39703235D01*
X218938773Y-39709196D01*
X218914504Y-39712796D01*
X218890000Y-39714000D01*
X218140000Y-39714000D01*
X218115496Y-39712796D01*
X218091227Y-39709196D01*
X218067429Y-39703235D01*
X218044329Y-39694970D01*
X218022151Y-39684480D01*
X218001107Y-39671867D01*
X217981402Y-39657253D01*
X217963223Y-39640777D01*
X217946747Y-39622598D01*
X217932133Y-39602893D01*
X217919520Y-39581849D01*
X217909030Y-39559671D01*
X217900765Y-39536571D01*
X217894804Y-39512773D01*
X217891204Y-39488504D01*
X217890000Y-39464000D01*
X217890000Y-38214000D01*
X217891204Y-38189496D01*
X217894804Y-38165227D01*
X217900765Y-38141429D01*
X217909030Y-38118329D01*
X217919520Y-38096151D01*
X217932133Y-38075107D01*
X217946747Y-38055402D01*
X217963223Y-38037223D01*
X217981402Y-38020747D01*
X218001107Y-38006133D01*
X218022151Y-37993520D01*
X218044329Y-37983030D01*
X218067429Y-37974765D01*
X218091227Y-37968804D01*
X218115496Y-37965204D01*
X218140000Y-37964000D01*
X218890000Y-37964000D01*
X218914504Y-37965204D01*
X218914504Y-37965204D01*
G37*
D16*
G04 #@! TD*
G04 #@! TO.P,R15,1*
G04 #@! TO.N,Net-(D2-Pad1)*
X218515000Y-38839000D03*
D15*
G04 #@! TO.N,GND*
G04 #@! TO.C,R15*
G36*
X216114504Y-37965204D02*
G01*
X216138773Y-37968804D01*
X216162571Y-37974765D01*
X216185671Y-37983030D01*
X216207849Y-37993520D01*
X216228893Y-38006133D01*
X216248598Y-38020747D01*
X216266777Y-38037223D01*
X216283253Y-38055402D01*
X216297867Y-38075107D01*
X216310480Y-38096151D01*
X216320970Y-38118329D01*
X216329235Y-38141429D01*
X216335196Y-38165227D01*
X216338796Y-38189496D01*
X216340000Y-38214000D01*
X216340000Y-39464000D01*
X216338796Y-39488504D01*
X216335196Y-39512773D01*
X216329235Y-39536571D01*
X216320970Y-39559671D01*
X216310480Y-39581849D01*
X216297867Y-39602893D01*
X216283253Y-39622598D01*
X216266777Y-39640777D01*
X216248598Y-39657253D01*
X216228893Y-39671867D01*
X216207849Y-39684480D01*
X216185671Y-39694970D01*
X216162571Y-39703235D01*
X216138773Y-39709196D01*
X216114504Y-39712796D01*
X216090000Y-39714000D01*
X215340000Y-39714000D01*
X215315496Y-39712796D01*
X215291227Y-39709196D01*
X215267429Y-39703235D01*
X215244329Y-39694970D01*
X215222151Y-39684480D01*
X215201107Y-39671867D01*
X215181402Y-39657253D01*
X215163223Y-39640777D01*
X215146747Y-39622598D01*
X215132133Y-39602893D01*
X215119520Y-39581849D01*
X215109030Y-39559671D01*
X215100765Y-39536571D01*
X215094804Y-39512773D01*
X215091204Y-39488504D01*
X215090000Y-39464000D01*
X215090000Y-38214000D01*
X215091204Y-38189496D01*
X215094804Y-38165227D01*
X215100765Y-38141429D01*
X215109030Y-38118329D01*
X215119520Y-38096151D01*
X215132133Y-38075107D01*
X215146747Y-38055402D01*
X215163223Y-38037223D01*
X215181402Y-38020747D01*
X215201107Y-38006133D01*
X215222151Y-37993520D01*
X215244329Y-37983030D01*
X215267429Y-37974765D01*
X215291227Y-37968804D01*
X215315496Y-37965204D01*
X215340000Y-37964000D01*
X216090000Y-37964000D01*
X216114504Y-37965204D01*
X216114504Y-37965204D01*
G37*
D16*
G04 #@! TD*
G04 #@! TO.P,R15,2*
G04 #@! TO.N,GND*
X215715000Y-38839000D03*
D17*
G04 #@! TO.P,Q1,2*
G04 #@! TO.N,+BATT*
X187252000Y-42291000D03*
D18*
G04 #@! TO.P,Q1,3*
G04 #@! TO.N,+12V*
X196402000Y-44831000D03*
G04 #@! TO.P,Q1,1*
G04 #@! TO.N,GND*
X196402000Y-39751000D03*
G04 #@! TD*
D13*
G04 #@! TO.P,Q7,1*
G04 #@! TO.N,lamp3_ctrl*
X245431200Y-36392200D03*
G04 #@! TO.P,Q7,3*
G04 #@! TO.N,+12V*
X245431200Y-31832200D03*
D14*
G04 #@! TO.P,Q7,2*
G04 #@! TO.N,lamp3_out*
X251731200Y-34112200D03*
G04 #@! TD*
D13*
G04 #@! TO.P,Q4,1*
G04 #@! TO.N,lamp4_ctrl*
X245431200Y-45409200D03*
G04 #@! TO.P,Q4,3*
G04 #@! TO.N,+12V*
X245431200Y-40849200D03*
D14*
G04 #@! TO.P,Q4,2*
G04 #@! TO.N,lamp4_out*
X251731200Y-43129200D03*
G04 #@! TD*
D15*
G04 #@! TO.N,GND*
G04 #@! TO.C,C1*
G36*
X218759504Y-32796204D02*
G01*
X218783773Y-32799804D01*
X218807571Y-32805765D01*
X218830671Y-32814030D01*
X218852849Y-32824520D01*
X218873893Y-32837133D01*
X218893598Y-32851747D01*
X218911777Y-32868223D01*
X218928253Y-32886402D01*
X218942867Y-32906107D01*
X218955480Y-32927151D01*
X218965970Y-32949329D01*
X218974235Y-32972429D01*
X218980196Y-32996227D01*
X218983796Y-33020496D01*
X218985000Y-33045000D01*
X218985000Y-33795000D01*
X218983796Y-33819504D01*
X218980196Y-33843773D01*
X218974235Y-33867571D01*
X218965970Y-33890671D01*
X218955480Y-33912849D01*
X218942867Y-33933893D01*
X218928253Y-33953598D01*
X218911777Y-33971777D01*
X218893598Y-33988253D01*
X218873893Y-34002867D01*
X218852849Y-34015480D01*
X218830671Y-34025970D01*
X218807571Y-34034235D01*
X218783773Y-34040196D01*
X218759504Y-34043796D01*
X218735000Y-34045000D01*
X217485000Y-34045000D01*
X217460496Y-34043796D01*
X217436227Y-34040196D01*
X217412429Y-34034235D01*
X217389329Y-34025970D01*
X217367151Y-34015480D01*
X217346107Y-34002867D01*
X217326402Y-33988253D01*
X217308223Y-33971777D01*
X217291747Y-33953598D01*
X217277133Y-33933893D01*
X217264520Y-33912849D01*
X217254030Y-33890671D01*
X217245765Y-33867571D01*
X217239804Y-33843773D01*
X217236204Y-33819504D01*
X217235000Y-33795000D01*
X217235000Y-33045000D01*
X217236204Y-33020496D01*
X217239804Y-32996227D01*
X217245765Y-32972429D01*
X217254030Y-32949329D01*
X217264520Y-32927151D01*
X217277133Y-32906107D01*
X217291747Y-32886402D01*
X217308223Y-32868223D01*
X217326402Y-32851747D01*
X217346107Y-32837133D01*
X217367151Y-32824520D01*
X217389329Y-32814030D01*
X217412429Y-32805765D01*
X217436227Y-32799804D01*
X217460496Y-32796204D01*
X217485000Y-32795000D01*
X218735000Y-32795000D01*
X218759504Y-32796204D01*
X218759504Y-32796204D01*
G37*
D16*
G04 #@! TD*
G04 #@! TO.P,C1,1*
G04 #@! TO.N,GND*
X218110000Y-33420000D03*
D15*
G04 #@! TO.N,Net-(C1-Pad2)*
G04 #@! TO.C,C1*
G36*
X218759504Y-35596204D02*
G01*
X218783773Y-35599804D01*
X218807571Y-35605765D01*
X218830671Y-35614030D01*
X218852849Y-35624520D01*
X218873893Y-35637133D01*
X218893598Y-35651747D01*
X218911777Y-35668223D01*
X218928253Y-35686402D01*
X218942867Y-35706107D01*
X218955480Y-35727151D01*
X218965970Y-35749329D01*
X218974235Y-35772429D01*
X218980196Y-35796227D01*
X218983796Y-35820496D01*
X218985000Y-35845000D01*
X218985000Y-36595000D01*
X218983796Y-36619504D01*
X218980196Y-36643773D01*
X218974235Y-36667571D01*
X218965970Y-36690671D01*
X218955480Y-36712849D01*
X218942867Y-36733893D01*
X218928253Y-36753598D01*
X218911777Y-36771777D01*
X218893598Y-36788253D01*
X218873893Y-36802867D01*
X218852849Y-36815480D01*
X218830671Y-36825970D01*
X218807571Y-36834235D01*
X218783773Y-36840196D01*
X218759504Y-36843796D01*
X218735000Y-36845000D01*
X217485000Y-36845000D01*
X217460496Y-36843796D01*
X217436227Y-36840196D01*
X217412429Y-36834235D01*
X217389329Y-36825970D01*
X217367151Y-36815480D01*
X217346107Y-36802867D01*
X217326402Y-36788253D01*
X217308223Y-36771777D01*
X217291747Y-36753598D01*
X217277133Y-36733893D01*
X217264520Y-36712849D01*
X217254030Y-36690671D01*
X217245765Y-36667571D01*
X217239804Y-36643773D01*
X217236204Y-36619504D01*
X217235000Y-36595000D01*
X217235000Y-35845000D01*
X217236204Y-35820496D01*
X217239804Y-35796227D01*
X217245765Y-35772429D01*
X217254030Y-35749329D01*
X217264520Y-35727151D01*
X217277133Y-35706107D01*
X217291747Y-35686402D01*
X217308223Y-35668223D01*
X217326402Y-35651747D01*
X217346107Y-35637133D01*
X217367151Y-35624520D01*
X217389329Y-35614030D01*
X217412429Y-35605765D01*
X217436227Y-35599804D01*
X217460496Y-35596204D01*
X217485000Y-35595000D01*
X218735000Y-35595000D01*
X218759504Y-35596204D01*
X218759504Y-35596204D01*
G37*
D16*
G04 #@! TD*
G04 #@! TO.P,C1,2*
G04 #@! TO.N,Net-(C1-Pad2)*
X218110000Y-36220000D03*
D15*
G04 #@! TO.N,+3V3*
G04 #@! TO.C,LEARN1*
G36*
X228970504Y-22242204D02*
G01*
X228994773Y-22245804D01*
X229018571Y-22251765D01*
X229041671Y-22260030D01*
X229063849Y-22270520D01*
X229084893Y-22283133D01*
X229104598Y-22297747D01*
X229122777Y-22314223D01*
X229139253Y-22332402D01*
X229153867Y-22352107D01*
X229166480Y-22373151D01*
X229176970Y-22395329D01*
X229185235Y-22418429D01*
X229191196Y-22442227D01*
X229194796Y-22466496D01*
X229196000Y-22491000D01*
X229196000Y-23991000D01*
X229194796Y-24015504D01*
X229191196Y-24039773D01*
X229185235Y-24063571D01*
X229176970Y-24086671D01*
X229166480Y-24108849D01*
X229153867Y-24129893D01*
X229139253Y-24149598D01*
X229122777Y-24167777D01*
X229104598Y-24184253D01*
X229084893Y-24198867D01*
X229063849Y-24211480D01*
X229041671Y-24221970D01*
X229018571Y-24230235D01*
X228994773Y-24236196D01*
X228970504Y-24239796D01*
X228946000Y-24241000D01*
X227746000Y-24241000D01*
X227721496Y-24239796D01*
X227697227Y-24236196D01*
X227673429Y-24230235D01*
X227650329Y-24221970D01*
X227628151Y-24211480D01*
X227607107Y-24198867D01*
X227587402Y-24184253D01*
X227569223Y-24167777D01*
X227552747Y-24149598D01*
X227538133Y-24129893D01*
X227525520Y-24108849D01*
X227515030Y-24086671D01*
X227506765Y-24063571D01*
X227500804Y-24039773D01*
X227497204Y-24015504D01*
X227496000Y-23991000D01*
X227496000Y-22491000D01*
X227497204Y-22466496D01*
X227500804Y-22442227D01*
X227506765Y-22418429D01*
X227515030Y-22395329D01*
X227525520Y-22373151D01*
X227538133Y-22352107D01*
X227552747Y-22332402D01*
X227569223Y-22314223D01*
X227587402Y-22297747D01*
X227607107Y-22283133D01*
X227628151Y-22270520D01*
X227650329Y-22260030D01*
X227673429Y-22251765D01*
X227697227Y-22245804D01*
X227721496Y-22242204D01*
X227746000Y-22241000D01*
X228946000Y-22241000D01*
X228970504Y-22242204D01*
X228970504Y-22242204D01*
G37*
D19*
G04 #@! TD*
G04 #@! TO.P,LEARN1,1*
G04 #@! TO.N,+3V3*
X228346000Y-23241000D03*
D20*
G04 #@! TO.P,LEARN1,2*
G04 #@! TO.N,LEARN*
X230846000Y-23241000D03*
G04 #@! TD*
D15*
G04 #@! TO.N,NRST*
G04 #@! TO.C,SWIM1*
G36*
X212333504Y-22267204D02*
G01*
X212357773Y-22270804D01*
X212381571Y-22276765D01*
X212404671Y-22285030D01*
X212426849Y-22295520D01*
X212447893Y-22308133D01*
X212467598Y-22322747D01*
X212485777Y-22339223D01*
X212502253Y-22357402D01*
X212516867Y-22377107D01*
X212529480Y-22398151D01*
X212539970Y-22420329D01*
X212548235Y-22443429D01*
X212554196Y-22467227D01*
X212557796Y-22491496D01*
X212559000Y-22516000D01*
X212559000Y-23966000D01*
X212557796Y-23990504D01*
X212554196Y-24014773D01*
X212548235Y-24038571D01*
X212539970Y-24061671D01*
X212529480Y-24083849D01*
X212516867Y-24104893D01*
X212502253Y-24124598D01*
X212485777Y-24142777D01*
X212467598Y-24159253D01*
X212447893Y-24173867D01*
X212426849Y-24186480D01*
X212404671Y-24196970D01*
X212381571Y-24205235D01*
X212357773Y-24211196D01*
X212333504Y-24214796D01*
X212309000Y-24216000D01*
X211109000Y-24216000D01*
X211084496Y-24214796D01*
X211060227Y-24211196D01*
X211036429Y-24205235D01*
X211013329Y-24196970D01*
X210991151Y-24186480D01*
X210970107Y-24173867D01*
X210950402Y-24159253D01*
X210932223Y-24142777D01*
X210915747Y-24124598D01*
X210901133Y-24104893D01*
X210888520Y-24083849D01*
X210878030Y-24061671D01*
X210869765Y-24038571D01*
X210863804Y-24014773D01*
X210860204Y-23990504D01*
X210859000Y-23966000D01*
X210859000Y-22516000D01*
X210860204Y-22491496D01*
X210863804Y-22467227D01*
X210869765Y-22443429D01*
X210878030Y-22420329D01*
X210888520Y-22398151D01*
X210901133Y-22377107D01*
X210915747Y-22357402D01*
X210932223Y-22339223D01*
X210950402Y-22322747D01*
X210970107Y-22308133D01*
X210991151Y-22295520D01*
X211013329Y-22285030D01*
X211036429Y-22276765D01*
X211060227Y-22270804D01*
X211084496Y-22267204D01*
X211109000Y-22266000D01*
X212309000Y-22266000D01*
X212333504Y-22267204D01*
X212333504Y-22267204D01*
G37*
D19*
G04 #@! TD*
G04 #@! TO.P,SWIM1,1*
G04 #@! TO.N,NRST*
X211709000Y-23241000D03*
D21*
G04 #@! TO.P,SWIM1,2*
G04 #@! TO.N,SWIM*
X214209000Y-23241000D03*
G04 #@! TO.P,SWIM1,3*
G04 #@! TO.N,GND*
X216709000Y-23241000D03*
G04 #@! TO.P,SWIM1,4*
G04 #@! TO.N,+3V3*
X219209000Y-23241000D03*
G04 #@! TD*
D22*
G04 #@! TO.P,D1,1*
G04 #@! TO.N,+12V*
X201803000Y-44441000D03*
G04 #@! TO.P,D1,2*
G04 #@! TO.N,GND*
X201803000Y-40141000D03*
G04 #@! TD*
D15*
G04 #@! TO.N,CNT1*
G04 #@! TO.C,R2*
G36*
X225058504Y-35574204D02*
G01*
X225082773Y-35577804D01*
X225106571Y-35583765D01*
X225129671Y-35592030D01*
X225151849Y-35602520D01*
X225172893Y-35615133D01*
X225192598Y-35629747D01*
X225210777Y-35646223D01*
X225227253Y-35664402D01*
X225241867Y-35684107D01*
X225254480Y-35705151D01*
X225264970Y-35727329D01*
X225273235Y-35750429D01*
X225279196Y-35774227D01*
X225282796Y-35798496D01*
X225284000Y-35823000D01*
X225284000Y-36573000D01*
X225282796Y-36597504D01*
X225279196Y-36621773D01*
X225273235Y-36645571D01*
X225264970Y-36668671D01*
X225254480Y-36690849D01*
X225241867Y-36711893D01*
X225227253Y-36731598D01*
X225210777Y-36749777D01*
X225192598Y-36766253D01*
X225172893Y-36780867D01*
X225151849Y-36793480D01*
X225129671Y-36803970D01*
X225106571Y-36812235D01*
X225082773Y-36818196D01*
X225058504Y-36821796D01*
X225034000Y-36823000D01*
X223784000Y-36823000D01*
X223759496Y-36821796D01*
X223735227Y-36818196D01*
X223711429Y-36812235D01*
X223688329Y-36803970D01*
X223666151Y-36793480D01*
X223645107Y-36780867D01*
X223625402Y-36766253D01*
X223607223Y-36749777D01*
X223590747Y-36731598D01*
X223576133Y-36711893D01*
X223563520Y-36690849D01*
X223553030Y-36668671D01*
X223544765Y-36645571D01*
X223538804Y-36621773D01*
X223535204Y-36597504D01*
X223534000Y-36573000D01*
X223534000Y-35823000D01*
X223535204Y-35798496D01*
X223538804Y-35774227D01*
X223544765Y-35750429D01*
X223553030Y-35727329D01*
X223563520Y-35705151D01*
X223576133Y-35684107D01*
X223590747Y-35664402D01*
X223607223Y-35646223D01*
X223625402Y-35629747D01*
X223645107Y-35615133D01*
X223666151Y-35602520D01*
X223688329Y-35592030D01*
X223711429Y-35583765D01*
X223735227Y-35577804D01*
X223759496Y-35574204D01*
X223784000Y-35573000D01*
X225034000Y-35573000D01*
X225058504Y-35574204D01*
X225058504Y-35574204D01*
G37*
D16*
G04 #@! TD*
G04 #@! TO.P,R2,2*
G04 #@! TO.N,CNT1*
X224409000Y-36198000D03*
D15*
G04 #@! TO.N,GND*
G04 #@! TO.C,R2*
G36*
X225058504Y-32774204D02*
G01*
X225082773Y-32777804D01*
X225106571Y-32783765D01*
X225129671Y-32792030D01*
X225151849Y-32802520D01*
X225172893Y-32815133D01*
X225192598Y-32829747D01*
X225210777Y-32846223D01*
X225227253Y-32864402D01*
X225241867Y-32884107D01*
X225254480Y-32905151D01*
X225264970Y-32927329D01*
X225273235Y-32950429D01*
X225279196Y-32974227D01*
X225282796Y-32998496D01*
X225284000Y-33023000D01*
X225284000Y-33773000D01*
X225282796Y-33797504D01*
X225279196Y-33821773D01*
X225273235Y-33845571D01*
X225264970Y-33868671D01*
X225254480Y-33890849D01*
X225241867Y-33911893D01*
X225227253Y-33931598D01*
X225210777Y-33949777D01*
X225192598Y-33966253D01*
X225172893Y-33980867D01*
X225151849Y-33993480D01*
X225129671Y-34003970D01*
X225106571Y-34012235D01*
X225082773Y-34018196D01*
X225058504Y-34021796D01*
X225034000Y-34023000D01*
X223784000Y-34023000D01*
X223759496Y-34021796D01*
X223735227Y-34018196D01*
X223711429Y-34012235D01*
X223688329Y-34003970D01*
X223666151Y-33993480D01*
X223645107Y-33980867D01*
X223625402Y-33966253D01*
X223607223Y-33949777D01*
X223590747Y-33931598D01*
X223576133Y-33911893D01*
X223563520Y-33890849D01*
X223553030Y-33868671D01*
X223544765Y-33845571D01*
X223538804Y-33821773D01*
X223535204Y-33797504D01*
X223534000Y-33773000D01*
X223534000Y-33023000D01*
X223535204Y-32998496D01*
X223538804Y-32974227D01*
X223544765Y-32950429D01*
X223553030Y-32927329D01*
X223563520Y-32905151D01*
X223576133Y-32884107D01*
X223590747Y-32864402D01*
X223607223Y-32846223D01*
X223625402Y-32829747D01*
X223645107Y-32815133D01*
X223666151Y-32802520D01*
X223688329Y-32792030D01*
X223711429Y-32783765D01*
X223735227Y-32777804D01*
X223759496Y-32774204D01*
X223784000Y-32773000D01*
X225034000Y-32773000D01*
X225058504Y-32774204D01*
X225058504Y-32774204D01*
G37*
D16*
G04 #@! TD*
G04 #@! TO.P,R2,1*
G04 #@! TO.N,GND*
X224409000Y-33398000D03*
D15*
G04 #@! TO.N,+12V*
G04 #@! TO.C,R13*
G36*
X241771704Y-39886204D02*
G01*
X241795973Y-39889804D01*
X241819771Y-39895765D01*
X241842871Y-39904030D01*
X241865049Y-39914520D01*
X241886093Y-39927133D01*
X241905798Y-39941747D01*
X241923977Y-39958223D01*
X241940453Y-39976402D01*
X241955067Y-39996107D01*
X241967680Y-40017151D01*
X241978170Y-40039329D01*
X241986435Y-40062429D01*
X241992396Y-40086227D01*
X241995996Y-40110496D01*
X241997200Y-40135000D01*
X241997200Y-40885000D01*
X241995996Y-40909504D01*
X241992396Y-40933773D01*
X241986435Y-40957571D01*
X241978170Y-40980671D01*
X241967680Y-41002849D01*
X241955067Y-41023893D01*
X241940453Y-41043598D01*
X241923977Y-41061777D01*
X241905798Y-41078253D01*
X241886093Y-41092867D01*
X241865049Y-41105480D01*
X241842871Y-41115970D01*
X241819771Y-41124235D01*
X241795973Y-41130196D01*
X241771704Y-41133796D01*
X241747200Y-41135000D01*
X240497200Y-41135000D01*
X240472696Y-41133796D01*
X240448427Y-41130196D01*
X240424629Y-41124235D01*
X240401529Y-41115970D01*
X240379351Y-41105480D01*
X240358307Y-41092867D01*
X240338602Y-41078253D01*
X240320423Y-41061777D01*
X240303947Y-41043598D01*
X240289333Y-41023893D01*
X240276720Y-41002849D01*
X240266230Y-40980671D01*
X240257965Y-40957571D01*
X240252004Y-40933773D01*
X240248404Y-40909504D01*
X240247200Y-40885000D01*
X240247200Y-40135000D01*
X240248404Y-40110496D01*
X240252004Y-40086227D01*
X240257965Y-40062429D01*
X240266230Y-40039329D01*
X240276720Y-40017151D01*
X240289333Y-39996107D01*
X240303947Y-39976402D01*
X240320423Y-39958223D01*
X240338602Y-39941747D01*
X240358307Y-39927133D01*
X240379351Y-39914520D01*
X240401529Y-39904030D01*
X240424629Y-39895765D01*
X240448427Y-39889804D01*
X240472696Y-39886204D01*
X240497200Y-39885000D01*
X241747200Y-39885000D01*
X241771704Y-39886204D01*
X241771704Y-39886204D01*
G37*
D16*
G04 #@! TD*
G04 #@! TO.P,R13,2*
G04 #@! TO.N,+12V*
X241122200Y-40510000D03*
D15*
G04 #@! TO.N,lamp4_ctrl*
G04 #@! TO.C,R13*
G36*
X241771704Y-42686204D02*
G01*
X241795973Y-42689804D01*
X241819771Y-42695765D01*
X241842871Y-42704030D01*
X241865049Y-42714520D01*
X241886093Y-42727133D01*
X241905798Y-42741747D01*
X241923977Y-42758223D01*
X241940453Y-42776402D01*
X241955067Y-42796107D01*
X241967680Y-42817151D01*
X241978170Y-42839329D01*
X241986435Y-42862429D01*
X241992396Y-42886227D01*
X241995996Y-42910496D01*
X241997200Y-42935000D01*
X241997200Y-43685000D01*
X241995996Y-43709504D01*
X241992396Y-43733773D01*
X241986435Y-43757571D01*
X241978170Y-43780671D01*
X241967680Y-43802849D01*
X241955067Y-43823893D01*
X241940453Y-43843598D01*
X241923977Y-43861777D01*
X241905798Y-43878253D01*
X241886093Y-43892867D01*
X241865049Y-43905480D01*
X241842871Y-43915970D01*
X241819771Y-43924235D01*
X241795973Y-43930196D01*
X241771704Y-43933796D01*
X241747200Y-43935000D01*
X240497200Y-43935000D01*
X240472696Y-43933796D01*
X240448427Y-43930196D01*
X240424629Y-43924235D01*
X240401529Y-43915970D01*
X240379351Y-43905480D01*
X240358307Y-43892867D01*
X240338602Y-43878253D01*
X240320423Y-43861777D01*
X240303947Y-43843598D01*
X240289333Y-43823893D01*
X240276720Y-43802849D01*
X240266230Y-43780671D01*
X240257965Y-43757571D01*
X240252004Y-43733773D01*
X240248404Y-43709504D01*
X240247200Y-43685000D01*
X240247200Y-42935000D01*
X240248404Y-42910496D01*
X240252004Y-42886227D01*
X240257965Y-42862429D01*
X240266230Y-42839329D01*
X240276720Y-42817151D01*
X240289333Y-42796107D01*
X240303947Y-42776402D01*
X240320423Y-42758223D01*
X240338602Y-42741747D01*
X240358307Y-42727133D01*
X240379351Y-42714520D01*
X240401529Y-42704030D01*
X240424629Y-42695765D01*
X240448427Y-42689804D01*
X240472696Y-42686204D01*
X240497200Y-42685000D01*
X241747200Y-42685000D01*
X241771704Y-42686204D01*
X241771704Y-42686204D01*
G37*
D16*
G04 #@! TD*
G04 #@! TO.P,R13,1*
G04 #@! TO.N,lamp4_ctrl*
X241122200Y-43310000D03*
D15*
G04 #@! TO.N,lamp3_ctrl*
G04 #@! TO.C,R12*
G36*
X241771704Y-33669204D02*
G01*
X241795973Y-33672804D01*
X241819771Y-33678765D01*
X241842871Y-33687030D01*
X241865049Y-33697520D01*
X241886093Y-33710133D01*
X241905798Y-33724747D01*
X241923977Y-33741223D01*
X241940453Y-33759402D01*
X241955067Y-33779107D01*
X241967680Y-33800151D01*
X241978170Y-33822329D01*
X241986435Y-33845429D01*
X241992396Y-33869227D01*
X241995996Y-33893496D01*
X241997200Y-33918000D01*
X241997200Y-34668000D01*
X241995996Y-34692504D01*
X241992396Y-34716773D01*
X241986435Y-34740571D01*
X241978170Y-34763671D01*
X241967680Y-34785849D01*
X241955067Y-34806893D01*
X241940453Y-34826598D01*
X241923977Y-34844777D01*
X241905798Y-34861253D01*
X241886093Y-34875867D01*
X241865049Y-34888480D01*
X241842871Y-34898970D01*
X241819771Y-34907235D01*
X241795973Y-34913196D01*
X241771704Y-34916796D01*
X241747200Y-34918000D01*
X240497200Y-34918000D01*
X240472696Y-34916796D01*
X240448427Y-34913196D01*
X240424629Y-34907235D01*
X240401529Y-34898970D01*
X240379351Y-34888480D01*
X240358307Y-34875867D01*
X240338602Y-34861253D01*
X240320423Y-34844777D01*
X240303947Y-34826598D01*
X240289333Y-34806893D01*
X240276720Y-34785849D01*
X240266230Y-34763671D01*
X240257965Y-34740571D01*
X240252004Y-34716773D01*
X240248404Y-34692504D01*
X240247200Y-34668000D01*
X240247200Y-33918000D01*
X240248404Y-33893496D01*
X240252004Y-33869227D01*
X240257965Y-33845429D01*
X240266230Y-33822329D01*
X240276720Y-33800151D01*
X240289333Y-33779107D01*
X240303947Y-33759402D01*
X240320423Y-33741223D01*
X240338602Y-33724747D01*
X240358307Y-33710133D01*
X240379351Y-33697520D01*
X240401529Y-33687030D01*
X240424629Y-33678765D01*
X240448427Y-33672804D01*
X240472696Y-33669204D01*
X240497200Y-33668000D01*
X241747200Y-33668000D01*
X241771704Y-33669204D01*
X241771704Y-33669204D01*
G37*
D16*
G04 #@! TD*
G04 #@! TO.P,R12,1*
G04 #@! TO.N,lamp3_ctrl*
X241122200Y-34293000D03*
D15*
G04 #@! TO.N,+12V*
G04 #@! TO.C,R12*
G36*
X241771704Y-30869204D02*
G01*
X241795973Y-30872804D01*
X241819771Y-30878765D01*
X241842871Y-30887030D01*
X241865049Y-30897520D01*
X241886093Y-30910133D01*
X241905798Y-30924747D01*
X241923977Y-30941223D01*
X241940453Y-30959402D01*
X241955067Y-30979107D01*
X241967680Y-31000151D01*
X241978170Y-31022329D01*
X241986435Y-31045429D01*
X241992396Y-31069227D01*
X241995996Y-31093496D01*
X241997200Y-31118000D01*
X241997200Y-31868000D01*
X241995996Y-31892504D01*
X241992396Y-31916773D01*
X241986435Y-31940571D01*
X241978170Y-31963671D01*
X241967680Y-31985849D01*
X241955067Y-32006893D01*
X241940453Y-32026598D01*
X241923977Y-32044777D01*
X241905798Y-32061253D01*
X241886093Y-32075867D01*
X241865049Y-32088480D01*
X241842871Y-32098970D01*
X241819771Y-32107235D01*
X241795973Y-32113196D01*
X241771704Y-32116796D01*
X241747200Y-32118000D01*
X240497200Y-32118000D01*
X240472696Y-32116796D01*
X240448427Y-32113196D01*
X240424629Y-32107235D01*
X240401529Y-32098970D01*
X240379351Y-32088480D01*
X240358307Y-32075867D01*
X240338602Y-32061253D01*
X240320423Y-32044777D01*
X240303947Y-32026598D01*
X240289333Y-32006893D01*
X240276720Y-31985849D01*
X240266230Y-31963671D01*
X240257965Y-31940571D01*
X240252004Y-31916773D01*
X240248404Y-31892504D01*
X240247200Y-31868000D01*
X240247200Y-31118000D01*
X240248404Y-31093496D01*
X240252004Y-31069227D01*
X240257965Y-31045429D01*
X240266230Y-31022329D01*
X240276720Y-31000151D01*
X240289333Y-30979107D01*
X240303947Y-30959402D01*
X240320423Y-30941223D01*
X240338602Y-30924747D01*
X240358307Y-30910133D01*
X240379351Y-30897520D01*
X240401529Y-30887030D01*
X240424629Y-30878765D01*
X240448427Y-30872804D01*
X240472696Y-30869204D01*
X240497200Y-30868000D01*
X241747200Y-30868000D01*
X241771704Y-30869204D01*
X241771704Y-30869204D01*
G37*
D16*
G04 #@! TD*
G04 #@! TO.P,R12,2*
G04 #@! TO.N,+12V*
X241122200Y-31493000D03*
D15*
G04 #@! TO.N,+12V*
G04 #@! TO.C,R11*
G36*
X241771704Y-22106204D02*
G01*
X241795973Y-22109804D01*
X241819771Y-22115765D01*
X241842871Y-22124030D01*
X241865049Y-22134520D01*
X241886093Y-22147133D01*
X241905798Y-22161747D01*
X241923977Y-22178223D01*
X241940453Y-22196402D01*
X241955067Y-22216107D01*
X241967680Y-22237151D01*
X241978170Y-22259329D01*
X241986435Y-22282429D01*
X241992396Y-22306227D01*
X241995996Y-22330496D01*
X241997200Y-22355000D01*
X241997200Y-23105000D01*
X241995996Y-23129504D01*
X241992396Y-23153773D01*
X241986435Y-23177571D01*
X241978170Y-23200671D01*
X241967680Y-23222849D01*
X241955067Y-23243893D01*
X241940453Y-23263598D01*
X241923977Y-23281777D01*
X241905798Y-23298253D01*
X241886093Y-23312867D01*
X241865049Y-23325480D01*
X241842871Y-23335970D01*
X241819771Y-23344235D01*
X241795973Y-23350196D01*
X241771704Y-23353796D01*
X241747200Y-23355000D01*
X240497200Y-23355000D01*
X240472696Y-23353796D01*
X240448427Y-23350196D01*
X240424629Y-23344235D01*
X240401529Y-23335970D01*
X240379351Y-23325480D01*
X240358307Y-23312867D01*
X240338602Y-23298253D01*
X240320423Y-23281777D01*
X240303947Y-23263598D01*
X240289333Y-23243893D01*
X240276720Y-23222849D01*
X240266230Y-23200671D01*
X240257965Y-23177571D01*
X240252004Y-23153773D01*
X240248404Y-23129504D01*
X240247200Y-23105000D01*
X240247200Y-22355000D01*
X240248404Y-22330496D01*
X240252004Y-22306227D01*
X240257965Y-22282429D01*
X240266230Y-22259329D01*
X240276720Y-22237151D01*
X240289333Y-22216107D01*
X240303947Y-22196402D01*
X240320423Y-22178223D01*
X240338602Y-22161747D01*
X240358307Y-22147133D01*
X240379351Y-22134520D01*
X240401529Y-22124030D01*
X240424629Y-22115765D01*
X240448427Y-22109804D01*
X240472696Y-22106204D01*
X240497200Y-22105000D01*
X241747200Y-22105000D01*
X241771704Y-22106204D01*
X241771704Y-22106204D01*
G37*
D16*
G04 #@! TD*
G04 #@! TO.P,R11,2*
G04 #@! TO.N,+12V*
X241122200Y-22730000D03*
D15*
G04 #@! TO.N,lamp2_ctrl*
G04 #@! TO.C,R11*
G36*
X241771704Y-24906204D02*
G01*
X241795973Y-24909804D01*
X241819771Y-24915765D01*
X241842871Y-24924030D01*
X241865049Y-24934520D01*
X241886093Y-24947133D01*
X241905798Y-24961747D01*
X241923977Y-24978223D01*
X241940453Y-24996402D01*
X241955067Y-25016107D01*
X241967680Y-25037151D01*
X241978170Y-25059329D01*
X241986435Y-25082429D01*
X241992396Y-25106227D01*
X241995996Y-25130496D01*
X241997200Y-25155000D01*
X241997200Y-25905000D01*
X241995996Y-25929504D01*
X241992396Y-25953773D01*
X241986435Y-25977571D01*
X241978170Y-26000671D01*
X241967680Y-26022849D01*
X241955067Y-26043893D01*
X241940453Y-26063598D01*
X241923977Y-26081777D01*
X241905798Y-26098253D01*
X241886093Y-26112867D01*
X241865049Y-26125480D01*
X241842871Y-26135970D01*
X241819771Y-26144235D01*
X241795973Y-26150196D01*
X241771704Y-26153796D01*
X241747200Y-26155000D01*
X240497200Y-26155000D01*
X240472696Y-26153796D01*
X240448427Y-26150196D01*
X240424629Y-26144235D01*
X240401529Y-26135970D01*
X240379351Y-26125480D01*
X240358307Y-26112867D01*
X240338602Y-26098253D01*
X240320423Y-26081777D01*
X240303947Y-26063598D01*
X240289333Y-26043893D01*
X240276720Y-26022849D01*
X240266230Y-26000671D01*
X240257965Y-25977571D01*
X240252004Y-25953773D01*
X240248404Y-25929504D01*
X240247200Y-25905000D01*
X240247200Y-25155000D01*
X240248404Y-25130496D01*
X240252004Y-25106227D01*
X240257965Y-25082429D01*
X240266230Y-25059329D01*
X240276720Y-25037151D01*
X240289333Y-25016107D01*
X240303947Y-24996402D01*
X240320423Y-24978223D01*
X240338602Y-24961747D01*
X240358307Y-24947133D01*
X240379351Y-24934520D01*
X240401529Y-24924030D01*
X240424629Y-24915765D01*
X240448427Y-24909804D01*
X240472696Y-24906204D01*
X240497200Y-24905000D01*
X241747200Y-24905000D01*
X241771704Y-24906204D01*
X241771704Y-24906204D01*
G37*
D16*
G04 #@! TD*
G04 #@! TO.P,R11,1*
G04 #@! TO.N,lamp2_ctrl*
X241122200Y-25530000D03*
D15*
G04 #@! TO.N,CNT1*
G04 #@! TO.C,R1*
G36*
X225058504Y-38489204D02*
G01*
X225082773Y-38492804D01*
X225106571Y-38498765D01*
X225129671Y-38507030D01*
X225151849Y-38517520D01*
X225172893Y-38530133D01*
X225192598Y-38544747D01*
X225210777Y-38561223D01*
X225227253Y-38579402D01*
X225241867Y-38599107D01*
X225254480Y-38620151D01*
X225264970Y-38642329D01*
X225273235Y-38665429D01*
X225279196Y-38689227D01*
X225282796Y-38713496D01*
X225284000Y-38738000D01*
X225284000Y-39488000D01*
X225282796Y-39512504D01*
X225279196Y-39536773D01*
X225273235Y-39560571D01*
X225264970Y-39583671D01*
X225254480Y-39605849D01*
X225241867Y-39626893D01*
X225227253Y-39646598D01*
X225210777Y-39664777D01*
X225192598Y-39681253D01*
X225172893Y-39695867D01*
X225151849Y-39708480D01*
X225129671Y-39718970D01*
X225106571Y-39727235D01*
X225082773Y-39733196D01*
X225058504Y-39736796D01*
X225034000Y-39738000D01*
X223784000Y-39738000D01*
X223759496Y-39736796D01*
X223735227Y-39733196D01*
X223711429Y-39727235D01*
X223688329Y-39718970D01*
X223666151Y-39708480D01*
X223645107Y-39695867D01*
X223625402Y-39681253D01*
X223607223Y-39664777D01*
X223590747Y-39646598D01*
X223576133Y-39626893D01*
X223563520Y-39605849D01*
X223553030Y-39583671D01*
X223544765Y-39560571D01*
X223538804Y-39536773D01*
X223535204Y-39512504D01*
X223534000Y-39488000D01*
X223534000Y-38738000D01*
X223535204Y-38713496D01*
X223538804Y-38689227D01*
X223544765Y-38665429D01*
X223553030Y-38642329D01*
X223563520Y-38620151D01*
X223576133Y-38599107D01*
X223590747Y-38579402D01*
X223607223Y-38561223D01*
X223625402Y-38544747D01*
X223645107Y-38530133D01*
X223666151Y-38517520D01*
X223688329Y-38507030D01*
X223711429Y-38498765D01*
X223735227Y-38492804D01*
X223759496Y-38489204D01*
X223784000Y-38488000D01*
X225034000Y-38488000D01*
X225058504Y-38489204D01*
X225058504Y-38489204D01*
G37*
D16*
G04 #@! TD*
G04 #@! TO.P,R1,1*
G04 #@! TO.N,CNT1*
X224409000Y-39113000D03*
D15*
G04 #@! TO.N,+3V3*
G04 #@! TO.C,R1*
G36*
X225058504Y-41289204D02*
G01*
X225082773Y-41292804D01*
X225106571Y-41298765D01*
X225129671Y-41307030D01*
X225151849Y-41317520D01*
X225172893Y-41330133D01*
X225192598Y-41344747D01*
X225210777Y-41361223D01*
X225227253Y-41379402D01*
X225241867Y-41399107D01*
X225254480Y-41420151D01*
X225264970Y-41442329D01*
X225273235Y-41465429D01*
X225279196Y-41489227D01*
X225282796Y-41513496D01*
X225284000Y-41538000D01*
X225284000Y-42288000D01*
X225282796Y-42312504D01*
X225279196Y-42336773D01*
X225273235Y-42360571D01*
X225264970Y-42383671D01*
X225254480Y-42405849D01*
X225241867Y-42426893D01*
X225227253Y-42446598D01*
X225210777Y-42464777D01*
X225192598Y-42481253D01*
X225172893Y-42495867D01*
X225151849Y-42508480D01*
X225129671Y-42518970D01*
X225106571Y-42527235D01*
X225082773Y-42533196D01*
X225058504Y-42536796D01*
X225034000Y-42538000D01*
X223784000Y-42538000D01*
X223759496Y-42536796D01*
X223735227Y-42533196D01*
X223711429Y-42527235D01*
X223688329Y-42518970D01*
X223666151Y-42508480D01*
X223645107Y-42495867D01*
X223625402Y-42481253D01*
X223607223Y-42464777D01*
X223590747Y-42446598D01*
X223576133Y-42426893D01*
X223563520Y-42405849D01*
X223553030Y-42383671D01*
X223544765Y-42360571D01*
X223538804Y-42336773D01*
X223535204Y-42312504D01*
X223534000Y-42288000D01*
X223534000Y-41538000D01*
X223535204Y-41513496D01*
X223538804Y-41489227D01*
X223544765Y-41465429D01*
X223553030Y-41442329D01*
X223563520Y-41420151D01*
X223576133Y-41399107D01*
X223590747Y-41379402D01*
X223607223Y-41361223D01*
X223625402Y-41344747D01*
X223645107Y-41330133D01*
X223666151Y-41317520D01*
X223688329Y-41307030D01*
X223711429Y-41298765D01*
X223735227Y-41292804D01*
X223759496Y-41289204D01*
X223784000Y-41288000D01*
X225034000Y-41288000D01*
X225058504Y-41289204D01*
X225058504Y-41289204D01*
G37*
D16*
G04 #@! TD*
G04 #@! TO.P,R1,2*
G04 #@! TO.N,+3V3*
X224409000Y-41913000D03*
D15*
G04 #@! TO.N,LEARN*
G04 #@! TO.C,R6*
G36*
X231408504Y-26040204D02*
G01*
X231432773Y-26043804D01*
X231456571Y-26049765D01*
X231479671Y-26058030D01*
X231501849Y-26068520D01*
X231522893Y-26081133D01*
X231542598Y-26095747D01*
X231560777Y-26112223D01*
X231577253Y-26130402D01*
X231591867Y-26150107D01*
X231604480Y-26171151D01*
X231614970Y-26193329D01*
X231623235Y-26216429D01*
X231629196Y-26240227D01*
X231632796Y-26264496D01*
X231634000Y-26289000D01*
X231634000Y-27039000D01*
X231632796Y-27063504D01*
X231629196Y-27087773D01*
X231623235Y-27111571D01*
X231614970Y-27134671D01*
X231604480Y-27156849D01*
X231591867Y-27177893D01*
X231577253Y-27197598D01*
X231560777Y-27215777D01*
X231542598Y-27232253D01*
X231522893Y-27246867D01*
X231501849Y-27259480D01*
X231479671Y-27269970D01*
X231456571Y-27278235D01*
X231432773Y-27284196D01*
X231408504Y-27287796D01*
X231384000Y-27289000D01*
X230134000Y-27289000D01*
X230109496Y-27287796D01*
X230085227Y-27284196D01*
X230061429Y-27278235D01*
X230038329Y-27269970D01*
X230016151Y-27259480D01*
X229995107Y-27246867D01*
X229975402Y-27232253D01*
X229957223Y-27215777D01*
X229940747Y-27197598D01*
X229926133Y-27177893D01*
X229913520Y-27156849D01*
X229903030Y-27134671D01*
X229894765Y-27111571D01*
X229888804Y-27087773D01*
X229885204Y-27063504D01*
X229884000Y-27039000D01*
X229884000Y-26289000D01*
X229885204Y-26264496D01*
X229888804Y-26240227D01*
X229894765Y-26216429D01*
X229903030Y-26193329D01*
X229913520Y-26171151D01*
X229926133Y-26150107D01*
X229940747Y-26130402D01*
X229957223Y-26112223D01*
X229975402Y-26095747D01*
X229995107Y-26081133D01*
X230016151Y-26068520D01*
X230038329Y-26058030D01*
X230061429Y-26049765D01*
X230085227Y-26043804D01*
X230109496Y-26040204D01*
X230134000Y-26039000D01*
X231384000Y-26039000D01*
X231408504Y-26040204D01*
X231408504Y-26040204D01*
G37*
D16*
G04 #@! TD*
G04 #@! TO.P,R6,2*
G04 #@! TO.N,LEARN*
X230759000Y-26664000D03*
D15*
G04 #@! TO.N,GND*
G04 #@! TO.C,R6*
G36*
X231408504Y-28840204D02*
G01*
X231432773Y-28843804D01*
X231456571Y-28849765D01*
X231479671Y-28858030D01*
X231501849Y-28868520D01*
X231522893Y-28881133D01*
X231542598Y-28895747D01*
X231560777Y-28912223D01*
X231577253Y-28930402D01*
X231591867Y-28950107D01*
X231604480Y-28971151D01*
X231614970Y-28993329D01*
X231623235Y-29016429D01*
X231629196Y-29040227D01*
X231632796Y-29064496D01*
X231634000Y-29089000D01*
X231634000Y-29839000D01*
X231632796Y-29863504D01*
X231629196Y-29887773D01*
X231623235Y-29911571D01*
X231614970Y-29934671D01*
X231604480Y-29956849D01*
X231591867Y-29977893D01*
X231577253Y-29997598D01*
X231560777Y-30015777D01*
X231542598Y-30032253D01*
X231522893Y-30046867D01*
X231501849Y-30059480D01*
X231479671Y-30069970D01*
X231456571Y-30078235D01*
X231432773Y-30084196D01*
X231408504Y-30087796D01*
X231384000Y-30089000D01*
X230134000Y-30089000D01*
X230109496Y-30087796D01*
X230085227Y-30084196D01*
X230061429Y-30078235D01*
X230038329Y-30069970D01*
X230016151Y-30059480D01*
X229995107Y-30046867D01*
X229975402Y-30032253D01*
X229957223Y-30015777D01*
X229940747Y-29997598D01*
X229926133Y-29977893D01*
X229913520Y-29956849D01*
X229903030Y-29934671D01*
X229894765Y-29911571D01*
X229888804Y-29887773D01*
X229885204Y-29863504D01*
X229884000Y-29839000D01*
X229884000Y-29089000D01*
X229885204Y-29064496D01*
X229888804Y-29040227D01*
X229894765Y-29016429D01*
X229903030Y-28993329D01*
X229913520Y-28971151D01*
X229926133Y-28950107D01*
X229940747Y-28930402D01*
X229957223Y-28912223D01*
X229975402Y-28895747D01*
X229995107Y-28881133D01*
X230016151Y-28868520D01*
X230038329Y-28858030D01*
X230061429Y-28849765D01*
X230085227Y-28843804D01*
X230109496Y-28840204D01*
X230134000Y-28839000D01*
X231384000Y-28839000D01*
X231408504Y-28840204D01*
X231408504Y-28840204D01*
G37*
D16*
G04 #@! TD*
G04 #@! TO.P,R6,1*
G04 #@! TO.N,GND*
X230759000Y-29464000D03*
D15*
G04 #@! TO.N,CNT2*
G04 #@! TO.C,R4*
G36*
X221756504Y-35574204D02*
G01*
X221780773Y-35577804D01*
X221804571Y-35583765D01*
X221827671Y-35592030D01*
X221849849Y-35602520D01*
X221870893Y-35615133D01*
X221890598Y-35629747D01*
X221908777Y-35646223D01*
X221925253Y-35664402D01*
X221939867Y-35684107D01*
X221952480Y-35705151D01*
X221962970Y-35727329D01*
X221971235Y-35750429D01*
X221977196Y-35774227D01*
X221980796Y-35798496D01*
X221982000Y-35823000D01*
X221982000Y-36573000D01*
X221980796Y-36597504D01*
X221977196Y-36621773D01*
X221971235Y-36645571D01*
X221962970Y-36668671D01*
X221952480Y-36690849D01*
X221939867Y-36711893D01*
X221925253Y-36731598D01*
X221908777Y-36749777D01*
X221890598Y-36766253D01*
X221870893Y-36780867D01*
X221849849Y-36793480D01*
X221827671Y-36803970D01*
X221804571Y-36812235D01*
X221780773Y-36818196D01*
X221756504Y-36821796D01*
X221732000Y-36823000D01*
X220482000Y-36823000D01*
X220457496Y-36821796D01*
X220433227Y-36818196D01*
X220409429Y-36812235D01*
X220386329Y-36803970D01*
X220364151Y-36793480D01*
X220343107Y-36780867D01*
X220323402Y-36766253D01*
X220305223Y-36749777D01*
X220288747Y-36731598D01*
X220274133Y-36711893D01*
X220261520Y-36690849D01*
X220251030Y-36668671D01*
X220242765Y-36645571D01*
X220236804Y-36621773D01*
X220233204Y-36597504D01*
X220232000Y-36573000D01*
X220232000Y-35823000D01*
X220233204Y-35798496D01*
X220236804Y-35774227D01*
X220242765Y-35750429D01*
X220251030Y-35727329D01*
X220261520Y-35705151D01*
X220274133Y-35684107D01*
X220288747Y-35664402D01*
X220305223Y-35646223D01*
X220323402Y-35629747D01*
X220343107Y-35615133D01*
X220364151Y-35602520D01*
X220386329Y-35592030D01*
X220409429Y-35583765D01*
X220433227Y-35577804D01*
X220457496Y-35574204D01*
X220482000Y-35573000D01*
X221732000Y-35573000D01*
X221756504Y-35574204D01*
X221756504Y-35574204D01*
G37*
D16*
G04 #@! TD*
G04 #@! TO.P,R4,2*
G04 #@! TO.N,CNT2*
X221107000Y-36198000D03*
D15*
G04 #@! TO.N,GND*
G04 #@! TO.C,R4*
G36*
X221756504Y-32774204D02*
G01*
X221780773Y-32777804D01*
X221804571Y-32783765D01*
X221827671Y-32792030D01*
X221849849Y-32802520D01*
X221870893Y-32815133D01*
X221890598Y-32829747D01*
X221908777Y-32846223D01*
X221925253Y-32864402D01*
X221939867Y-32884107D01*
X221952480Y-32905151D01*
X221962970Y-32927329D01*
X221971235Y-32950429D01*
X221977196Y-32974227D01*
X221980796Y-32998496D01*
X221982000Y-33023000D01*
X221982000Y-33773000D01*
X221980796Y-33797504D01*
X221977196Y-33821773D01*
X221971235Y-33845571D01*
X221962970Y-33868671D01*
X221952480Y-33890849D01*
X221939867Y-33911893D01*
X221925253Y-33931598D01*
X221908777Y-33949777D01*
X221890598Y-33966253D01*
X221870893Y-33980867D01*
X221849849Y-33993480D01*
X221827671Y-34003970D01*
X221804571Y-34012235D01*
X221780773Y-34018196D01*
X221756504Y-34021796D01*
X221732000Y-34023000D01*
X220482000Y-34023000D01*
X220457496Y-34021796D01*
X220433227Y-34018196D01*
X220409429Y-34012235D01*
X220386329Y-34003970D01*
X220364151Y-33993480D01*
X220343107Y-33980867D01*
X220323402Y-33966253D01*
X220305223Y-33949777D01*
X220288747Y-33931598D01*
X220274133Y-33911893D01*
X220261520Y-33890849D01*
X220251030Y-33868671D01*
X220242765Y-33845571D01*
X220236804Y-33821773D01*
X220233204Y-33797504D01*
X220232000Y-33773000D01*
X220232000Y-33023000D01*
X220233204Y-32998496D01*
X220236804Y-32974227D01*
X220242765Y-32950429D01*
X220251030Y-32927329D01*
X220261520Y-32905151D01*
X220274133Y-32884107D01*
X220288747Y-32864402D01*
X220305223Y-32846223D01*
X220323402Y-32829747D01*
X220343107Y-32815133D01*
X220364151Y-32802520D01*
X220386329Y-32792030D01*
X220409429Y-32783765D01*
X220433227Y-32777804D01*
X220457496Y-32774204D01*
X220482000Y-32773000D01*
X221732000Y-32773000D01*
X221756504Y-32774204D01*
X221756504Y-32774204D01*
G37*
D16*
G04 #@! TD*
G04 #@! TO.P,R4,1*
G04 #@! TO.N,GND*
X221107000Y-33398000D03*
D15*
G04 #@! TO.N,CNT2*
G04 #@! TO.C,R3*
G36*
X221756504Y-38489204D02*
G01*
X221780773Y-38492804D01*
X221804571Y-38498765D01*
X221827671Y-38507030D01*
X221849849Y-38517520D01*
X221870893Y-38530133D01*
X221890598Y-38544747D01*
X221908777Y-38561223D01*
X221925253Y-38579402D01*
X221939867Y-38599107D01*
X221952480Y-38620151D01*
X221962970Y-38642329D01*
X221971235Y-38665429D01*
X221977196Y-38689227D01*
X221980796Y-38713496D01*
X221982000Y-38738000D01*
X221982000Y-39488000D01*
X221980796Y-39512504D01*
X221977196Y-39536773D01*
X221971235Y-39560571D01*
X221962970Y-39583671D01*
X221952480Y-39605849D01*
X221939867Y-39626893D01*
X221925253Y-39646598D01*
X221908777Y-39664777D01*
X221890598Y-39681253D01*
X221870893Y-39695867D01*
X221849849Y-39708480D01*
X221827671Y-39718970D01*
X221804571Y-39727235D01*
X221780773Y-39733196D01*
X221756504Y-39736796D01*
X221732000Y-39738000D01*
X220482000Y-39738000D01*
X220457496Y-39736796D01*
X220433227Y-39733196D01*
X220409429Y-39727235D01*
X220386329Y-39718970D01*
X220364151Y-39708480D01*
X220343107Y-39695867D01*
X220323402Y-39681253D01*
X220305223Y-39664777D01*
X220288747Y-39646598D01*
X220274133Y-39626893D01*
X220261520Y-39605849D01*
X220251030Y-39583671D01*
X220242765Y-39560571D01*
X220236804Y-39536773D01*
X220233204Y-39512504D01*
X220232000Y-39488000D01*
X220232000Y-38738000D01*
X220233204Y-38713496D01*
X220236804Y-38689227D01*
X220242765Y-38665429D01*
X220251030Y-38642329D01*
X220261520Y-38620151D01*
X220274133Y-38599107D01*
X220288747Y-38579402D01*
X220305223Y-38561223D01*
X220323402Y-38544747D01*
X220343107Y-38530133D01*
X220364151Y-38517520D01*
X220386329Y-38507030D01*
X220409429Y-38498765D01*
X220433227Y-38492804D01*
X220457496Y-38489204D01*
X220482000Y-38488000D01*
X221732000Y-38488000D01*
X221756504Y-38489204D01*
X221756504Y-38489204D01*
G37*
D16*
G04 #@! TD*
G04 #@! TO.P,R3,1*
G04 #@! TO.N,CNT2*
X221107000Y-39113000D03*
D15*
G04 #@! TO.N,+3V3*
G04 #@! TO.C,R3*
G36*
X221756504Y-41289204D02*
G01*
X221780773Y-41292804D01*
X221804571Y-41298765D01*
X221827671Y-41307030D01*
X221849849Y-41317520D01*
X221870893Y-41330133D01*
X221890598Y-41344747D01*
X221908777Y-41361223D01*
X221925253Y-41379402D01*
X221939867Y-41399107D01*
X221952480Y-41420151D01*
X221962970Y-41442329D01*
X221971235Y-41465429D01*
X221977196Y-41489227D01*
X221980796Y-41513496D01*
X221982000Y-41538000D01*
X221982000Y-42288000D01*
X221980796Y-42312504D01*
X221977196Y-42336773D01*
X221971235Y-42360571D01*
X221962970Y-42383671D01*
X221952480Y-42405849D01*
X221939867Y-42426893D01*
X221925253Y-42446598D01*
X221908777Y-42464777D01*
X221890598Y-42481253D01*
X221870893Y-42495867D01*
X221849849Y-42508480D01*
X221827671Y-42518970D01*
X221804571Y-42527235D01*
X221780773Y-42533196D01*
X221756504Y-42536796D01*
X221732000Y-42538000D01*
X220482000Y-42538000D01*
X220457496Y-42536796D01*
X220433227Y-42533196D01*
X220409429Y-42527235D01*
X220386329Y-42518970D01*
X220364151Y-42508480D01*
X220343107Y-42495867D01*
X220323402Y-42481253D01*
X220305223Y-42464777D01*
X220288747Y-42446598D01*
X220274133Y-42426893D01*
X220261520Y-42405849D01*
X220251030Y-42383671D01*
X220242765Y-42360571D01*
X220236804Y-42336773D01*
X220233204Y-42312504D01*
X220232000Y-42288000D01*
X220232000Y-41538000D01*
X220233204Y-41513496D01*
X220236804Y-41489227D01*
X220242765Y-41465429D01*
X220251030Y-41442329D01*
X220261520Y-41420151D01*
X220274133Y-41399107D01*
X220288747Y-41379402D01*
X220305223Y-41361223D01*
X220323402Y-41344747D01*
X220343107Y-41330133D01*
X220364151Y-41317520D01*
X220386329Y-41307030D01*
X220409429Y-41298765D01*
X220433227Y-41292804D01*
X220457496Y-41289204D01*
X220482000Y-41288000D01*
X221732000Y-41288000D01*
X221756504Y-41289204D01*
X221756504Y-41289204D01*
G37*
D16*
G04 #@! TD*
G04 #@! TO.P,R3,2*
G04 #@! TO.N,+3V3*
X221107000Y-41913000D03*
D23*
G04 #@! TO.P,IN1,1*
G04 #@! TO.N,+BATT*
X185674000Y-32004000D03*
D24*
G04 #@! TO.P,IN1,2*
G04 #@! TO.N,GND*
X185674000Y-27004000D03*
G04 #@! TD*
D25*
G04 #@! TO.N,+12V*
X230759000Y-45847000D03*
X220980000Y-45720000D03*
X225933000Y-44069000D03*
X237998000Y-43561000D03*
X237947200Y-19685000D03*
X240144300Y-20955000D03*
X242341400Y-19685000D03*
X244538500Y-20955000D03*
X246735600Y-19685000D03*
X237744000Y-31115000D03*
X240233200Y-29921200D03*
X242620800Y-29921200D03*
X240385600Y-38862000D03*
X237998000Y-37592000D03*
X242773200Y-38862000D03*
X242290600Y-47802800D03*
X244487700Y-47802800D03*
X240093500Y-47802800D03*
X246684800Y-47802800D03*
X237896400Y-46482000D03*
X205867000Y-40132000D03*
X199698000Y-43561000D03*
X199698000Y-45339000D03*
X205740000Y-45466000D03*
X205740000Y-42799000D03*
X211201000Y-45593000D03*
X216154000Y-44069000D03*
X208661000Y-41402000D03*
X237744000Y-24892000D03*
G04 #@! TO.N,GND*
X206248000Y-49403000D03*
X197866000Y-49403000D03*
X215138000Y-49403000D03*
X223774000Y-49403000D03*
X232156000Y-49403000D03*
X241046000Y-49657000D03*
X249682000Y-49403000D03*
X258064000Y-49403000D03*
X273558000Y-40767000D03*
X273558000Y-23495000D03*
X273558000Y-32385000D03*
X185039000Y-14732000D03*
X202311000Y-14732000D03*
X193421000Y-14732000D03*
X210947000Y-14732000D03*
X228219000Y-14732000D03*
X219329000Y-14732000D03*
X236855000Y-14732000D03*
X254127000Y-14732000D03*
X245237000Y-14732000D03*
X188214000Y-21336000D03*
X205486000Y-21336000D03*
X196596000Y-21336000D03*
X195346000Y-41258000D03*
X197759000Y-41258000D03*
X199771000Y-38227000D03*
X201790000Y-38030000D03*
X229362000Y-40132000D03*
X210566000Y-34671000D03*
X184912000Y-49403000D03*
X189230000Y-49403000D03*
X226695000Y-29718000D03*
X221742000Y-27051000D03*
X257175000Y-28702000D03*
X257175000Y-31115000D03*
X257429000Y-37211000D03*
X257429000Y-40005000D03*
X251841000Y-20574000D03*
X258445000Y-21336000D03*
X264541000Y-46228000D03*
X176784000Y-23876000D03*
X176784000Y-32131000D03*
X176911000Y-40640000D03*
X194437000Y-30480000D03*
X194310000Y-35179000D03*
X230505000Y-32385000D03*
X234442000Y-25908000D03*
X234442000Y-20574000D03*
X223774000Y-20320000D03*
X208407000Y-24765000D03*
X208407000Y-27432000D03*
X213741000Y-27940000D03*
X206883000Y-31877000D03*
X219550000Y-33440000D03*
X233000000Y-42280000D03*
X226010000Y-37590000D03*
X222790000Y-40410000D03*
X216750000Y-33760000D03*
G04 #@! TO.N,CNT2*
X221107000Y-37592000D03*
G04 #@! TO.N,+3V3*
X216230000Y-41910000D03*
X217760000Y-41910000D03*
G04 #@! TO.N,lamp2_ctrl*
X243967000Y-25273004D03*
G04 #@! TO.N,lamp3_ctrl*
X243840000Y-34163000D03*
G04 #@! TO.N,lamp4_ctrl*
X243840000Y-43180000D03*
G04 #@! TO.N,CNT1*
X224409002Y-37592000D03*
G04 #@! TO.N,Net-(C1-Pad2)*
X216789000Y-35052000D03*
G04 #@! TO.N,Net-(D2-Pad1)*
X217369000Y-38839000D03*
G04 #@! TD*
D26*
G04 #@! TO.N,+12V*
X245422200Y-23060200D02*
X245431200Y-23069200D01*
X241122200Y-23060200D02*
X245422200Y-23060200D01*
X245422200Y-31823200D02*
X245431200Y-31832200D01*
X241122200Y-31823200D02*
X245422200Y-31823200D01*
X245422200Y-40840200D02*
X245431200Y-40849200D01*
X241122200Y-40840200D02*
X245422200Y-40840200D01*
D27*
G04 #@! TO.N,lamp2_out*
X251731200Y-25349200D02*
X258292600Y-25349200D01*
X262708400Y-29714200D02*
X265887200Y-29714200D01*
X258419600Y-25476200D02*
X258470400Y-25476200D01*
X258470400Y-25476200D02*
X262708400Y-29714200D01*
G04 #@! TO.N,lamp3_out*
X265793200Y-34620200D02*
X265887200Y-34714200D01*
X251361200Y-34642200D02*
X265804200Y-34642200D01*
G04 #@! TO.N,lamp4_out*
X251731200Y-43129200D02*
X258775200Y-43129200D01*
X262317200Y-39714200D02*
X265887200Y-39714200D01*
X258572000Y-43129200D02*
X258902200Y-43129200D01*
X258902200Y-43129200D02*
X262317200Y-39714200D01*
D28*
G04 #@! TO.N,GND*
X185674000Y-27004000D02*
X188584000Y-27004000D01*
X188584000Y-27004000D02*
X188558000Y-27030000D01*
X188558000Y-27030000D02*
X183120000Y-27030000D01*
X185674000Y-27004000D02*
X185674000Y-24964000D01*
X185674000Y-24964000D02*
X185670000Y-24968000D01*
X185674000Y-27004000D02*
X185674000Y-28906000D01*
X196402000Y-39751000D02*
X196402000Y-38018000D01*
X196402000Y-38018000D02*
X196360000Y-38060000D01*
X196360000Y-38060000D02*
X196360000Y-40980000D01*
X201803000Y-38043000D02*
X201790000Y-38030000D01*
X201803000Y-40141000D02*
X201803000Y-38043000D01*
D29*
X217770000Y-33760000D02*
X218110000Y-33420000D01*
X216750000Y-33760000D02*
X217770000Y-33760000D01*
D30*
G04 #@! TO.N,CNT2*
X221107000Y-36198000D02*
X221107001Y-36923001D01*
X221107001Y-36923001D02*
X221107001Y-37465001D01*
X221107000Y-37592000D02*
X221107000Y-37465000D01*
X221107000Y-37592000D02*
X221107000Y-39113000D01*
D31*
G04 #@! TO.N,+3V3*
X216233000Y-41913000D02*
X217097000Y-41913000D01*
X216230000Y-41910000D02*
X216233000Y-41913000D01*
X217097000Y-41913000D02*
X224409000Y-41913000D01*
D30*
G04 #@! TO.N,LEARN*
X230759000Y-23328000D02*
X230846000Y-23241000D01*
X230759000Y-26664000D02*
X230759000Y-23328000D01*
D26*
G04 #@! TO.N,lamp2_ctrl*
X245431200Y-26779200D02*
X245431200Y-27629200D01*
D32*
X245431200Y-26779200D02*
X245431200Y-26229200D01*
X244475004Y-25273004D02*
X243205000Y-25273004D01*
X245431200Y-26229200D02*
X244475004Y-25273004D01*
X241379196Y-25273004D02*
X241122200Y-25530000D01*
X243205000Y-25273004D02*
X241379196Y-25273004D01*
D26*
G04 #@! TO.N,lamp3_ctrl*
X245431200Y-35542200D02*
X245431200Y-36392200D01*
D32*
X244405685Y-34163000D02*
X243840000Y-34163000D01*
X241252200Y-34163000D02*
X241122200Y-34293000D01*
X243840000Y-34163000D02*
X241252200Y-34163000D01*
X245431200Y-35119200D02*
X244475000Y-34163000D01*
X245431200Y-35542200D02*
X245431200Y-35119200D01*
D26*
G04 #@! TO.N,lamp4_ctrl*
X245431200Y-44559200D02*
X245431200Y-45409200D01*
D32*
X245431200Y-44559200D02*
X245431200Y-44136200D01*
X245431200Y-44136200D02*
X244475000Y-43180000D01*
X244475000Y-43180000D02*
X243840000Y-43180000D01*
X241252200Y-43180000D02*
X241122200Y-43310000D01*
X243840000Y-43180000D02*
X241252200Y-43180000D01*
D30*
G04 #@! TO.N,CNT1*
X224409002Y-36706002D02*
X224409002Y-37026315D01*
X224409002Y-37026315D02*
X224409002Y-37592000D01*
X224028000Y-36325000D02*
X224409002Y-36706002D01*
X224409002Y-39112998D02*
X224409000Y-39113000D01*
X224409002Y-37592000D02*
X224409002Y-39112998D01*
G04 #@! TO.N,Net-(C1-Pad2)*
X216812000Y-35052000D02*
X217950000Y-36190000D01*
X216789000Y-35052000D02*
X216812000Y-35052000D01*
G04 #@! TO.N,Net-(D2-Pad1)*
X217369000Y-38839000D02*
X218515000Y-38839000D01*
D33*
G04 #@! TO.N,+BATT*
X185674000Y-40713000D02*
X187252000Y-42291000D01*
X185674000Y-32004000D02*
X185674000Y-40713000D01*
G04 #@! TD*
D34*
G04 #@! TO.N,GND*
G36*
X274880001Y-50217000D02*
G01*
X174700000Y-50217000D01*
X174700000Y-46476475D01*
X175927000Y-46476475D01*
X175927000Y-46995525D01*
X176028261Y-47504601D01*
X176226893Y-47984141D01*
X176515262Y-48415715D01*
X176882285Y-48782738D01*
X177313859Y-49071107D01*
X177793399Y-49269739D01*
X178302475Y-49371000D01*
X178821525Y-49371000D01*
X179330601Y-49269739D01*
X179810141Y-49071107D01*
X180241715Y-48782738D01*
X180608738Y-48415715D01*
X180897107Y-47984141D01*
X181095739Y-47504601D01*
X181197000Y-46995525D01*
X181197000Y-46476475D01*
X181095739Y-45967399D01*
X180897107Y-45487859D01*
X180608738Y-45056285D01*
X180241715Y-44689262D01*
X179810141Y-44400893D01*
X179330601Y-44202261D01*
X178821525Y-44101000D01*
X178302475Y-44101000D01*
X177793399Y-44202261D01*
X177313859Y-44400893D01*
X176882285Y-44689262D01*
X176515262Y-45056285D01*
X176226893Y-45487859D01*
X176028261Y-45967399D01*
X175927000Y-46476475D01*
X174700000Y-46476475D01*
X174700000Y-36891000D01*
X181913928Y-36891000D01*
X181913928Y-47691000D01*
X181926188Y-47815482D01*
X181962498Y-47935180D01*
X182021463Y-48045494D01*
X182100815Y-48142185D01*
X182197506Y-48221537D01*
X182307820Y-48280502D01*
X182427518Y-48316812D01*
X182552000Y-48329072D01*
X191952000Y-48329072D01*
X192076482Y-48316812D01*
X192196180Y-48280502D01*
X192306494Y-48221537D01*
X192403185Y-48142185D01*
X192482537Y-48045494D01*
X192541502Y-47935180D01*
X192577812Y-47815482D01*
X192590072Y-47691000D01*
X192590072Y-42291000D01*
X193167000Y-42291000D01*
X193167000Y-46863000D01*
X193179201Y-46986882D01*
X193215336Y-47106004D01*
X193274017Y-47215787D01*
X193352987Y-47312013D01*
X193449213Y-47390983D01*
X193558996Y-47449664D01*
X193678118Y-47485799D01*
X193802000Y-47498000D01*
X205595267Y-47498000D01*
X205631656Y-47566246D01*
X205710528Y-47662553D01*
X205806672Y-47741622D01*
X205916395Y-47800414D01*
X206035480Y-47836671D01*
X206159350Y-47849000D01*
X235194705Y-47878731D01*
X236456416Y-49140442D01*
X236548767Y-49216803D01*
X236658116Y-49276289D01*
X236776968Y-49313299D01*
X236900758Y-49326412D01*
X237024726Y-49315122D01*
X237144111Y-49279864D01*
X237151470Y-49276000D01*
X247523000Y-49276000D01*
X247646345Y-49263905D01*
X247765498Y-49227873D01*
X247875332Y-49169287D01*
X247971626Y-49090400D01*
X248050679Y-48994242D01*
X248109454Y-48884510D01*
X248145692Y-48765419D01*
X248158000Y-48641547D01*
X248159647Y-46730475D01*
X268383000Y-46730475D01*
X268383000Y-47249525D01*
X268484261Y-47758601D01*
X268682893Y-48238141D01*
X268971262Y-48669715D01*
X269338285Y-49036738D01*
X269769859Y-49325107D01*
X270249399Y-49523739D01*
X270758475Y-49625000D01*
X271277525Y-49625000D01*
X271786601Y-49523739D01*
X272266141Y-49325107D01*
X272697715Y-49036738D01*
X273064738Y-48669715D01*
X273353107Y-48238141D01*
X273551739Y-47758601D01*
X273653000Y-47249525D01*
X273653000Y-46730475D01*
X273551739Y-46221399D01*
X273353107Y-45741859D01*
X273064738Y-45310285D01*
X272697715Y-44943262D01*
X272266141Y-44654893D01*
X271786601Y-44456261D01*
X271277525Y-44355000D01*
X270758475Y-44355000D01*
X270249399Y-44456261D01*
X269769859Y-44654893D01*
X269338285Y-44943262D01*
X268971262Y-45310285D01*
X268682893Y-45741859D01*
X268484261Y-46221399D01*
X268383000Y-46730475D01*
X248159647Y-46730475D01*
X248159807Y-46545868D01*
X248176706Y-46559737D01*
X248287020Y-46618702D01*
X248406718Y-46655012D01*
X248531200Y-46667272D01*
X254931200Y-46667272D01*
X255055682Y-46655012D01*
X255175380Y-46618702D01*
X255285694Y-46559737D01*
X255382385Y-46480385D01*
X255461737Y-46383694D01*
X255520702Y-46273380D01*
X255557012Y-46153682D01*
X255569272Y-46029200D01*
X255569272Y-44764200D01*
X258821881Y-44764200D01*
X258902200Y-44772111D01*
X258982519Y-44764200D01*
X258982522Y-44764200D01*
X259222716Y-44740543D01*
X259530915Y-44647052D01*
X259814952Y-44495231D01*
X260063914Y-44290914D01*
X260115125Y-44228513D01*
X262994439Y-41349200D01*
X264851242Y-41349200D01*
X264970634Y-41428975D01*
X265322781Y-41574839D01*
X265696619Y-41649200D01*
X266077781Y-41649200D01*
X266451619Y-41574839D01*
X266803766Y-41428975D01*
X267120691Y-41217213D01*
X267390213Y-40947691D01*
X267601975Y-40630766D01*
X267747839Y-40278619D01*
X267822200Y-39904781D01*
X267822200Y-39523619D01*
X267747839Y-39149781D01*
X267601975Y-38797634D01*
X267390213Y-38480709D01*
X267120691Y-38211187D01*
X266803766Y-37999425D01*
X266451619Y-37853561D01*
X266077781Y-37779200D01*
X265696619Y-37779200D01*
X265322781Y-37853561D01*
X264970634Y-37999425D01*
X264851242Y-38079200D01*
X262397519Y-38079200D01*
X262317199Y-38071289D01*
X262236880Y-38079200D01*
X262236878Y-38079200D01*
X261996684Y-38102857D01*
X261688485Y-38196348D01*
X261404448Y-38348169D01*
X261155486Y-38552486D01*
X261104280Y-38614881D01*
X258224962Y-41494200D01*
X255569272Y-41494200D01*
X255569272Y-40229200D01*
X255557012Y-40104718D01*
X255520702Y-39985020D01*
X255461737Y-39874706D01*
X255382385Y-39778015D01*
X255285694Y-39698663D01*
X255175380Y-39639698D01*
X255055682Y-39603388D01*
X254931200Y-39591128D01*
X248531200Y-39591128D01*
X248406718Y-39603388D01*
X248287020Y-39639698D01*
X248176706Y-39698663D01*
X248165702Y-39707694D01*
X248167574Y-37535243D01*
X248176706Y-37542737D01*
X248287020Y-37601702D01*
X248406718Y-37638012D01*
X248531200Y-37650272D01*
X254931200Y-37650272D01*
X255055682Y-37638012D01*
X255175380Y-37601702D01*
X255285694Y-37542737D01*
X255382385Y-37463385D01*
X255461737Y-37366694D01*
X255520702Y-37256380D01*
X255557012Y-37136682D01*
X255569272Y-37012200D01*
X255569272Y-36277200D01*
X264743486Y-36277200D01*
X264970634Y-36428975D01*
X265322781Y-36574839D01*
X265696619Y-36649200D01*
X266077781Y-36649200D01*
X266451619Y-36574839D01*
X266803766Y-36428975D01*
X267120691Y-36217213D01*
X267390213Y-35947691D01*
X267601975Y-35630766D01*
X267747839Y-35278619D01*
X267822200Y-34904781D01*
X267822200Y-34523619D01*
X267747839Y-34149781D01*
X267601975Y-33797634D01*
X267390213Y-33480709D01*
X267120691Y-33211187D01*
X266803766Y-32999425D01*
X266451619Y-32853561D01*
X266077781Y-32779200D01*
X265696619Y-32779200D01*
X265322781Y-32853561D01*
X264970634Y-32999425D01*
X264958998Y-33007200D01*
X255569272Y-33007200D01*
X255569272Y-31212200D01*
X255557012Y-31087718D01*
X255520702Y-30968020D01*
X255461737Y-30857706D01*
X255382385Y-30761015D01*
X255285694Y-30681663D01*
X255175380Y-30622698D01*
X255055682Y-30586388D01*
X254931200Y-30574128D01*
X248531200Y-30574128D01*
X248406718Y-30586388D01*
X248287020Y-30622698D01*
X248176706Y-30681663D01*
X248173480Y-30684310D01*
X248175123Y-28778438D01*
X248176706Y-28779737D01*
X248287020Y-28838702D01*
X248406718Y-28875012D01*
X248531200Y-28887272D01*
X254931200Y-28887272D01*
X255055682Y-28875012D01*
X255175380Y-28838702D01*
X255285694Y-28779737D01*
X255382385Y-28700385D01*
X255461737Y-28603694D01*
X255520702Y-28493380D01*
X255557012Y-28373682D01*
X255569272Y-28249200D01*
X255569272Y-26984200D01*
X257666162Y-26984200D01*
X261495480Y-30813519D01*
X261546686Y-30875914D01*
X261795648Y-31080231D01*
X262079685Y-31232052D01*
X262387884Y-31325543D01*
X262628078Y-31349200D01*
X262628080Y-31349200D01*
X262708399Y-31357111D01*
X262788719Y-31349200D01*
X264851242Y-31349200D01*
X264970634Y-31428975D01*
X265322781Y-31574839D01*
X265696619Y-31649200D01*
X266077781Y-31649200D01*
X266451619Y-31574839D01*
X266803766Y-31428975D01*
X267120691Y-31217213D01*
X267390213Y-30947691D01*
X267601975Y-30630766D01*
X267747839Y-30278619D01*
X267822200Y-29904781D01*
X267822200Y-29523619D01*
X267747839Y-29149781D01*
X267601975Y-28797634D01*
X267390213Y-28480709D01*
X267120691Y-28211187D01*
X266803766Y-27999425D01*
X266451619Y-27853561D01*
X266077781Y-27779200D01*
X265696619Y-27779200D01*
X265322781Y-27853561D01*
X264970634Y-27999425D01*
X264851242Y-28079200D01*
X263385639Y-28079200D01*
X259683325Y-24376887D01*
X259632114Y-24314486D01*
X259383152Y-24110169D01*
X259317050Y-24074837D01*
X259205352Y-23983169D01*
X258921315Y-23831348D01*
X258613116Y-23737857D01*
X258372922Y-23714200D01*
X255569272Y-23714200D01*
X255569272Y-23414200D01*
X263949128Y-23414200D01*
X263949128Y-26014200D01*
X263961388Y-26138682D01*
X263997698Y-26258380D01*
X264056663Y-26368694D01*
X264136015Y-26465385D01*
X264232706Y-26544737D01*
X264343020Y-26603702D01*
X264462718Y-26640012D01*
X264587200Y-26652272D01*
X267187200Y-26652272D01*
X267311682Y-26640012D01*
X267431380Y-26603702D01*
X267541694Y-26544737D01*
X267638385Y-26465385D01*
X267717737Y-26368694D01*
X267776702Y-26258380D01*
X267813012Y-26138682D01*
X267825272Y-26014200D01*
X267825272Y-23414200D01*
X267813012Y-23289718D01*
X267776702Y-23170020D01*
X267717737Y-23059706D01*
X267638385Y-22963015D01*
X267541694Y-22883663D01*
X267431380Y-22824698D01*
X267311682Y-22788388D01*
X267187200Y-22776128D01*
X264587200Y-22776128D01*
X264462718Y-22788388D01*
X264343020Y-22824698D01*
X264232706Y-22883663D01*
X264136015Y-22963015D01*
X264056663Y-23059706D01*
X263997698Y-23170020D01*
X263961388Y-23289718D01*
X263949128Y-23414200D01*
X255569272Y-23414200D01*
X255569272Y-22449200D01*
X255557012Y-22324718D01*
X255520702Y-22205020D01*
X255461737Y-22094706D01*
X255382385Y-21998015D01*
X255285694Y-21918663D01*
X255175380Y-21859698D01*
X255055682Y-21823388D01*
X254931200Y-21811128D01*
X248531200Y-21811128D01*
X248406718Y-21823388D01*
X248287020Y-21859698D01*
X248181039Y-21916347D01*
X248183400Y-19177547D01*
X248171199Y-19053118D01*
X248135064Y-18933996D01*
X248076383Y-18824213D01*
X247997413Y-18727987D01*
X247901187Y-18649017D01*
X247791404Y-18590336D01*
X247672282Y-18554201D01*
X247548400Y-18542000D01*
X236880400Y-18542000D01*
X236755985Y-18554308D01*
X236636894Y-18590545D01*
X236527161Y-18649319D01*
X236431003Y-18728372D01*
X236352115Y-18824665D01*
X236293529Y-18934498D01*
X236257496Y-19053651D01*
X236245400Y-19177543D01*
X236265720Y-42926000D01*
X225649731Y-42926000D01*
X225661962Y-42915962D01*
X225772405Y-42781386D01*
X225854472Y-42627850D01*
X225905008Y-42461254D01*
X225922072Y-42288000D01*
X225922072Y-41538000D01*
X225905008Y-41364746D01*
X225854472Y-41198150D01*
X225772405Y-41044614D01*
X225661962Y-40910038D01*
X225527386Y-40799595D01*
X225373850Y-40717528D01*
X225207254Y-40666992D01*
X225034000Y-40649928D01*
X223784000Y-40649928D01*
X223610746Y-40666992D01*
X223444150Y-40717528D01*
X223290614Y-40799595D01*
X223171925Y-40897000D01*
X222344075Y-40897000D01*
X222225386Y-40799595D01*
X222071850Y-40717528D01*
X221905254Y-40666992D01*
X221732000Y-40649928D01*
X220482000Y-40649928D01*
X220308746Y-40666992D01*
X220142150Y-40717528D01*
X219988614Y-40799595D01*
X219869925Y-40897000D01*
X217972541Y-40897000D01*
X217861939Y-40875000D01*
X217658061Y-40875000D01*
X217547459Y-40897000D01*
X216442541Y-40897000D01*
X216331939Y-40875000D01*
X216128061Y-40875000D01*
X215928102Y-40914774D01*
X215739744Y-40992795D01*
X215570226Y-41106063D01*
X215426063Y-41250226D01*
X215312795Y-41419744D01*
X215234774Y-41608102D01*
X215195000Y-41808061D01*
X215195000Y-42011939D01*
X215234774Y-42211898D01*
X215312795Y-42400256D01*
X215426063Y-42569774D01*
X215570226Y-42713937D01*
X215739744Y-42827205D01*
X215928102Y-42905226D01*
X216032541Y-42926000D01*
X215020026Y-42926000D01*
X211808026Y-39714000D01*
X214451928Y-39714000D01*
X214464188Y-39838482D01*
X214500498Y-39958180D01*
X214559463Y-40068494D01*
X214638815Y-40165185D01*
X214735506Y-40244537D01*
X214845820Y-40303502D01*
X214965518Y-40339812D01*
X215090000Y-40352072D01*
X215429250Y-40349000D01*
X215588000Y-40190250D01*
X215588000Y-38966000D01*
X214613750Y-38966000D01*
X214455000Y-39124750D01*
X214451928Y-39714000D01*
X211808026Y-39714000D01*
X210761013Y-38666987D01*
X210668593Y-38590580D01*
X210559236Y-38531108D01*
X210440379Y-38494113D01*
X210316588Y-38481017D01*
X206815273Y-38455718D01*
X206775983Y-38382213D01*
X206697013Y-38285987D01*
X206600787Y-38207017D01*
X206491004Y-38148336D01*
X206371882Y-38112201D01*
X206248000Y-38100000D01*
X203581000Y-38100000D01*
X203457118Y-38112201D01*
X203337996Y-38148336D01*
X203228213Y-38207017D01*
X203135781Y-38282873D01*
X203077482Y-38265188D01*
X202953000Y-38252928D01*
X202088750Y-38256000D01*
X201930000Y-38414750D01*
X201930000Y-40014000D01*
X201950000Y-40014000D01*
X201950000Y-40268000D01*
X201930000Y-40268000D01*
X201930000Y-40288000D01*
X201676000Y-40288000D01*
X201676000Y-40268000D01*
X200176750Y-40268000D01*
X200018000Y-40426750D01*
X200014928Y-41391000D01*
X200027188Y-41515482D01*
X200063498Y-41635180D01*
X200074627Y-41656000D01*
X193802000Y-41656000D01*
X193678118Y-41668201D01*
X193558996Y-41704336D01*
X193449213Y-41763017D01*
X193352987Y-41841987D01*
X193274017Y-41938213D01*
X193215336Y-42047996D01*
X193179201Y-42167118D01*
X193167000Y-42291000D01*
X192590072Y-42291000D01*
X192590072Y-40301000D01*
X193463928Y-40301000D01*
X193476188Y-40425482D01*
X193512498Y-40545180D01*
X193571463Y-40655494D01*
X193650815Y-40752185D01*
X193747506Y-40831537D01*
X193857820Y-40890502D01*
X193977518Y-40926812D01*
X194102000Y-40939072D01*
X196116250Y-40936000D01*
X196275000Y-40777250D01*
X196275000Y-39878000D01*
X196529000Y-39878000D01*
X196529000Y-40777250D01*
X196687750Y-40936000D01*
X198702000Y-40939072D01*
X198826482Y-40926812D01*
X198946180Y-40890502D01*
X199056494Y-40831537D01*
X199153185Y-40752185D01*
X199232537Y-40655494D01*
X199291502Y-40545180D01*
X199327812Y-40425482D01*
X199340072Y-40301000D01*
X199337000Y-40036750D01*
X199178250Y-39878000D01*
X196529000Y-39878000D01*
X196275000Y-39878000D01*
X193625750Y-39878000D01*
X193467000Y-40036750D01*
X193463928Y-40301000D01*
X192590072Y-40301000D01*
X192590072Y-39201000D01*
X193463928Y-39201000D01*
X193467000Y-39465250D01*
X193625750Y-39624000D01*
X196275000Y-39624000D01*
X196275000Y-38724750D01*
X196529000Y-38724750D01*
X196529000Y-39624000D01*
X199178250Y-39624000D01*
X199337000Y-39465250D01*
X199340072Y-39201000D01*
X199327812Y-39076518D01*
X199291502Y-38956820D01*
X199256320Y-38891000D01*
X200014928Y-38891000D01*
X200018000Y-39855250D01*
X200176750Y-40014000D01*
X201676000Y-40014000D01*
X201676000Y-38414750D01*
X201517250Y-38256000D01*
X200653000Y-38252928D01*
X200528518Y-38265188D01*
X200408820Y-38301498D01*
X200298506Y-38360463D01*
X200201815Y-38439815D01*
X200122463Y-38536506D01*
X200063498Y-38646820D01*
X200027188Y-38766518D01*
X200014928Y-38891000D01*
X199256320Y-38891000D01*
X199232537Y-38846506D01*
X199153185Y-38749815D01*
X199056494Y-38670463D01*
X198946180Y-38611498D01*
X198826482Y-38575188D01*
X198702000Y-38562928D01*
X196687750Y-38566000D01*
X196529000Y-38724750D01*
X196275000Y-38724750D01*
X196116250Y-38566000D01*
X194102000Y-38562928D01*
X193977518Y-38575188D01*
X193857820Y-38611498D01*
X193747506Y-38670463D01*
X193650815Y-38749815D01*
X193571463Y-38846506D01*
X193512498Y-38956820D01*
X193476188Y-39076518D01*
X193463928Y-39201000D01*
X192590072Y-39201000D01*
X192590072Y-37964000D01*
X214451928Y-37964000D01*
X214455000Y-38553250D01*
X214613750Y-38712000D01*
X215588000Y-38712000D01*
X215588000Y-37487750D01*
X215429250Y-37329000D01*
X215090000Y-37325928D01*
X214965518Y-37338188D01*
X214845820Y-37374498D01*
X214735506Y-37433463D01*
X214638815Y-37512815D01*
X214559463Y-37609506D01*
X214500498Y-37719820D01*
X214464188Y-37839518D01*
X214451928Y-37964000D01*
X192590072Y-37964000D01*
X192590072Y-36891000D01*
X192577812Y-36766518D01*
X192541502Y-36646820D01*
X192482537Y-36536506D01*
X192403185Y-36439815D01*
X192306494Y-36360463D01*
X192196180Y-36301498D01*
X192076482Y-36265188D01*
X191952000Y-36252928D01*
X187325000Y-36252928D01*
X187325000Y-34950061D01*
X215754000Y-34950061D01*
X215754000Y-35153939D01*
X215793774Y-35353898D01*
X215871795Y-35542256D01*
X215985063Y-35711774D01*
X216129226Y-35855937D01*
X216298744Y-35969205D01*
X216487102Y-36047226D01*
X216596928Y-36069072D01*
X216596928Y-36595000D01*
X216613992Y-36768254D01*
X216664528Y-36934850D01*
X216746595Y-37088386D01*
X216857038Y-37222962D01*
X216991614Y-37333405D01*
X217145150Y-37415472D01*
X217311746Y-37466008D01*
X217485000Y-37483072D01*
X217637503Y-37483072D01*
X217512038Y-37586038D01*
X217401595Y-37720614D01*
X217357024Y-37804000D01*
X217267061Y-37804000D01*
X217067102Y-37843774D01*
X216970185Y-37883919D01*
X216965812Y-37839518D01*
X216929502Y-37719820D01*
X216870537Y-37609506D01*
X216791185Y-37512815D01*
X216694494Y-37433463D01*
X216584180Y-37374498D01*
X216464482Y-37338188D01*
X216340000Y-37325928D01*
X216000750Y-37329000D01*
X215842000Y-37487750D01*
X215842000Y-38712000D01*
X215862000Y-38712000D01*
X215862000Y-38966000D01*
X215842000Y-38966000D01*
X215842000Y-40190250D01*
X216000750Y-40349000D01*
X216340000Y-40352072D01*
X216464482Y-40339812D01*
X216584180Y-40303502D01*
X216694494Y-40244537D01*
X216791185Y-40165185D01*
X216870537Y-40068494D01*
X216929502Y-39958180D01*
X216965812Y-39838482D01*
X216970185Y-39794081D01*
X217067102Y-39834226D01*
X217267061Y-39874000D01*
X217357024Y-39874000D01*
X217401595Y-39957386D01*
X217512038Y-40091962D01*
X217646614Y-40202405D01*
X217800150Y-40284472D01*
X217966746Y-40335008D01*
X218140000Y-40352072D01*
X218890000Y-40352072D01*
X219063254Y-40335008D01*
X219229850Y-40284472D01*
X219383386Y-40202405D01*
X219517962Y-40091962D01*
X219628405Y-39957386D01*
X219679586Y-39861634D01*
X219743595Y-39981386D01*
X219854038Y-40115962D01*
X219988614Y-40226405D01*
X220142150Y-40308472D01*
X220308746Y-40359008D01*
X220482000Y-40376072D01*
X221732000Y-40376072D01*
X221905254Y-40359008D01*
X222071850Y-40308472D01*
X222225386Y-40226405D01*
X222359962Y-40115962D01*
X222470405Y-39981386D01*
X222552472Y-39827850D01*
X222603008Y-39661254D01*
X222620072Y-39488000D01*
X222620072Y-38738000D01*
X222603008Y-38564746D01*
X222552472Y-38398150D01*
X222470405Y-38244614D01*
X222359962Y-38110038D01*
X222225386Y-37999595D01*
X222088706Y-37926538D01*
X222102226Y-37893898D01*
X222142000Y-37693939D01*
X222142000Y-37490061D01*
X222117892Y-37368862D01*
X222225386Y-37311405D01*
X222359962Y-37200962D01*
X222470405Y-37066386D01*
X222552472Y-36912850D01*
X222603008Y-36746254D01*
X222620072Y-36573000D01*
X222620072Y-35823000D01*
X222895928Y-35823000D01*
X222895928Y-36573000D01*
X222912992Y-36746254D01*
X222963528Y-36912850D01*
X223045595Y-37066386D01*
X223156038Y-37200962D01*
X223290614Y-37311405D01*
X223398110Y-37368863D01*
X223374002Y-37490061D01*
X223374002Y-37693939D01*
X223413776Y-37893898D01*
X223427296Y-37926537D01*
X223290614Y-37999595D01*
X223156038Y-38110038D01*
X223045595Y-38244614D01*
X222963528Y-38398150D01*
X222912992Y-38564746D01*
X222895928Y-38738000D01*
X222895928Y-39488000D01*
X222912992Y-39661254D01*
X222963528Y-39827850D01*
X223045595Y-39981386D01*
X223156038Y-40115962D01*
X223290614Y-40226405D01*
X223444150Y-40308472D01*
X223610746Y-40359008D01*
X223784000Y-40376072D01*
X225034000Y-40376072D01*
X225207254Y-40359008D01*
X225373850Y-40308472D01*
X225527386Y-40226405D01*
X225661962Y-40115962D01*
X225772405Y-39981386D01*
X225854472Y-39827850D01*
X225905008Y-39661254D01*
X225922072Y-39488000D01*
X225922072Y-38738000D01*
X225905008Y-38564746D01*
X225854472Y-38398150D01*
X225772405Y-38244614D01*
X225661962Y-38110038D01*
X225527386Y-37999595D01*
X225390708Y-37926539D01*
X225404228Y-37893898D01*
X225444002Y-37693939D01*
X225444002Y-37490061D01*
X225419894Y-37368861D01*
X225527386Y-37311405D01*
X225661962Y-37200962D01*
X225772405Y-37066386D01*
X225854472Y-36912850D01*
X225905008Y-36746254D01*
X225922072Y-36573000D01*
X225922072Y-35823000D01*
X225905008Y-35649746D01*
X225854472Y-35483150D01*
X225772405Y-35329614D01*
X225661962Y-35195038D01*
X225527386Y-35084595D01*
X225373850Y-35002528D01*
X225207254Y-34951992D01*
X225034000Y-34934928D01*
X223784000Y-34934928D01*
X223610746Y-34951992D01*
X223444150Y-35002528D01*
X223290614Y-35084595D01*
X223156038Y-35195038D01*
X223045595Y-35329614D01*
X222963528Y-35483150D01*
X222912992Y-35649746D01*
X222895928Y-35823000D01*
X222620072Y-35823000D01*
X222603008Y-35649746D01*
X222552472Y-35483150D01*
X222470405Y-35329614D01*
X222359962Y-35195038D01*
X222225386Y-35084595D01*
X222071850Y-35002528D01*
X221905254Y-34951992D01*
X221732000Y-34934928D01*
X220482000Y-34934928D01*
X220308746Y-34951992D01*
X220142150Y-35002528D01*
X219988614Y-35084595D01*
X219854038Y-35195038D01*
X219743595Y-35329614D01*
X219661528Y-35483150D01*
X219610992Y-35649746D01*
X219607417Y-35686048D01*
X219606008Y-35671746D01*
X219555472Y-35505150D01*
X219473405Y-35351614D01*
X219362962Y-35217038D01*
X219228386Y-35106595D01*
X219074850Y-35024528D01*
X218908254Y-34973992D01*
X218735000Y-34956928D01*
X217884360Y-34956928D01*
X217810718Y-34883285D01*
X217784226Y-34750102D01*
X217755337Y-34680359D01*
X217824250Y-34680000D01*
X217983000Y-34521250D01*
X217983000Y-33547000D01*
X218237000Y-33547000D01*
X218237000Y-34521250D01*
X218395750Y-34680000D01*
X218985000Y-34683072D01*
X219109482Y-34670812D01*
X219229180Y-34634502D01*
X219339494Y-34575537D01*
X219436185Y-34496185D01*
X219515537Y-34399494D01*
X219574502Y-34289180D01*
X219610812Y-34169482D01*
X219611314Y-34164381D01*
X219642498Y-34267180D01*
X219701463Y-34377494D01*
X219780815Y-34474185D01*
X219877506Y-34553537D01*
X219987820Y-34612502D01*
X220107518Y-34648812D01*
X220232000Y-34661072D01*
X220821250Y-34658000D01*
X220980000Y-34499250D01*
X220980000Y-33525000D01*
X221234000Y-33525000D01*
X221234000Y-34499250D01*
X221392750Y-34658000D01*
X221982000Y-34661072D01*
X222106482Y-34648812D01*
X222226180Y-34612502D01*
X222336494Y-34553537D01*
X222433185Y-34474185D01*
X222512537Y-34377494D01*
X222571502Y-34267180D01*
X222607812Y-34147482D01*
X222620072Y-34023000D01*
X222895928Y-34023000D01*
X222908188Y-34147482D01*
X222944498Y-34267180D01*
X223003463Y-34377494D01*
X223082815Y-34474185D01*
X223179506Y-34553537D01*
X223289820Y-34612502D01*
X223409518Y-34648812D01*
X223534000Y-34661072D01*
X224123250Y-34658000D01*
X224282000Y-34499250D01*
X224282000Y-33525000D01*
X224536000Y-33525000D01*
X224536000Y-34499250D01*
X224694750Y-34658000D01*
X225284000Y-34661072D01*
X225408482Y-34648812D01*
X225528180Y-34612502D01*
X225638494Y-34553537D01*
X225735185Y-34474185D01*
X225814537Y-34377494D01*
X225873502Y-34267180D01*
X225909812Y-34147482D01*
X225922072Y-34023000D01*
X225919000Y-33683750D01*
X225760250Y-33525000D01*
X224536000Y-33525000D01*
X224282000Y-33525000D01*
X223057750Y-33525000D01*
X222899000Y-33683750D01*
X222895928Y-34023000D01*
X222620072Y-34023000D01*
X222617000Y-33683750D01*
X222458250Y-33525000D01*
X221234000Y-33525000D01*
X220980000Y-33525000D01*
X219755750Y-33525000D01*
X219597500Y-33683250D01*
X219461250Y-33547000D01*
X218237000Y-33547000D01*
X217983000Y-33547000D01*
X216758750Y-33547000D01*
X216600000Y-33705750D01*
X216597019Y-34034910D01*
X216487102Y-34056774D01*
X216298744Y-34134795D01*
X216129226Y-34248063D01*
X215985063Y-34392226D01*
X215871795Y-34561744D01*
X215793774Y-34750102D01*
X215754000Y-34950061D01*
X187325000Y-34950061D01*
X187325000Y-33632072D01*
X187654000Y-33632072D01*
X187778482Y-33619812D01*
X187898180Y-33583502D01*
X188008494Y-33524537D01*
X188105185Y-33445185D01*
X188184537Y-33348494D01*
X188243502Y-33238180D01*
X188279812Y-33118482D01*
X188292072Y-32994000D01*
X188292072Y-32795000D01*
X216596928Y-32795000D01*
X216600000Y-33134250D01*
X216758750Y-33293000D01*
X217983000Y-33293000D01*
X217983000Y-32318750D01*
X218237000Y-32318750D01*
X218237000Y-33293000D01*
X219461250Y-33293000D01*
X219619500Y-33134750D01*
X219755750Y-33271000D01*
X220980000Y-33271000D01*
X220980000Y-32296750D01*
X221234000Y-32296750D01*
X221234000Y-33271000D01*
X222458250Y-33271000D01*
X222617000Y-33112250D01*
X222620072Y-32773000D01*
X222895928Y-32773000D01*
X222899000Y-33112250D01*
X223057750Y-33271000D01*
X224282000Y-33271000D01*
X224282000Y-32296750D01*
X224536000Y-32296750D01*
X224536000Y-33271000D01*
X225760250Y-33271000D01*
X225919000Y-33112250D01*
X225922072Y-32773000D01*
X225909812Y-32648518D01*
X225873502Y-32528820D01*
X225814537Y-32418506D01*
X225735185Y-32321815D01*
X225638494Y-32242463D01*
X225528180Y-32183498D01*
X225408482Y-32147188D01*
X225284000Y-32134928D01*
X224694750Y-32138000D01*
X224536000Y-32296750D01*
X224282000Y-32296750D01*
X224123250Y-32138000D01*
X223534000Y-32134928D01*
X223409518Y-32147188D01*
X223289820Y-32183498D01*
X223179506Y-32242463D01*
X223082815Y-32321815D01*
X223003463Y-32418506D01*
X222944498Y-32528820D01*
X222908188Y-32648518D01*
X222895928Y-32773000D01*
X222620072Y-32773000D01*
X222607812Y-32648518D01*
X222571502Y-32528820D01*
X222512537Y-32418506D01*
X222433185Y-32321815D01*
X222336494Y-32242463D01*
X222226180Y-32183498D01*
X222106482Y-32147188D01*
X221982000Y-32134928D01*
X221392750Y-32138000D01*
X221234000Y-32296750D01*
X220980000Y-32296750D01*
X220821250Y-32138000D01*
X220232000Y-32134928D01*
X220107518Y-32147188D01*
X219987820Y-32183498D01*
X219877506Y-32242463D01*
X219780815Y-32321815D01*
X219701463Y-32418506D01*
X219642498Y-32528820D01*
X219606188Y-32648518D01*
X219605686Y-32653619D01*
X219574502Y-32550820D01*
X219515537Y-32440506D01*
X219436185Y-32343815D01*
X219339494Y-32264463D01*
X219229180Y-32205498D01*
X219109482Y-32169188D01*
X218985000Y-32156928D01*
X218395750Y-32160000D01*
X218237000Y-32318750D01*
X217983000Y-32318750D01*
X217824250Y-32160000D01*
X217235000Y-32156928D01*
X217110518Y-32169188D01*
X216990820Y-32205498D01*
X216880506Y-32264463D01*
X216783815Y-32343815D01*
X216704463Y-32440506D01*
X216645498Y-32550820D01*
X216609188Y-32670518D01*
X216596928Y-32795000D01*
X188292072Y-32795000D01*
X188292072Y-31014000D01*
X188279812Y-30889518D01*
X188243502Y-30769820D01*
X188184537Y-30659506D01*
X188105185Y-30562815D01*
X188008494Y-30483463D01*
X187898180Y-30424498D01*
X187778482Y-30388188D01*
X187654000Y-30375928D01*
X185987895Y-30375928D01*
X185674000Y-30345012D01*
X185360104Y-30375928D01*
X183694000Y-30375928D01*
X183569518Y-30388188D01*
X183449820Y-30424498D01*
X183339506Y-30483463D01*
X183242815Y-30562815D01*
X183163463Y-30659506D01*
X183104498Y-30769820D01*
X183068188Y-30889518D01*
X183055928Y-31014000D01*
X183055928Y-32994000D01*
X183068188Y-33118482D01*
X183104498Y-33238180D01*
X183163463Y-33348494D01*
X183242815Y-33445185D01*
X183339506Y-33524537D01*
X183449820Y-33583502D01*
X183569518Y-33619812D01*
X183694000Y-33632072D01*
X184023000Y-33632072D01*
X184023000Y-36252928D01*
X182552000Y-36252928D01*
X182427518Y-36265188D01*
X182307820Y-36301498D01*
X182197506Y-36360463D01*
X182100815Y-36439815D01*
X182021463Y-36536506D01*
X181962498Y-36646820D01*
X181926188Y-36766518D01*
X181913928Y-36891000D01*
X174700000Y-36891000D01*
X174700000Y-30089000D01*
X229245928Y-30089000D01*
X229258188Y-30213482D01*
X229294498Y-30333180D01*
X229353463Y-30443494D01*
X229432815Y-30540185D01*
X229529506Y-30619537D01*
X229639820Y-30678502D01*
X229759518Y-30714812D01*
X229884000Y-30727072D01*
X230473250Y-30724000D01*
X230632000Y-30565250D01*
X230632000Y-29591000D01*
X230886000Y-29591000D01*
X230886000Y-30565250D01*
X231044750Y-30724000D01*
X231634000Y-30727072D01*
X231758482Y-30714812D01*
X231878180Y-30678502D01*
X231988494Y-30619537D01*
X232085185Y-30540185D01*
X232164537Y-30443494D01*
X232223502Y-30333180D01*
X232259812Y-30213482D01*
X232272072Y-30089000D01*
X232269000Y-29749750D01*
X232110250Y-29591000D01*
X230886000Y-29591000D01*
X230632000Y-29591000D01*
X229407750Y-29591000D01*
X229249000Y-29749750D01*
X229245928Y-30089000D01*
X174700000Y-30089000D01*
X174700000Y-28839000D01*
X229245928Y-28839000D01*
X229249000Y-29178250D01*
X229407750Y-29337000D01*
X230632000Y-29337000D01*
X230632000Y-28362750D01*
X230886000Y-28362750D01*
X230886000Y-29337000D01*
X232110250Y-29337000D01*
X232269000Y-29178250D01*
X232272072Y-28839000D01*
X232259812Y-28714518D01*
X232223502Y-28594820D01*
X232164537Y-28484506D01*
X232085185Y-28387815D01*
X231988494Y-28308463D01*
X231878180Y-28249498D01*
X231758482Y-28213188D01*
X231634000Y-28200928D01*
X231044750Y-28204000D01*
X230886000Y-28362750D01*
X230632000Y-28362750D01*
X230473250Y-28204000D01*
X229884000Y-28200928D01*
X229759518Y-28213188D01*
X229639820Y-28249498D01*
X229529506Y-28308463D01*
X229432815Y-28387815D01*
X229353463Y-28484506D01*
X229294498Y-28594820D01*
X229258188Y-28714518D01*
X229245928Y-28839000D01*
X174700000Y-28839000D01*
X174700000Y-27382865D01*
X183103782Y-27382865D01*
X183134095Y-27508528D01*
X183262304Y-27801205D01*
X183445148Y-28063246D01*
X183675601Y-28284581D01*
X183944806Y-28456704D01*
X184242418Y-28573000D01*
X184557000Y-28629000D01*
X185547000Y-28629000D01*
X185547000Y-27131000D01*
X185801000Y-27131000D01*
X185801000Y-28629000D01*
X186791000Y-28629000D01*
X187105582Y-28573000D01*
X187403194Y-28456704D01*
X187672399Y-28284581D01*
X187902852Y-28063246D01*
X188085696Y-27801205D01*
X188213905Y-27508528D01*
X188244218Y-27382865D01*
X188124740Y-27131000D01*
X185801000Y-27131000D01*
X185547000Y-27131000D01*
X183223260Y-27131000D01*
X183103782Y-27382865D01*
X174700000Y-27382865D01*
X174700000Y-26625135D01*
X183103782Y-26625135D01*
X183223260Y-26877000D01*
X185547000Y-26877000D01*
X185547000Y-25379000D01*
X185801000Y-25379000D01*
X185801000Y-26877000D01*
X188124740Y-26877000D01*
X188244218Y-26625135D01*
X188213905Y-26499472D01*
X188085696Y-26206795D01*
X187902852Y-25944754D01*
X187672399Y-25723419D01*
X187403194Y-25551296D01*
X187105582Y-25435000D01*
X186791000Y-25379000D01*
X185801000Y-25379000D01*
X185547000Y-25379000D01*
X184557000Y-25379000D01*
X184242418Y-25435000D01*
X183944806Y-25551296D01*
X183675601Y-25723419D01*
X183445148Y-25944754D01*
X183262304Y-26206795D01*
X183134095Y-26499472D01*
X183103782Y-26625135D01*
X174700000Y-26625135D01*
X174700000Y-22516000D01*
X210220928Y-22516000D01*
X210220928Y-23966000D01*
X210237992Y-24139254D01*
X210288528Y-24305850D01*
X210370595Y-24459386D01*
X210481038Y-24593962D01*
X210615614Y-24704405D01*
X210769150Y-24786472D01*
X210935746Y-24837008D01*
X211109000Y-24854072D01*
X212309000Y-24854072D01*
X212482254Y-24837008D01*
X212648850Y-24786472D01*
X212802386Y-24704405D01*
X212936962Y-24593962D01*
X213047405Y-24459386D01*
X213101777Y-24357663D01*
X213153866Y-24421134D01*
X213379987Y-24606706D01*
X213637967Y-24744599D01*
X213917890Y-24829513D01*
X214209000Y-24858185D01*
X214500111Y-24829513D01*
X214780034Y-24744599D01*
X215038014Y-24606706D01*
X215264134Y-24421134D01*
X215449706Y-24195014D01*
X215463462Y-24169278D01*
X215619951Y-24375429D01*
X215837807Y-24568496D01*
X216089142Y-24715352D01*
X216352110Y-24807476D01*
X216582000Y-24686155D01*
X216582000Y-23368000D01*
X216562000Y-23368000D01*
X216562000Y-23114000D01*
X216582000Y-23114000D01*
X216582000Y-21795845D01*
X216836000Y-21795845D01*
X216836000Y-23114000D01*
X216856000Y-23114000D01*
X216856000Y-23368000D01*
X216836000Y-23368000D01*
X216836000Y-24686155D01*
X217065890Y-24807476D01*
X217328858Y-24715352D01*
X217580193Y-24568496D01*
X217798049Y-24375429D01*
X217954538Y-24169278D01*
X217968294Y-24195014D01*
X218153866Y-24421134D01*
X218379987Y-24606706D01*
X218637967Y-24744599D01*
X218917890Y-24829513D01*
X219209000Y-24858185D01*
X219500111Y-24829513D01*
X219780034Y-24744599D01*
X220038014Y-24606706D01*
X220264134Y-24421134D01*
X220449706Y-24195014D01*
X220587599Y-23937033D01*
X220672513Y-23657110D01*
X220694000Y-23438949D01*
X220694000Y-23043050D01*
X220672513Y-22824889D01*
X220587599Y-22544966D01*
X220558754Y-22491000D01*
X226857928Y-22491000D01*
X226857928Y-23991000D01*
X226874992Y-24164254D01*
X226925528Y-24330850D01*
X227007595Y-24484386D01*
X227118038Y-24618962D01*
X227252614Y-24729405D01*
X227406150Y-24811472D01*
X227572746Y-24862008D01*
X227746000Y-24879072D01*
X228946000Y-24879072D01*
X229119254Y-24862008D01*
X229285850Y-24811472D01*
X229439386Y-24729405D01*
X229573962Y-24618962D01*
X229684405Y-24484386D01*
X229738777Y-24382663D01*
X229790866Y-24446134D01*
X229933501Y-24563191D01*
X229933500Y-25426257D01*
X229794150Y-25468528D01*
X229640614Y-25550595D01*
X229506038Y-25661038D01*
X229395595Y-25795614D01*
X229313528Y-25949150D01*
X229262992Y-26115746D01*
X229245928Y-26289000D01*
X229245928Y-27039000D01*
X229262992Y-27212254D01*
X229313528Y-27378850D01*
X229395595Y-27532386D01*
X229506038Y-27666962D01*
X229640614Y-27777405D01*
X229794150Y-27859472D01*
X229960746Y-27910008D01*
X230134000Y-27927072D01*
X231384000Y-27927072D01*
X231557254Y-27910008D01*
X231723850Y-27859472D01*
X231877386Y-27777405D01*
X232011962Y-27666962D01*
X232122405Y-27532386D01*
X232204472Y-27378850D01*
X232255008Y-27212254D01*
X232272072Y-27039000D01*
X232272072Y-26289000D01*
X232255008Y-26115746D01*
X232204472Y-25949150D01*
X232122405Y-25795614D01*
X232011962Y-25661038D01*
X231877386Y-25550595D01*
X231723850Y-25468528D01*
X231584500Y-25426257D01*
X231584500Y-24680087D01*
X231675014Y-24631706D01*
X231901134Y-24446134D01*
X232086706Y-24220014D01*
X232224599Y-23962033D01*
X232309513Y-23682110D01*
X232331000Y-23463949D01*
X232331000Y-23018050D01*
X232309513Y-22799889D01*
X232224599Y-22519966D01*
X232086706Y-22261986D01*
X231901134Y-22035866D01*
X231675013Y-21850294D01*
X231417033Y-21712401D01*
X231137110Y-21627487D01*
X230846000Y-21598815D01*
X230554889Y-21627487D01*
X230274966Y-21712401D01*
X230016986Y-21850294D01*
X229790866Y-22035866D01*
X229738777Y-22099337D01*
X229684405Y-21997614D01*
X229573962Y-21863038D01*
X229439386Y-21752595D01*
X229285850Y-21670528D01*
X229119254Y-21619992D01*
X228946000Y-21602928D01*
X227746000Y-21602928D01*
X227572746Y-21619992D01*
X227406150Y-21670528D01*
X227252614Y-21752595D01*
X227118038Y-21863038D01*
X227007595Y-21997614D01*
X226925528Y-22151150D01*
X226874992Y-22317746D01*
X226857928Y-22491000D01*
X220558754Y-22491000D01*
X220449706Y-22286986D01*
X220264134Y-22060866D01*
X220038013Y-21875294D01*
X219780033Y-21737401D01*
X219500110Y-21652487D01*
X219209000Y-21623815D01*
X218917889Y-21652487D01*
X218637966Y-21737401D01*
X218379986Y-21875294D01*
X218153866Y-22060866D01*
X217968294Y-22286987D01*
X217954538Y-22312722D01*
X217798049Y-22106571D01*
X217580193Y-21913504D01*
X217328858Y-21766648D01*
X217065890Y-21674524D01*
X216836000Y-21795845D01*
X216582000Y-21795845D01*
X216352110Y-21674524D01*
X216089142Y-21766648D01*
X215837807Y-21913504D01*
X215619951Y-22106571D01*
X215463462Y-22312722D01*
X215449706Y-22286986D01*
X215264134Y-22060866D01*
X215038013Y-21875294D01*
X214780033Y-21737401D01*
X214500110Y-21652487D01*
X214209000Y-21623815D01*
X213917889Y-21652487D01*
X213637966Y-21737401D01*
X213379986Y-21875294D01*
X213153866Y-22060866D01*
X213101777Y-22124337D01*
X213047405Y-22022614D01*
X212936962Y-21888038D01*
X212802386Y-21777595D01*
X212648850Y-21695528D01*
X212482254Y-21644992D01*
X212309000Y-21627928D01*
X211109000Y-21627928D01*
X210935746Y-21644992D01*
X210769150Y-21695528D01*
X210615614Y-21777595D01*
X210481038Y-21888038D01*
X210370595Y-22022614D01*
X210288528Y-22176150D01*
X210237992Y-22342746D01*
X210220928Y-22516000D01*
X174700000Y-22516000D01*
X174700000Y-17520475D01*
X176054000Y-17520475D01*
X176054000Y-18039525D01*
X176155261Y-18548601D01*
X176353893Y-19028141D01*
X176642262Y-19459715D01*
X177009285Y-19826738D01*
X177440859Y-20115107D01*
X177920399Y-20313739D01*
X178429475Y-20415000D01*
X178948525Y-20415000D01*
X179457601Y-20313739D01*
X179937141Y-20115107D01*
X180368715Y-19826738D01*
X180735738Y-19459715D01*
X181024107Y-19028141D01*
X181222739Y-18548601D01*
X181324000Y-18039525D01*
X181324000Y-17520475D01*
X181248215Y-17139475D01*
X268510000Y-17139475D01*
X268510000Y-17658525D01*
X268611261Y-18167601D01*
X268809893Y-18647141D01*
X269098262Y-19078715D01*
X269465285Y-19445738D01*
X269896859Y-19734107D01*
X270376399Y-19932739D01*
X270885475Y-20034000D01*
X271404525Y-20034000D01*
X271913601Y-19932739D01*
X272393141Y-19734107D01*
X272824715Y-19445738D01*
X273191738Y-19078715D01*
X273480107Y-18647141D01*
X273678739Y-18167601D01*
X273780000Y-17658525D01*
X273780000Y-17139475D01*
X273678739Y-16630399D01*
X273480107Y-16150859D01*
X273191738Y-15719285D01*
X272824715Y-15352262D01*
X272393141Y-15063893D01*
X271913601Y-14865261D01*
X271404525Y-14764000D01*
X270885475Y-14764000D01*
X270376399Y-14865261D01*
X269896859Y-15063893D01*
X269465285Y-15352262D01*
X269098262Y-15719285D01*
X268809893Y-16150859D01*
X268611261Y-16630399D01*
X268510000Y-17139475D01*
X181248215Y-17139475D01*
X181222739Y-17011399D01*
X181024107Y-16531859D01*
X180735738Y-16100285D01*
X180368715Y-15733262D01*
X179937141Y-15444893D01*
X179457601Y-15246261D01*
X178948525Y-15145000D01*
X178429475Y-15145000D01*
X177920399Y-15246261D01*
X177440859Y-15444893D01*
X177009285Y-15733262D01*
X176642262Y-16100285D01*
X176353893Y-16531859D01*
X176155261Y-17011399D01*
X176054000Y-17520475D01*
X174700000Y-17520475D01*
X174700000Y-14299000D01*
X274880000Y-14299000D01*
X274880001Y-50217000D01*
X274880001Y-50217000D01*
G37*
X274880001Y-50217000D02*
X174700000Y-50217000D01*
X174700000Y-46476475D01*
X175927000Y-46476475D01*
X175927000Y-46995525D01*
X176028261Y-47504601D01*
X176226893Y-47984141D01*
X176515262Y-48415715D01*
X176882285Y-48782738D01*
X177313859Y-49071107D01*
X177793399Y-49269739D01*
X178302475Y-49371000D01*
X178821525Y-49371000D01*
X179330601Y-49269739D01*
X179810141Y-49071107D01*
X180241715Y-48782738D01*
X180608738Y-48415715D01*
X180897107Y-47984141D01*
X181095739Y-47504601D01*
X181197000Y-46995525D01*
X181197000Y-46476475D01*
X181095739Y-45967399D01*
X180897107Y-45487859D01*
X180608738Y-45056285D01*
X180241715Y-44689262D01*
X179810141Y-44400893D01*
X179330601Y-44202261D01*
X178821525Y-44101000D01*
X178302475Y-44101000D01*
X177793399Y-44202261D01*
X177313859Y-44400893D01*
X176882285Y-44689262D01*
X176515262Y-45056285D01*
X176226893Y-45487859D01*
X176028261Y-45967399D01*
X175927000Y-46476475D01*
X174700000Y-46476475D01*
X174700000Y-36891000D01*
X181913928Y-36891000D01*
X181913928Y-47691000D01*
X181926188Y-47815482D01*
X181962498Y-47935180D01*
X182021463Y-48045494D01*
X182100815Y-48142185D01*
X182197506Y-48221537D01*
X182307820Y-48280502D01*
X182427518Y-48316812D01*
X182552000Y-48329072D01*
X191952000Y-48329072D01*
X192076482Y-48316812D01*
X192196180Y-48280502D01*
X192306494Y-48221537D01*
X192403185Y-48142185D01*
X192482537Y-48045494D01*
X192541502Y-47935180D01*
X192577812Y-47815482D01*
X192590072Y-47691000D01*
X192590072Y-42291000D01*
X193167000Y-42291000D01*
X193167000Y-46863000D01*
X193179201Y-46986882D01*
X193215336Y-47106004D01*
X193274017Y-47215787D01*
X193352987Y-47312013D01*
X193449213Y-47390983D01*
X193558996Y-47449664D01*
X193678118Y-47485799D01*
X193802000Y-47498000D01*
X205595267Y-47498000D01*
X205631656Y-47566246D01*
X205710528Y-47662553D01*
X205806672Y-47741622D01*
X205916395Y-47800414D01*
X206035480Y-47836671D01*
X206159350Y-47849000D01*
X235194705Y-47878731D01*
X236456416Y-49140442D01*
X236548767Y-49216803D01*
X236658116Y-49276289D01*
X236776968Y-49313299D01*
X236900758Y-49326412D01*
X237024726Y-49315122D01*
X237144111Y-49279864D01*
X237151470Y-49276000D01*
X247523000Y-49276000D01*
X247646345Y-49263905D01*
X247765498Y-49227873D01*
X247875332Y-49169287D01*
X247971626Y-49090400D01*
X248050679Y-48994242D01*
X248109454Y-48884510D01*
X248145692Y-48765419D01*
X248158000Y-48641547D01*
X248159647Y-46730475D01*
X268383000Y-46730475D01*
X268383000Y-47249525D01*
X268484261Y-47758601D01*
X268682893Y-48238141D01*
X268971262Y-48669715D01*
X269338285Y-49036738D01*
X269769859Y-49325107D01*
X270249399Y-49523739D01*
X270758475Y-49625000D01*
X271277525Y-49625000D01*
X271786601Y-49523739D01*
X272266141Y-49325107D01*
X272697715Y-49036738D01*
X273064738Y-48669715D01*
X273353107Y-48238141D01*
X273551739Y-47758601D01*
X273653000Y-47249525D01*
X273653000Y-46730475D01*
X273551739Y-46221399D01*
X273353107Y-45741859D01*
X273064738Y-45310285D01*
X272697715Y-44943262D01*
X272266141Y-44654893D01*
X271786601Y-44456261D01*
X271277525Y-44355000D01*
X270758475Y-44355000D01*
X270249399Y-44456261D01*
X269769859Y-44654893D01*
X269338285Y-44943262D01*
X268971262Y-45310285D01*
X268682893Y-45741859D01*
X268484261Y-46221399D01*
X268383000Y-46730475D01*
X248159647Y-46730475D01*
X248159807Y-46545868D01*
X248176706Y-46559737D01*
X248287020Y-46618702D01*
X248406718Y-46655012D01*
X248531200Y-46667272D01*
X254931200Y-46667272D01*
X255055682Y-46655012D01*
X255175380Y-46618702D01*
X255285694Y-46559737D01*
X255382385Y-46480385D01*
X255461737Y-46383694D01*
X255520702Y-46273380D01*
X255557012Y-46153682D01*
X255569272Y-46029200D01*
X255569272Y-44764200D01*
X258821881Y-44764200D01*
X258902200Y-44772111D01*
X258982519Y-44764200D01*
X258982522Y-44764200D01*
X259222716Y-44740543D01*
X259530915Y-44647052D01*
X259814952Y-44495231D01*
X260063914Y-44290914D01*
X260115125Y-44228513D01*
X262994439Y-41349200D01*
X264851242Y-41349200D01*
X264970634Y-41428975D01*
X265322781Y-41574839D01*
X265696619Y-41649200D01*
X266077781Y-41649200D01*
X266451619Y-41574839D01*
X266803766Y-41428975D01*
X267120691Y-41217213D01*
X267390213Y-40947691D01*
X267601975Y-40630766D01*
X267747839Y-40278619D01*
X267822200Y-39904781D01*
X267822200Y-39523619D01*
X267747839Y-39149781D01*
X267601975Y-38797634D01*
X267390213Y-38480709D01*
X267120691Y-38211187D01*
X266803766Y-37999425D01*
X266451619Y-37853561D01*
X266077781Y-37779200D01*
X265696619Y-37779200D01*
X265322781Y-37853561D01*
X264970634Y-37999425D01*
X264851242Y-38079200D01*
X262397519Y-38079200D01*
X262317199Y-38071289D01*
X262236880Y-38079200D01*
X262236878Y-38079200D01*
X261996684Y-38102857D01*
X261688485Y-38196348D01*
X261404448Y-38348169D01*
X261155486Y-38552486D01*
X261104280Y-38614881D01*
X258224962Y-41494200D01*
X255569272Y-41494200D01*
X255569272Y-40229200D01*
X255557012Y-40104718D01*
X255520702Y-39985020D01*
X255461737Y-39874706D01*
X255382385Y-39778015D01*
X255285694Y-39698663D01*
X255175380Y-39639698D01*
X255055682Y-39603388D01*
X254931200Y-39591128D01*
X248531200Y-39591128D01*
X248406718Y-39603388D01*
X248287020Y-39639698D01*
X248176706Y-39698663D01*
X248165702Y-39707694D01*
X248167574Y-37535243D01*
X248176706Y-37542737D01*
X248287020Y-37601702D01*
X248406718Y-37638012D01*
X248531200Y-37650272D01*
X254931200Y-37650272D01*
X255055682Y-37638012D01*
X255175380Y-37601702D01*
X255285694Y-37542737D01*
X255382385Y-37463385D01*
X255461737Y-37366694D01*
X255520702Y-37256380D01*
X255557012Y-37136682D01*
X255569272Y-37012200D01*
X255569272Y-36277200D01*
X264743486Y-36277200D01*
X264970634Y-36428975D01*
X265322781Y-36574839D01*
X265696619Y-36649200D01*
X266077781Y-36649200D01*
X266451619Y-36574839D01*
X266803766Y-36428975D01*
X267120691Y-36217213D01*
X267390213Y-35947691D01*
X267601975Y-35630766D01*
X267747839Y-35278619D01*
X267822200Y-34904781D01*
X267822200Y-34523619D01*
X267747839Y-34149781D01*
X267601975Y-33797634D01*
X267390213Y-33480709D01*
X267120691Y-33211187D01*
X266803766Y-32999425D01*
X266451619Y-32853561D01*
X266077781Y-32779200D01*
X265696619Y-32779200D01*
X265322781Y-32853561D01*
X264970634Y-32999425D01*
X264958998Y-33007200D01*
X255569272Y-33007200D01*
X255569272Y-31212200D01*
X255557012Y-31087718D01*
X255520702Y-30968020D01*
X255461737Y-30857706D01*
X255382385Y-30761015D01*
X255285694Y-30681663D01*
X255175380Y-30622698D01*
X255055682Y-30586388D01*
X254931200Y-30574128D01*
X248531200Y-30574128D01*
X248406718Y-30586388D01*
X248287020Y-30622698D01*
X248176706Y-30681663D01*
X248173480Y-30684310D01*
X248175123Y-28778438D01*
X248176706Y-28779737D01*
X248287020Y-28838702D01*
X248406718Y-28875012D01*
X248531200Y-28887272D01*
X254931200Y-28887272D01*
X255055682Y-28875012D01*
X255175380Y-28838702D01*
X255285694Y-28779737D01*
X255382385Y-28700385D01*
X255461737Y-28603694D01*
X255520702Y-28493380D01*
X255557012Y-28373682D01*
X255569272Y-28249200D01*
X255569272Y-26984200D01*
X257666162Y-26984200D01*
X261495480Y-30813519D01*
X261546686Y-30875914D01*
X261795648Y-31080231D01*
X262079685Y-31232052D01*
X262387884Y-31325543D01*
X262628078Y-31349200D01*
X262628080Y-31349200D01*
X262708399Y-31357111D01*
X262788719Y-31349200D01*
X264851242Y-31349200D01*
X264970634Y-31428975D01*
X265322781Y-31574839D01*
X265696619Y-31649200D01*
X266077781Y-31649200D01*
X266451619Y-31574839D01*
X266803766Y-31428975D01*
X267120691Y-31217213D01*
X267390213Y-30947691D01*
X267601975Y-30630766D01*
X267747839Y-30278619D01*
X267822200Y-29904781D01*
X267822200Y-29523619D01*
X267747839Y-29149781D01*
X267601975Y-28797634D01*
X267390213Y-28480709D01*
X267120691Y-28211187D01*
X266803766Y-27999425D01*
X266451619Y-27853561D01*
X266077781Y-27779200D01*
X265696619Y-27779200D01*
X265322781Y-27853561D01*
X264970634Y-27999425D01*
X264851242Y-28079200D01*
X263385639Y-28079200D01*
X259683325Y-24376887D01*
X259632114Y-24314486D01*
X259383152Y-24110169D01*
X259317050Y-24074837D01*
X259205352Y-23983169D01*
X258921315Y-23831348D01*
X258613116Y-23737857D01*
X258372922Y-23714200D01*
X255569272Y-23714200D01*
X255569272Y-23414200D01*
X263949128Y-23414200D01*
X263949128Y-26014200D01*
X263961388Y-26138682D01*
X263997698Y-26258380D01*
X264056663Y-26368694D01*
X264136015Y-26465385D01*
X264232706Y-26544737D01*
X264343020Y-26603702D01*
X264462718Y-26640012D01*
X264587200Y-26652272D01*
X267187200Y-26652272D01*
X267311682Y-26640012D01*
X267431380Y-26603702D01*
X267541694Y-26544737D01*
X267638385Y-26465385D01*
X267717737Y-26368694D01*
X267776702Y-26258380D01*
X267813012Y-26138682D01*
X267825272Y-26014200D01*
X267825272Y-23414200D01*
X267813012Y-23289718D01*
X267776702Y-23170020D01*
X267717737Y-23059706D01*
X267638385Y-22963015D01*
X267541694Y-22883663D01*
X267431380Y-22824698D01*
X267311682Y-22788388D01*
X267187200Y-22776128D01*
X264587200Y-22776128D01*
X264462718Y-22788388D01*
X264343020Y-22824698D01*
X264232706Y-22883663D01*
X264136015Y-22963015D01*
X264056663Y-23059706D01*
X263997698Y-23170020D01*
X263961388Y-23289718D01*
X263949128Y-23414200D01*
X255569272Y-23414200D01*
X255569272Y-22449200D01*
X255557012Y-22324718D01*
X255520702Y-22205020D01*
X255461737Y-22094706D01*
X255382385Y-21998015D01*
X255285694Y-21918663D01*
X255175380Y-21859698D01*
X255055682Y-21823388D01*
X254931200Y-21811128D01*
X248531200Y-21811128D01*
X248406718Y-21823388D01*
X248287020Y-21859698D01*
X248181039Y-21916347D01*
X248183400Y-19177547D01*
X248171199Y-19053118D01*
X248135064Y-18933996D01*
X248076383Y-18824213D01*
X247997413Y-18727987D01*
X247901187Y-18649017D01*
X247791404Y-18590336D01*
X247672282Y-18554201D01*
X247548400Y-18542000D01*
X236880400Y-18542000D01*
X236755985Y-18554308D01*
X236636894Y-18590545D01*
X236527161Y-18649319D01*
X236431003Y-18728372D01*
X236352115Y-18824665D01*
X236293529Y-18934498D01*
X236257496Y-19053651D01*
X236245400Y-19177543D01*
X236265720Y-42926000D01*
X225649731Y-42926000D01*
X225661962Y-42915962D01*
X225772405Y-42781386D01*
X225854472Y-42627850D01*
X225905008Y-42461254D01*
X225922072Y-42288000D01*
X225922072Y-41538000D01*
X225905008Y-41364746D01*
X225854472Y-41198150D01*
X225772405Y-41044614D01*
X225661962Y-40910038D01*
X225527386Y-40799595D01*
X225373850Y-40717528D01*
X225207254Y-40666992D01*
X225034000Y-40649928D01*
X223784000Y-40649928D01*
X223610746Y-40666992D01*
X223444150Y-40717528D01*
X223290614Y-40799595D01*
X223171925Y-40897000D01*
X222344075Y-40897000D01*
X222225386Y-40799595D01*
X222071850Y-40717528D01*
X221905254Y-40666992D01*
X221732000Y-40649928D01*
X220482000Y-40649928D01*
X220308746Y-40666992D01*
X220142150Y-40717528D01*
X219988614Y-40799595D01*
X219869925Y-40897000D01*
X217972541Y-40897000D01*
X217861939Y-40875000D01*
X217658061Y-40875000D01*
X217547459Y-40897000D01*
X216442541Y-40897000D01*
X216331939Y-40875000D01*
X216128061Y-40875000D01*
X215928102Y-40914774D01*
X215739744Y-40992795D01*
X215570226Y-41106063D01*
X215426063Y-41250226D01*
X215312795Y-41419744D01*
X215234774Y-41608102D01*
X215195000Y-41808061D01*
X215195000Y-42011939D01*
X215234774Y-42211898D01*
X215312795Y-42400256D01*
X215426063Y-42569774D01*
X215570226Y-42713937D01*
X215739744Y-42827205D01*
X215928102Y-42905226D01*
X216032541Y-42926000D01*
X215020026Y-42926000D01*
X211808026Y-39714000D01*
X214451928Y-39714000D01*
X214464188Y-39838482D01*
X214500498Y-39958180D01*
X214559463Y-40068494D01*
X214638815Y-40165185D01*
X214735506Y-40244537D01*
X214845820Y-40303502D01*
X214965518Y-40339812D01*
X215090000Y-40352072D01*
X215429250Y-40349000D01*
X215588000Y-40190250D01*
X215588000Y-38966000D01*
X214613750Y-38966000D01*
X214455000Y-39124750D01*
X214451928Y-39714000D01*
X211808026Y-39714000D01*
X210761013Y-38666987D01*
X210668593Y-38590580D01*
X210559236Y-38531108D01*
X210440379Y-38494113D01*
X210316588Y-38481017D01*
X206815273Y-38455718D01*
X206775983Y-38382213D01*
X206697013Y-38285987D01*
X206600787Y-38207017D01*
X206491004Y-38148336D01*
X206371882Y-38112201D01*
X206248000Y-38100000D01*
X203581000Y-38100000D01*
X203457118Y-38112201D01*
X203337996Y-38148336D01*
X203228213Y-38207017D01*
X203135781Y-38282873D01*
X203077482Y-38265188D01*
X202953000Y-38252928D01*
X202088750Y-38256000D01*
X201930000Y-38414750D01*
X201930000Y-40014000D01*
X201950000Y-40014000D01*
X201950000Y-40268000D01*
X201930000Y-40268000D01*
X201930000Y-40288000D01*
X201676000Y-40288000D01*
X201676000Y-40268000D01*
X200176750Y-40268000D01*
X200018000Y-40426750D01*
X200014928Y-41391000D01*
X200027188Y-41515482D01*
X200063498Y-41635180D01*
X200074627Y-41656000D01*
X193802000Y-41656000D01*
X193678118Y-41668201D01*
X193558996Y-41704336D01*
X193449213Y-41763017D01*
X193352987Y-41841987D01*
X193274017Y-41938213D01*
X193215336Y-42047996D01*
X193179201Y-42167118D01*
X193167000Y-42291000D01*
X192590072Y-42291000D01*
X192590072Y-40301000D01*
X193463928Y-40301000D01*
X193476188Y-40425482D01*
X193512498Y-40545180D01*
X193571463Y-40655494D01*
X193650815Y-40752185D01*
X193747506Y-40831537D01*
X193857820Y-40890502D01*
X193977518Y-40926812D01*
X194102000Y-40939072D01*
X196116250Y-40936000D01*
X196275000Y-40777250D01*
X196275000Y-39878000D01*
X196529000Y-39878000D01*
X196529000Y-40777250D01*
X196687750Y-40936000D01*
X198702000Y-40939072D01*
X198826482Y-40926812D01*
X198946180Y-40890502D01*
X199056494Y-40831537D01*
X199153185Y-40752185D01*
X199232537Y-40655494D01*
X199291502Y-40545180D01*
X199327812Y-40425482D01*
X199340072Y-40301000D01*
X199337000Y-40036750D01*
X199178250Y-39878000D01*
X196529000Y-39878000D01*
X196275000Y-39878000D01*
X193625750Y-39878000D01*
X193467000Y-40036750D01*
X193463928Y-40301000D01*
X192590072Y-40301000D01*
X192590072Y-39201000D01*
X193463928Y-39201000D01*
X193467000Y-39465250D01*
X193625750Y-39624000D01*
X196275000Y-39624000D01*
X196275000Y-38724750D01*
X196529000Y-38724750D01*
X196529000Y-39624000D01*
X199178250Y-39624000D01*
X199337000Y-39465250D01*
X199340072Y-39201000D01*
X199327812Y-39076518D01*
X199291502Y-38956820D01*
X199256320Y-38891000D01*
X200014928Y-38891000D01*
X200018000Y-39855250D01*
X200176750Y-40014000D01*
X201676000Y-40014000D01*
X201676000Y-38414750D01*
X201517250Y-38256000D01*
X200653000Y-38252928D01*
X200528518Y-38265188D01*
X200408820Y-38301498D01*
X200298506Y-38360463D01*
X200201815Y-38439815D01*
X200122463Y-38536506D01*
X200063498Y-38646820D01*
X200027188Y-38766518D01*
X200014928Y-38891000D01*
X199256320Y-38891000D01*
X199232537Y-38846506D01*
X199153185Y-38749815D01*
X199056494Y-38670463D01*
X198946180Y-38611498D01*
X198826482Y-38575188D01*
X198702000Y-38562928D01*
X196687750Y-38566000D01*
X196529000Y-38724750D01*
X196275000Y-38724750D01*
X196116250Y-38566000D01*
X194102000Y-38562928D01*
X193977518Y-38575188D01*
X193857820Y-38611498D01*
X193747506Y-38670463D01*
X193650815Y-38749815D01*
X193571463Y-38846506D01*
X193512498Y-38956820D01*
X193476188Y-39076518D01*
X193463928Y-39201000D01*
X192590072Y-39201000D01*
X192590072Y-37964000D01*
X214451928Y-37964000D01*
X214455000Y-38553250D01*
X214613750Y-38712000D01*
X215588000Y-38712000D01*
X215588000Y-37487750D01*
X215429250Y-37329000D01*
X215090000Y-37325928D01*
X214965518Y-37338188D01*
X214845820Y-37374498D01*
X214735506Y-37433463D01*
X214638815Y-37512815D01*
X214559463Y-37609506D01*
X214500498Y-37719820D01*
X214464188Y-37839518D01*
X214451928Y-37964000D01*
X192590072Y-37964000D01*
X192590072Y-36891000D01*
X192577812Y-36766518D01*
X192541502Y-36646820D01*
X192482537Y-36536506D01*
X192403185Y-36439815D01*
X192306494Y-36360463D01*
X192196180Y-36301498D01*
X192076482Y-36265188D01*
X191952000Y-36252928D01*
X187325000Y-36252928D01*
X187325000Y-34950061D01*
X215754000Y-34950061D01*
X215754000Y-35153939D01*
X215793774Y-35353898D01*
X215871795Y-35542256D01*
X215985063Y-35711774D01*
X216129226Y-35855937D01*
X216298744Y-35969205D01*
X216487102Y-36047226D01*
X216596928Y-36069072D01*
X216596928Y-36595000D01*
X216613992Y-36768254D01*
X216664528Y-36934850D01*
X216746595Y-37088386D01*
X216857038Y-37222962D01*
X216991614Y-37333405D01*
X217145150Y-37415472D01*
X217311746Y-37466008D01*
X217485000Y-37483072D01*
X217637503Y-37483072D01*
X217512038Y-37586038D01*
X217401595Y-37720614D01*
X217357024Y-37804000D01*
X217267061Y-37804000D01*
X217067102Y-37843774D01*
X216970185Y-37883919D01*
X216965812Y-37839518D01*
X216929502Y-37719820D01*
X216870537Y-37609506D01*
X216791185Y-37512815D01*
X216694494Y-37433463D01*
X216584180Y-37374498D01*
X216464482Y-37338188D01*
X216340000Y-37325928D01*
X216000750Y-37329000D01*
X215842000Y-37487750D01*
X215842000Y-38712000D01*
X215862000Y-38712000D01*
X215862000Y-38966000D01*
X215842000Y-38966000D01*
X215842000Y-40190250D01*
X216000750Y-40349000D01*
X216340000Y-40352072D01*
X216464482Y-40339812D01*
X216584180Y-40303502D01*
X216694494Y-40244537D01*
X216791185Y-40165185D01*
X216870537Y-40068494D01*
X216929502Y-39958180D01*
X216965812Y-39838482D01*
X216970185Y-39794081D01*
X217067102Y-39834226D01*
X217267061Y-39874000D01*
X217357024Y-39874000D01*
X217401595Y-39957386D01*
X217512038Y-40091962D01*
X217646614Y-40202405D01*
X217800150Y-40284472D01*
X217966746Y-40335008D01*
X218140000Y-40352072D01*
X218890000Y-40352072D01*
X219063254Y-40335008D01*
X219229850Y-40284472D01*
X219383386Y-40202405D01*
X219517962Y-40091962D01*
X219628405Y-39957386D01*
X219679586Y-39861634D01*
X219743595Y-39981386D01*
X219854038Y-40115962D01*
X219988614Y-40226405D01*
X220142150Y-40308472D01*
X220308746Y-40359008D01*
X220482000Y-40376072D01*
X221732000Y-40376072D01*
X221905254Y-40359008D01*
X222071850Y-40308472D01*
X222225386Y-40226405D01*
X222359962Y-40115962D01*
X222470405Y-39981386D01*
X222552472Y-39827850D01*
X222603008Y-39661254D01*
X222620072Y-39488000D01*
X222620072Y-38738000D01*
X222603008Y-38564746D01*
X222552472Y-38398150D01*
X222470405Y-38244614D01*
X222359962Y-38110038D01*
X222225386Y-37999595D01*
X222088706Y-37926538D01*
X222102226Y-37893898D01*
X222142000Y-37693939D01*
X222142000Y-37490061D01*
X222117892Y-37368862D01*
X222225386Y-37311405D01*
X222359962Y-37200962D01*
X222470405Y-37066386D01*
X222552472Y-36912850D01*
X222603008Y-36746254D01*
X222620072Y-36573000D01*
X222620072Y-35823000D01*
X222895928Y-35823000D01*
X222895928Y-36573000D01*
X222912992Y-36746254D01*
X222963528Y-36912850D01*
X223045595Y-37066386D01*
X223156038Y-37200962D01*
X223290614Y-37311405D01*
X223398110Y-37368863D01*
X223374002Y-37490061D01*
X223374002Y-37693939D01*
X223413776Y-37893898D01*
X223427296Y-37926537D01*
X223290614Y-37999595D01*
X223156038Y-38110038D01*
X223045595Y-38244614D01*
X222963528Y-38398150D01*
X222912992Y-38564746D01*
X222895928Y-38738000D01*
X222895928Y-39488000D01*
X222912992Y-39661254D01*
X222963528Y-39827850D01*
X223045595Y-39981386D01*
X223156038Y-40115962D01*
X223290614Y-40226405D01*
X223444150Y-40308472D01*
X223610746Y-40359008D01*
X223784000Y-40376072D01*
X225034000Y-40376072D01*
X225207254Y-40359008D01*
X225373850Y-40308472D01*
X225527386Y-40226405D01*
X225661962Y-40115962D01*
X225772405Y-39981386D01*
X225854472Y-39827850D01*
X225905008Y-39661254D01*
X225922072Y-39488000D01*
X225922072Y-38738000D01*
X225905008Y-38564746D01*
X225854472Y-38398150D01*
X225772405Y-38244614D01*
X225661962Y-38110038D01*
X225527386Y-37999595D01*
X225390708Y-37926539D01*
X225404228Y-37893898D01*
X225444002Y-37693939D01*
X225444002Y-37490061D01*
X225419894Y-37368861D01*
X225527386Y-37311405D01*
X225661962Y-37200962D01*
X225772405Y-37066386D01*
X225854472Y-36912850D01*
X225905008Y-36746254D01*
X225922072Y-36573000D01*
X225922072Y-35823000D01*
X225905008Y-35649746D01*
X225854472Y-35483150D01*
X225772405Y-35329614D01*
X225661962Y-35195038D01*
X225527386Y-35084595D01*
X225373850Y-35002528D01*
X225207254Y-34951992D01*
X225034000Y-34934928D01*
X223784000Y-34934928D01*
X223610746Y-34951992D01*
X223444150Y-35002528D01*
X223290614Y-35084595D01*
X223156038Y-35195038D01*
X223045595Y-35329614D01*
X222963528Y-35483150D01*
X222912992Y-35649746D01*
X222895928Y-35823000D01*
X222620072Y-35823000D01*
X222603008Y-35649746D01*
X222552472Y-35483150D01*
X222470405Y-35329614D01*
X222359962Y-35195038D01*
X222225386Y-35084595D01*
X222071850Y-35002528D01*
X221905254Y-34951992D01*
X221732000Y-34934928D01*
X220482000Y-34934928D01*
X220308746Y-34951992D01*
X220142150Y-35002528D01*
X219988614Y-35084595D01*
X219854038Y-35195038D01*
X219743595Y-35329614D01*
X219661528Y-35483150D01*
X219610992Y-35649746D01*
X219607417Y-35686048D01*
X219606008Y-35671746D01*
X219555472Y-35505150D01*
X219473405Y-35351614D01*
X219362962Y-35217038D01*
X219228386Y-35106595D01*
X219074850Y-35024528D01*
X218908254Y-34973992D01*
X218735000Y-34956928D01*
X217884360Y-34956928D01*
X217810718Y-34883285D01*
X217784226Y-34750102D01*
X217755337Y-34680359D01*
X217824250Y-34680000D01*
X217983000Y-34521250D01*
X217983000Y-33547000D01*
X218237000Y-33547000D01*
X218237000Y-34521250D01*
X218395750Y-34680000D01*
X218985000Y-34683072D01*
X219109482Y-34670812D01*
X219229180Y-34634502D01*
X219339494Y-34575537D01*
X219436185Y-34496185D01*
X219515537Y-34399494D01*
X219574502Y-34289180D01*
X219610812Y-34169482D01*
X219611314Y-34164381D01*
X219642498Y-34267180D01*
X219701463Y-34377494D01*
X219780815Y-34474185D01*
X219877506Y-34553537D01*
X219987820Y-34612502D01*
X220107518Y-34648812D01*
X220232000Y-34661072D01*
X220821250Y-34658000D01*
X220980000Y-34499250D01*
X220980000Y-33525000D01*
X221234000Y-33525000D01*
X221234000Y-34499250D01*
X221392750Y-34658000D01*
X221982000Y-34661072D01*
X222106482Y-34648812D01*
X222226180Y-34612502D01*
X222336494Y-34553537D01*
X222433185Y-34474185D01*
X222512537Y-34377494D01*
X222571502Y-34267180D01*
X222607812Y-34147482D01*
X222620072Y-34023000D01*
X222895928Y-34023000D01*
X222908188Y-34147482D01*
X222944498Y-34267180D01*
X223003463Y-34377494D01*
X223082815Y-34474185D01*
X223179506Y-34553537D01*
X223289820Y-34612502D01*
X223409518Y-34648812D01*
X223534000Y-34661072D01*
X224123250Y-34658000D01*
X224282000Y-34499250D01*
X224282000Y-33525000D01*
X224536000Y-33525000D01*
X224536000Y-34499250D01*
X224694750Y-34658000D01*
X225284000Y-34661072D01*
X225408482Y-34648812D01*
X225528180Y-34612502D01*
X225638494Y-34553537D01*
X225735185Y-34474185D01*
X225814537Y-34377494D01*
X225873502Y-34267180D01*
X225909812Y-34147482D01*
X225922072Y-34023000D01*
X225919000Y-33683750D01*
X225760250Y-33525000D01*
X224536000Y-33525000D01*
X224282000Y-33525000D01*
X223057750Y-33525000D01*
X222899000Y-33683750D01*
X222895928Y-34023000D01*
X222620072Y-34023000D01*
X222617000Y-33683750D01*
X222458250Y-33525000D01*
X221234000Y-33525000D01*
X220980000Y-33525000D01*
X219755750Y-33525000D01*
X219597500Y-33683250D01*
X219461250Y-33547000D01*
X218237000Y-33547000D01*
X217983000Y-33547000D01*
X216758750Y-33547000D01*
X216600000Y-33705750D01*
X216597019Y-34034910D01*
X216487102Y-34056774D01*
X216298744Y-34134795D01*
X216129226Y-34248063D01*
X215985063Y-34392226D01*
X215871795Y-34561744D01*
X215793774Y-34750102D01*
X215754000Y-34950061D01*
X187325000Y-34950061D01*
X187325000Y-33632072D01*
X187654000Y-33632072D01*
X187778482Y-33619812D01*
X187898180Y-33583502D01*
X188008494Y-33524537D01*
X188105185Y-33445185D01*
X188184537Y-33348494D01*
X188243502Y-33238180D01*
X188279812Y-33118482D01*
X188292072Y-32994000D01*
X188292072Y-32795000D01*
X216596928Y-32795000D01*
X216600000Y-33134250D01*
X216758750Y-33293000D01*
X217983000Y-33293000D01*
X217983000Y-32318750D01*
X218237000Y-32318750D01*
X218237000Y-33293000D01*
X219461250Y-33293000D01*
X219619500Y-33134750D01*
X219755750Y-33271000D01*
X220980000Y-33271000D01*
X220980000Y-32296750D01*
X221234000Y-32296750D01*
X221234000Y-33271000D01*
X222458250Y-33271000D01*
X222617000Y-33112250D01*
X222620072Y-32773000D01*
X222895928Y-32773000D01*
X222899000Y-33112250D01*
X223057750Y-33271000D01*
X224282000Y-33271000D01*
X224282000Y-32296750D01*
X224536000Y-32296750D01*
X224536000Y-33271000D01*
X225760250Y-33271000D01*
X225919000Y-33112250D01*
X225922072Y-32773000D01*
X225909812Y-32648518D01*
X225873502Y-32528820D01*
X225814537Y-32418506D01*
X225735185Y-32321815D01*
X225638494Y-32242463D01*
X225528180Y-32183498D01*
X225408482Y-32147188D01*
X225284000Y-32134928D01*
X224694750Y-32138000D01*
X224536000Y-32296750D01*
X224282000Y-32296750D01*
X224123250Y-32138000D01*
X223534000Y-32134928D01*
X223409518Y-32147188D01*
X223289820Y-32183498D01*
X223179506Y-32242463D01*
X223082815Y-32321815D01*
X223003463Y-32418506D01*
X222944498Y-32528820D01*
X222908188Y-32648518D01*
X222895928Y-32773000D01*
X222620072Y-32773000D01*
X222607812Y-32648518D01*
X222571502Y-32528820D01*
X222512537Y-32418506D01*
X222433185Y-32321815D01*
X222336494Y-32242463D01*
X222226180Y-32183498D01*
X222106482Y-32147188D01*
X221982000Y-32134928D01*
X221392750Y-32138000D01*
X221234000Y-32296750D01*
X220980000Y-32296750D01*
X220821250Y-32138000D01*
X220232000Y-32134928D01*
X220107518Y-32147188D01*
X219987820Y-32183498D01*
X219877506Y-32242463D01*
X219780815Y-32321815D01*
X219701463Y-32418506D01*
X219642498Y-32528820D01*
X219606188Y-32648518D01*
X219605686Y-32653619D01*
X219574502Y-32550820D01*
X219515537Y-32440506D01*
X219436185Y-32343815D01*
X219339494Y-32264463D01*
X219229180Y-32205498D01*
X219109482Y-32169188D01*
X218985000Y-32156928D01*
X218395750Y-32160000D01*
X218237000Y-32318750D01*
X217983000Y-32318750D01*
X217824250Y-32160000D01*
X217235000Y-32156928D01*
X217110518Y-32169188D01*
X216990820Y-32205498D01*
X216880506Y-32264463D01*
X216783815Y-32343815D01*
X216704463Y-32440506D01*
X216645498Y-32550820D01*
X216609188Y-32670518D01*
X216596928Y-32795000D01*
X188292072Y-32795000D01*
X188292072Y-31014000D01*
X188279812Y-30889518D01*
X188243502Y-30769820D01*
X188184537Y-30659506D01*
X188105185Y-30562815D01*
X188008494Y-30483463D01*
X187898180Y-30424498D01*
X187778482Y-30388188D01*
X187654000Y-30375928D01*
X185987895Y-30375928D01*
X185674000Y-30345012D01*
X185360104Y-30375928D01*
X183694000Y-30375928D01*
X183569518Y-30388188D01*
X183449820Y-30424498D01*
X183339506Y-30483463D01*
X183242815Y-30562815D01*
X183163463Y-30659506D01*
X183104498Y-30769820D01*
X183068188Y-30889518D01*
X183055928Y-31014000D01*
X183055928Y-32994000D01*
X183068188Y-33118482D01*
X183104498Y-33238180D01*
X183163463Y-33348494D01*
X183242815Y-33445185D01*
X183339506Y-33524537D01*
X183449820Y-33583502D01*
X183569518Y-33619812D01*
X183694000Y-33632072D01*
X184023000Y-33632072D01*
X184023000Y-36252928D01*
X182552000Y-36252928D01*
X182427518Y-36265188D01*
X182307820Y-36301498D01*
X182197506Y-36360463D01*
X182100815Y-36439815D01*
X182021463Y-36536506D01*
X181962498Y-36646820D01*
X181926188Y-36766518D01*
X181913928Y-36891000D01*
X174700000Y-36891000D01*
X174700000Y-30089000D01*
X229245928Y-30089000D01*
X229258188Y-30213482D01*
X229294498Y-30333180D01*
X229353463Y-30443494D01*
X229432815Y-30540185D01*
X229529506Y-30619537D01*
X229639820Y-30678502D01*
X229759518Y-30714812D01*
X229884000Y-30727072D01*
X230473250Y-30724000D01*
X230632000Y-30565250D01*
X230632000Y-29591000D01*
X230886000Y-29591000D01*
X230886000Y-30565250D01*
X231044750Y-30724000D01*
X231634000Y-30727072D01*
X231758482Y-30714812D01*
X231878180Y-30678502D01*
X231988494Y-30619537D01*
X232085185Y-30540185D01*
X232164537Y-30443494D01*
X232223502Y-30333180D01*
X232259812Y-30213482D01*
X232272072Y-30089000D01*
X232269000Y-29749750D01*
X232110250Y-29591000D01*
X230886000Y-29591000D01*
X230632000Y-29591000D01*
X229407750Y-29591000D01*
X229249000Y-29749750D01*
X229245928Y-30089000D01*
X174700000Y-30089000D01*
X174700000Y-28839000D01*
X229245928Y-28839000D01*
X229249000Y-29178250D01*
X229407750Y-29337000D01*
X230632000Y-29337000D01*
X230632000Y-28362750D01*
X230886000Y-28362750D01*
X230886000Y-29337000D01*
X232110250Y-29337000D01*
X232269000Y-29178250D01*
X232272072Y-28839000D01*
X232259812Y-28714518D01*
X232223502Y-28594820D01*
X232164537Y-28484506D01*
X232085185Y-28387815D01*
X231988494Y-28308463D01*
X231878180Y-28249498D01*
X231758482Y-28213188D01*
X231634000Y-28200928D01*
X231044750Y-28204000D01*
X230886000Y-28362750D01*
X230632000Y-28362750D01*
X230473250Y-28204000D01*
X229884000Y-28200928D01*
X229759518Y-28213188D01*
X229639820Y-28249498D01*
X229529506Y-28308463D01*
X229432815Y-28387815D01*
X229353463Y-28484506D01*
X229294498Y-28594820D01*
X229258188Y-28714518D01*
X229245928Y-28839000D01*
X174700000Y-28839000D01*
X174700000Y-27382865D01*
X183103782Y-27382865D01*
X183134095Y-27508528D01*
X183262304Y-27801205D01*
X183445148Y-28063246D01*
X183675601Y-28284581D01*
X183944806Y-28456704D01*
X184242418Y-28573000D01*
X184557000Y-28629000D01*
X185547000Y-28629000D01*
X185547000Y-27131000D01*
X185801000Y-27131000D01*
X185801000Y-28629000D01*
X186791000Y-28629000D01*
X187105582Y-28573000D01*
X187403194Y-28456704D01*
X187672399Y-28284581D01*
X187902852Y-28063246D01*
X188085696Y-27801205D01*
X188213905Y-27508528D01*
X188244218Y-27382865D01*
X188124740Y-27131000D01*
X185801000Y-27131000D01*
X185547000Y-27131000D01*
X183223260Y-27131000D01*
X183103782Y-27382865D01*
X174700000Y-27382865D01*
X174700000Y-26625135D01*
X183103782Y-26625135D01*
X183223260Y-26877000D01*
X185547000Y-26877000D01*
X185547000Y-25379000D01*
X185801000Y-25379000D01*
X185801000Y-26877000D01*
X188124740Y-26877000D01*
X188244218Y-26625135D01*
X188213905Y-26499472D01*
X188085696Y-26206795D01*
X187902852Y-25944754D01*
X187672399Y-25723419D01*
X187403194Y-25551296D01*
X187105582Y-25435000D01*
X186791000Y-25379000D01*
X185801000Y-25379000D01*
X185547000Y-25379000D01*
X184557000Y-25379000D01*
X184242418Y-25435000D01*
X183944806Y-25551296D01*
X183675601Y-25723419D01*
X183445148Y-25944754D01*
X183262304Y-26206795D01*
X183134095Y-26499472D01*
X183103782Y-26625135D01*
X174700000Y-26625135D01*
X174700000Y-22516000D01*
X210220928Y-22516000D01*
X210220928Y-23966000D01*
X210237992Y-24139254D01*
X210288528Y-24305850D01*
X210370595Y-24459386D01*
X210481038Y-24593962D01*
X210615614Y-24704405D01*
X210769150Y-24786472D01*
X210935746Y-24837008D01*
X211109000Y-24854072D01*
X212309000Y-24854072D01*
X212482254Y-24837008D01*
X212648850Y-24786472D01*
X212802386Y-24704405D01*
X212936962Y-24593962D01*
X213047405Y-24459386D01*
X213101777Y-24357663D01*
X213153866Y-24421134D01*
X213379987Y-24606706D01*
X213637967Y-24744599D01*
X213917890Y-24829513D01*
X214209000Y-24858185D01*
X214500111Y-24829513D01*
X214780034Y-24744599D01*
X215038014Y-24606706D01*
X215264134Y-24421134D01*
X215449706Y-24195014D01*
X215463462Y-24169278D01*
X215619951Y-24375429D01*
X215837807Y-24568496D01*
X216089142Y-24715352D01*
X216352110Y-24807476D01*
X216582000Y-24686155D01*
X216582000Y-23368000D01*
X216562000Y-23368000D01*
X216562000Y-23114000D01*
X216582000Y-23114000D01*
X216582000Y-21795845D01*
X216836000Y-21795845D01*
X216836000Y-23114000D01*
X216856000Y-23114000D01*
X216856000Y-23368000D01*
X216836000Y-23368000D01*
X216836000Y-24686155D01*
X217065890Y-24807476D01*
X217328858Y-24715352D01*
X217580193Y-24568496D01*
X217798049Y-24375429D01*
X217954538Y-24169278D01*
X217968294Y-24195014D01*
X218153866Y-24421134D01*
X218379987Y-24606706D01*
X218637967Y-24744599D01*
X218917890Y-24829513D01*
X219209000Y-24858185D01*
X219500111Y-24829513D01*
X219780034Y-24744599D01*
X220038014Y-24606706D01*
X220264134Y-24421134D01*
X220449706Y-24195014D01*
X220587599Y-23937033D01*
X220672513Y-23657110D01*
X220694000Y-23438949D01*
X220694000Y-23043050D01*
X220672513Y-22824889D01*
X220587599Y-22544966D01*
X220558754Y-22491000D01*
X226857928Y-22491000D01*
X226857928Y-23991000D01*
X226874992Y-24164254D01*
X226925528Y-24330850D01*
X227007595Y-24484386D01*
X227118038Y-24618962D01*
X227252614Y-24729405D01*
X227406150Y-24811472D01*
X227572746Y-24862008D01*
X227746000Y-24879072D01*
X228946000Y-24879072D01*
X229119254Y-24862008D01*
X229285850Y-24811472D01*
X229439386Y-24729405D01*
X229573962Y-24618962D01*
X229684405Y-24484386D01*
X229738777Y-24382663D01*
X229790866Y-24446134D01*
X229933501Y-24563191D01*
X229933500Y-25426257D01*
X229794150Y-25468528D01*
X229640614Y-25550595D01*
X229506038Y-25661038D01*
X229395595Y-25795614D01*
X229313528Y-25949150D01*
X229262992Y-26115746D01*
X229245928Y-26289000D01*
X229245928Y-27039000D01*
X229262992Y-27212254D01*
X229313528Y-27378850D01*
X229395595Y-27532386D01*
X229506038Y-27666962D01*
X229640614Y-27777405D01*
X229794150Y-27859472D01*
X229960746Y-27910008D01*
X230134000Y-27927072D01*
X231384000Y-27927072D01*
X231557254Y-27910008D01*
X231723850Y-27859472D01*
X231877386Y-27777405D01*
X232011962Y-27666962D01*
X232122405Y-27532386D01*
X232204472Y-27378850D01*
X232255008Y-27212254D01*
X232272072Y-27039000D01*
X232272072Y-26289000D01*
X232255008Y-26115746D01*
X232204472Y-25949150D01*
X232122405Y-25795614D01*
X232011962Y-25661038D01*
X231877386Y-25550595D01*
X231723850Y-25468528D01*
X231584500Y-25426257D01*
X231584500Y-24680087D01*
X231675014Y-24631706D01*
X231901134Y-24446134D01*
X232086706Y-24220014D01*
X232224599Y-23962033D01*
X232309513Y-23682110D01*
X232331000Y-23463949D01*
X232331000Y-23018050D01*
X232309513Y-22799889D01*
X232224599Y-22519966D01*
X232086706Y-22261986D01*
X231901134Y-22035866D01*
X231675013Y-21850294D01*
X231417033Y-21712401D01*
X231137110Y-21627487D01*
X230846000Y-21598815D01*
X230554889Y-21627487D01*
X230274966Y-21712401D01*
X230016986Y-21850294D01*
X229790866Y-22035866D01*
X229738777Y-22099337D01*
X229684405Y-21997614D01*
X229573962Y-21863038D01*
X229439386Y-21752595D01*
X229285850Y-21670528D01*
X229119254Y-21619992D01*
X228946000Y-21602928D01*
X227746000Y-21602928D01*
X227572746Y-21619992D01*
X227406150Y-21670528D01*
X227252614Y-21752595D01*
X227118038Y-21863038D01*
X227007595Y-21997614D01*
X226925528Y-22151150D01*
X226874992Y-22317746D01*
X226857928Y-22491000D01*
X220558754Y-22491000D01*
X220449706Y-22286986D01*
X220264134Y-22060866D01*
X220038013Y-21875294D01*
X219780033Y-21737401D01*
X219500110Y-21652487D01*
X219209000Y-21623815D01*
X218917889Y-21652487D01*
X218637966Y-21737401D01*
X218379986Y-21875294D01*
X218153866Y-22060866D01*
X217968294Y-22286987D01*
X217954538Y-22312722D01*
X217798049Y-22106571D01*
X217580193Y-21913504D01*
X217328858Y-21766648D01*
X217065890Y-21674524D01*
X216836000Y-21795845D01*
X216582000Y-21795845D01*
X216352110Y-21674524D01*
X216089142Y-21766648D01*
X215837807Y-21913504D01*
X215619951Y-22106571D01*
X215463462Y-22312722D01*
X215449706Y-22286986D01*
X215264134Y-22060866D01*
X215038013Y-21875294D01*
X214780033Y-21737401D01*
X214500110Y-21652487D01*
X214209000Y-21623815D01*
X213917889Y-21652487D01*
X213637966Y-21737401D01*
X213379986Y-21875294D01*
X213153866Y-22060866D01*
X213101777Y-22124337D01*
X213047405Y-22022614D01*
X212936962Y-21888038D01*
X212802386Y-21777595D01*
X212648850Y-21695528D01*
X212482254Y-21644992D01*
X212309000Y-21627928D01*
X211109000Y-21627928D01*
X210935746Y-21644992D01*
X210769150Y-21695528D01*
X210615614Y-21777595D01*
X210481038Y-21888038D01*
X210370595Y-22022614D01*
X210288528Y-22176150D01*
X210237992Y-22342746D01*
X210220928Y-22516000D01*
X174700000Y-22516000D01*
X174700000Y-17520475D01*
X176054000Y-17520475D01*
X176054000Y-18039525D01*
X176155261Y-18548601D01*
X176353893Y-19028141D01*
X176642262Y-19459715D01*
X177009285Y-19826738D01*
X177440859Y-20115107D01*
X177920399Y-20313739D01*
X178429475Y-20415000D01*
X178948525Y-20415000D01*
X179457601Y-20313739D01*
X179937141Y-20115107D01*
X180368715Y-19826738D01*
X180735738Y-19459715D01*
X181024107Y-19028141D01*
X181222739Y-18548601D01*
X181324000Y-18039525D01*
X181324000Y-17520475D01*
X181248215Y-17139475D01*
X268510000Y-17139475D01*
X268510000Y-17658525D01*
X268611261Y-18167601D01*
X268809893Y-18647141D01*
X269098262Y-19078715D01*
X269465285Y-19445738D01*
X269896859Y-19734107D01*
X270376399Y-19932739D01*
X270885475Y-20034000D01*
X271404525Y-20034000D01*
X271913601Y-19932739D01*
X272393141Y-19734107D01*
X272824715Y-19445738D01*
X273191738Y-19078715D01*
X273480107Y-18647141D01*
X273678739Y-18167601D01*
X273780000Y-17658525D01*
X273780000Y-17139475D01*
X273678739Y-16630399D01*
X273480107Y-16150859D01*
X273191738Y-15719285D01*
X272824715Y-15352262D01*
X272393141Y-15063893D01*
X271913601Y-14865261D01*
X271404525Y-14764000D01*
X270885475Y-14764000D01*
X270376399Y-14865261D01*
X269896859Y-15063893D01*
X269465285Y-15352262D01*
X269098262Y-15719285D01*
X268809893Y-16150859D01*
X268611261Y-16630399D01*
X268510000Y-17139475D01*
X181248215Y-17139475D01*
X181222739Y-17011399D01*
X181024107Y-16531859D01*
X180735738Y-16100285D01*
X180368715Y-15733262D01*
X179937141Y-15444893D01*
X179457601Y-15246261D01*
X178948525Y-15145000D01*
X178429475Y-15145000D01*
X177920399Y-15246261D01*
X177440859Y-15444893D01*
X177009285Y-15733262D01*
X176642262Y-16100285D01*
X176353893Y-16531859D01*
X176155261Y-17011399D01*
X176054000Y-17520475D01*
X174700000Y-17520475D01*
X174700000Y-14299000D01*
X274880000Y-14299000D01*
X274880001Y-50217000D01*
G04 #@! TO.N,+12V*
G36*
X206121000Y-46736000D02*
G01*
X193929000Y-46736000D01*
X193929000Y-45992094D01*
X193977518Y-46006812D01*
X194102000Y-46019072D01*
X195862250Y-46016000D01*
X196021000Y-45857250D01*
X196021000Y-45212000D01*
X196783000Y-45212000D01*
X196783000Y-45857250D01*
X196941750Y-46016000D01*
X198702000Y-46019072D01*
X198826482Y-46006812D01*
X198946180Y-45970502D01*
X199056494Y-45911537D01*
X199153185Y-45832185D01*
X199232537Y-45735494D01*
X199256319Y-45691000D01*
X200014928Y-45691000D01*
X200027188Y-45815482D01*
X200063498Y-45935180D01*
X200122463Y-46045494D01*
X200201815Y-46142185D01*
X200298506Y-46221537D01*
X200408820Y-46280502D01*
X200528518Y-46316812D01*
X200653000Y-46329072D01*
X201263250Y-46326000D01*
X201422000Y-46167250D01*
X201422000Y-44822000D01*
X202184000Y-44822000D01*
X202184000Y-46167250D01*
X202342750Y-46326000D01*
X202953000Y-46329072D01*
X203077482Y-46316812D01*
X203197180Y-46280502D01*
X203307494Y-46221537D01*
X203404185Y-46142185D01*
X203483537Y-46045494D01*
X203542502Y-45935180D01*
X203578812Y-45815482D01*
X203591072Y-45691000D01*
X203588000Y-44980750D01*
X203429250Y-44822000D01*
X202184000Y-44822000D01*
X201422000Y-44822000D01*
X200176750Y-44822000D01*
X200018000Y-44980750D01*
X200014928Y-45691000D01*
X199256319Y-45691000D01*
X199291502Y-45625180D01*
X199327812Y-45505482D01*
X199340072Y-45381000D01*
X199337000Y-45370750D01*
X199178250Y-45212000D01*
X196783000Y-45212000D01*
X196021000Y-45212000D01*
X196001000Y-45212000D01*
X196001000Y-44450000D01*
X196021000Y-44450000D01*
X196021000Y-43804750D01*
X196783000Y-43804750D01*
X196783000Y-44450000D01*
X199178250Y-44450000D01*
X199337000Y-44291250D01*
X199340072Y-44281000D01*
X199327812Y-44156518D01*
X199291502Y-44036820D01*
X199232537Y-43926506D01*
X199153185Y-43829815D01*
X199056494Y-43750463D01*
X198946180Y-43691498D01*
X198826482Y-43655188D01*
X198702000Y-43642928D01*
X196941750Y-43646000D01*
X196783000Y-43804750D01*
X196021000Y-43804750D01*
X195862250Y-43646000D01*
X194102000Y-43642928D01*
X193977518Y-43655188D01*
X193929000Y-43669906D01*
X193929000Y-43191000D01*
X200014928Y-43191000D01*
X200018000Y-43901250D01*
X200176750Y-44060000D01*
X201422000Y-44060000D01*
X201422000Y-42714750D01*
X202184000Y-42714750D01*
X202184000Y-44060000D01*
X203429250Y-44060000D01*
X203588000Y-43901250D01*
X203591072Y-43191000D01*
X203578812Y-43066518D01*
X203542502Y-42946820D01*
X203483537Y-42836506D01*
X203404185Y-42739815D01*
X203307494Y-42660463D01*
X203197180Y-42601498D01*
X203077482Y-42565188D01*
X202953000Y-42552928D01*
X202342750Y-42556000D01*
X202184000Y-42714750D01*
X201422000Y-42714750D01*
X201263250Y-42556000D01*
X200653000Y-42552928D01*
X200528518Y-42565188D01*
X200408820Y-42601498D01*
X200298506Y-42660463D01*
X200201815Y-42739815D01*
X200122463Y-42836506D01*
X200063498Y-42946820D01*
X200027188Y-43066518D01*
X200014928Y-43191000D01*
X193929000Y-43191000D01*
X193929000Y-42418000D01*
X202311000Y-42418000D01*
X202335776Y-42415560D01*
X202359601Y-42408333D01*
X202381557Y-42396597D01*
X202400803Y-42380803D01*
X202752534Y-42029072D01*
X202953000Y-42029072D01*
X203077482Y-42016812D01*
X203197180Y-41980502D01*
X203307494Y-41921537D01*
X203404185Y-41842185D01*
X203483537Y-41745494D01*
X203542502Y-41635180D01*
X203578812Y-41515482D01*
X203591072Y-41391000D01*
X203591072Y-41190534D01*
X203670803Y-41110803D01*
X203686597Y-41091557D01*
X203698333Y-41069601D01*
X203705560Y-41045776D01*
X203708000Y-41021000D01*
X203708000Y-38862000D01*
X206121000Y-38862000D01*
X206121000Y-46736000D01*
X206121000Y-46736000D01*
G37*
X206121000Y-46736000D02*
X193929000Y-46736000D01*
X193929000Y-45992094D01*
X193977518Y-46006812D01*
X194102000Y-46019072D01*
X195862250Y-46016000D01*
X196021000Y-45857250D01*
X196021000Y-45212000D01*
X196783000Y-45212000D01*
X196783000Y-45857250D01*
X196941750Y-46016000D01*
X198702000Y-46019072D01*
X198826482Y-46006812D01*
X198946180Y-45970502D01*
X199056494Y-45911537D01*
X199153185Y-45832185D01*
X199232537Y-45735494D01*
X199256319Y-45691000D01*
X200014928Y-45691000D01*
X200027188Y-45815482D01*
X200063498Y-45935180D01*
X200122463Y-46045494D01*
X200201815Y-46142185D01*
X200298506Y-46221537D01*
X200408820Y-46280502D01*
X200528518Y-46316812D01*
X200653000Y-46329072D01*
X201263250Y-46326000D01*
X201422000Y-46167250D01*
X201422000Y-44822000D01*
X202184000Y-44822000D01*
X202184000Y-46167250D01*
X202342750Y-46326000D01*
X202953000Y-46329072D01*
X203077482Y-46316812D01*
X203197180Y-46280502D01*
X203307494Y-46221537D01*
X203404185Y-46142185D01*
X203483537Y-46045494D01*
X203542502Y-45935180D01*
X203578812Y-45815482D01*
X203591072Y-45691000D01*
X203588000Y-44980750D01*
X203429250Y-44822000D01*
X202184000Y-44822000D01*
X201422000Y-44822000D01*
X200176750Y-44822000D01*
X200018000Y-44980750D01*
X200014928Y-45691000D01*
X199256319Y-45691000D01*
X199291502Y-45625180D01*
X199327812Y-45505482D01*
X199340072Y-45381000D01*
X199337000Y-45370750D01*
X199178250Y-45212000D01*
X196783000Y-45212000D01*
X196021000Y-45212000D01*
X196001000Y-45212000D01*
X196001000Y-44450000D01*
X196021000Y-44450000D01*
X196021000Y-43804750D01*
X196783000Y-43804750D01*
X196783000Y-44450000D01*
X199178250Y-44450000D01*
X199337000Y-44291250D01*
X199340072Y-44281000D01*
X199327812Y-44156518D01*
X199291502Y-44036820D01*
X199232537Y-43926506D01*
X199153185Y-43829815D01*
X199056494Y-43750463D01*
X198946180Y-43691498D01*
X198826482Y-43655188D01*
X198702000Y-43642928D01*
X196941750Y-43646000D01*
X196783000Y-43804750D01*
X196021000Y-43804750D01*
X195862250Y-43646000D01*
X194102000Y-43642928D01*
X193977518Y-43655188D01*
X193929000Y-43669906D01*
X193929000Y-43191000D01*
X200014928Y-43191000D01*
X200018000Y-43901250D01*
X200176750Y-44060000D01*
X201422000Y-44060000D01*
X201422000Y-42714750D01*
X202184000Y-42714750D01*
X202184000Y-44060000D01*
X203429250Y-44060000D01*
X203588000Y-43901250D01*
X203591072Y-43191000D01*
X203578812Y-43066518D01*
X203542502Y-42946820D01*
X203483537Y-42836506D01*
X203404185Y-42739815D01*
X203307494Y-42660463D01*
X203197180Y-42601498D01*
X203077482Y-42565188D01*
X202953000Y-42552928D01*
X202342750Y-42556000D01*
X202184000Y-42714750D01*
X201422000Y-42714750D01*
X201263250Y-42556000D01*
X200653000Y-42552928D01*
X200528518Y-42565188D01*
X200408820Y-42601498D01*
X200298506Y-42660463D01*
X200201815Y-42739815D01*
X200122463Y-42836506D01*
X200063498Y-42946820D01*
X200027188Y-43066518D01*
X200014928Y-43191000D01*
X193929000Y-43191000D01*
X193929000Y-42418000D01*
X202311000Y-42418000D01*
X202335776Y-42415560D01*
X202359601Y-42408333D01*
X202381557Y-42396597D01*
X202400803Y-42380803D01*
X202752534Y-42029072D01*
X202953000Y-42029072D01*
X203077482Y-42016812D01*
X203197180Y-41980502D01*
X203307494Y-41921537D01*
X203404185Y-41842185D01*
X203483537Y-41745494D01*
X203542502Y-41635180D01*
X203578812Y-41515482D01*
X203591072Y-41391000D01*
X203591072Y-41190534D01*
X203670803Y-41110803D01*
X203686597Y-41091557D01*
X203698333Y-41069601D01*
X203705560Y-41045776D01*
X203708000Y-41021000D01*
X203708000Y-38862000D01*
X206121000Y-38862000D01*
X206121000Y-46736000D01*
G36*
X247396109Y-48514000D02*
G01*
X236907606Y-48514000D01*
X235547803Y-47154197D01*
X235528557Y-47138403D01*
X235506601Y-47126667D01*
X235482776Y-47119440D01*
X235458130Y-47117000D01*
X206287000Y-47087130D01*
X206287000Y-39213921D01*
X210259015Y-39242621D01*
X214667197Y-43650803D01*
X214686443Y-43666597D01*
X214708399Y-43678333D01*
X214732224Y-43685560D01*
X214757000Y-43688000D01*
X236901264Y-43688000D01*
X236926040Y-43685560D01*
X236949865Y-43678333D01*
X236971821Y-43666597D01*
X236991067Y-43650803D01*
X237006861Y-43631557D01*
X237018597Y-43609601D01*
X237025824Y-43585776D01*
X237028264Y-43560891D01*
X237027729Y-42935000D01*
X239609128Y-42935000D01*
X239609128Y-43685000D01*
X239626192Y-43858254D01*
X239676728Y-44024850D01*
X239758795Y-44178386D01*
X239869238Y-44312962D01*
X240003814Y-44423405D01*
X240157350Y-44505472D01*
X240323946Y-44556008D01*
X240497200Y-44573072D01*
X241747200Y-44573072D01*
X241920454Y-44556008D01*
X242087050Y-44505472D01*
X242240586Y-44423405D01*
X242375162Y-44312962D01*
X242485605Y-44178386D01*
X242544073Y-44069000D01*
X243307532Y-44069000D01*
X243349744Y-44097205D01*
X243538102Y-44175226D01*
X243738061Y-44215000D01*
X243941939Y-44215000D01*
X244141898Y-44175226D01*
X244192168Y-44154403D01*
X244219858Y-44182094D01*
X244206718Y-44183388D01*
X244087020Y-44219698D01*
X243976706Y-44278663D01*
X243880015Y-44358015D01*
X243800663Y-44454706D01*
X243741698Y-44565020D01*
X243705388Y-44684718D01*
X243693128Y-44809200D01*
X243693128Y-46009200D01*
X243705388Y-46133682D01*
X243741698Y-46253380D01*
X243800663Y-46363694D01*
X243880015Y-46460385D01*
X243976706Y-46539737D01*
X244087020Y-46598702D01*
X244206718Y-46635012D01*
X244331200Y-46647272D01*
X246531200Y-46647272D01*
X246655682Y-46635012D01*
X246775380Y-46598702D01*
X246885694Y-46539737D01*
X246982385Y-46460385D01*
X247061737Y-46363694D01*
X247120702Y-46253380D01*
X247157012Y-46133682D01*
X247169272Y-46009200D01*
X247169272Y-44809200D01*
X247157012Y-44684718D01*
X247120702Y-44565020D01*
X247061737Y-44454706D01*
X246982385Y-44358015D01*
X246885694Y-44278663D01*
X246775380Y-44219698D01*
X246655682Y-44183388D01*
X246531200Y-44171128D01*
X246321060Y-44171128D01*
X246324500Y-44136199D01*
X246320200Y-44092539D01*
X246320200Y-44092534D01*
X246309438Y-43983271D01*
X246307336Y-43961925D01*
X246261754Y-43811659D01*
X246256503Y-43794349D01*
X246173953Y-43639909D01*
X246062859Y-43504541D01*
X246028941Y-43476705D01*
X245134499Y-42582264D01*
X245106659Y-42548341D01*
X244971291Y-42437247D01*
X244816851Y-42354697D01*
X244649274Y-42303864D01*
X244518667Y-42291000D01*
X244518660Y-42291000D01*
X244475000Y-42286700D01*
X244431340Y-42291000D01*
X244372468Y-42291000D01*
X244330256Y-42262795D01*
X244141898Y-42184774D01*
X243941939Y-42145000D01*
X243738061Y-42145000D01*
X243538102Y-42184774D01*
X243349744Y-42262795D01*
X243307532Y-42291000D01*
X242355620Y-42291000D01*
X242240586Y-42196595D01*
X242087050Y-42114528D01*
X241920454Y-42063992D01*
X241747200Y-42046928D01*
X240497200Y-42046928D01*
X240323946Y-42063992D01*
X240157350Y-42114528D01*
X240003814Y-42196595D01*
X239869238Y-42307038D01*
X239758795Y-42441614D01*
X239676728Y-42595150D01*
X239626192Y-42761746D01*
X239609128Y-42935000D01*
X237027729Y-42935000D01*
X237026189Y-41135000D01*
X239609128Y-41135000D01*
X239621388Y-41259482D01*
X239657698Y-41379180D01*
X239716663Y-41489494D01*
X239796015Y-41586185D01*
X239892706Y-41665537D01*
X240003020Y-41724502D01*
X240122718Y-41760812D01*
X240247200Y-41773072D01*
X240836450Y-41770000D01*
X240995200Y-41611250D01*
X240995200Y-40637000D01*
X241249200Y-40637000D01*
X241249200Y-41611250D01*
X241407950Y-41770000D01*
X241997200Y-41773072D01*
X242121682Y-41760812D01*
X242241380Y-41724502D01*
X242351694Y-41665537D01*
X242448385Y-41586185D01*
X242527737Y-41489494D01*
X242549274Y-41449200D01*
X243693128Y-41449200D01*
X243705388Y-41573682D01*
X243741698Y-41693380D01*
X243800663Y-41803694D01*
X243880015Y-41900385D01*
X243976706Y-41979737D01*
X244087020Y-42038702D01*
X244206718Y-42075012D01*
X244331200Y-42087272D01*
X245145450Y-42084200D01*
X245304200Y-41925450D01*
X245304200Y-40976200D01*
X245558200Y-40976200D01*
X245558200Y-41925450D01*
X245716950Y-42084200D01*
X246531200Y-42087272D01*
X246655682Y-42075012D01*
X246775380Y-42038702D01*
X246885694Y-41979737D01*
X246982385Y-41900385D01*
X247061737Y-41803694D01*
X247120702Y-41693380D01*
X247157012Y-41573682D01*
X247169272Y-41449200D01*
X247166200Y-41134950D01*
X247007450Y-40976200D01*
X245558200Y-40976200D01*
X245304200Y-40976200D01*
X243854950Y-40976200D01*
X243696200Y-41134950D01*
X243693128Y-41449200D01*
X242549274Y-41449200D01*
X242586702Y-41379180D01*
X242623012Y-41259482D01*
X242635272Y-41135000D01*
X242632200Y-40795750D01*
X242473450Y-40637000D01*
X241249200Y-40637000D01*
X240995200Y-40637000D01*
X239770950Y-40637000D01*
X239612200Y-40795750D01*
X239609128Y-41135000D01*
X237026189Y-41135000D01*
X237025120Y-39885000D01*
X239609128Y-39885000D01*
X239612200Y-40224250D01*
X239770950Y-40383000D01*
X240995200Y-40383000D01*
X240995200Y-39408750D01*
X241249200Y-39408750D01*
X241249200Y-40383000D01*
X242473450Y-40383000D01*
X242607250Y-40249200D01*
X243693128Y-40249200D01*
X243696200Y-40563450D01*
X243854950Y-40722200D01*
X245304200Y-40722200D01*
X245304200Y-39772950D01*
X245558200Y-39772950D01*
X245558200Y-40722200D01*
X247007450Y-40722200D01*
X247166200Y-40563450D01*
X247169272Y-40249200D01*
X247157012Y-40124718D01*
X247120702Y-40005020D01*
X247061737Y-39894706D01*
X246982385Y-39798015D01*
X246885694Y-39718663D01*
X246775380Y-39659698D01*
X246655682Y-39623388D01*
X246531200Y-39611128D01*
X245716950Y-39614200D01*
X245558200Y-39772950D01*
X245304200Y-39772950D01*
X245145450Y-39614200D01*
X244331200Y-39611128D01*
X244206718Y-39623388D01*
X244087020Y-39659698D01*
X243976706Y-39718663D01*
X243880015Y-39798015D01*
X243800663Y-39894706D01*
X243741698Y-40005020D01*
X243705388Y-40124718D01*
X243693128Y-40249200D01*
X242607250Y-40249200D01*
X242632200Y-40224250D01*
X242635272Y-39885000D01*
X242623012Y-39760518D01*
X242586702Y-39640820D01*
X242527737Y-39530506D01*
X242448385Y-39433815D01*
X242351694Y-39354463D01*
X242241380Y-39295498D01*
X242121682Y-39259188D01*
X241997200Y-39246928D01*
X241407950Y-39250000D01*
X241249200Y-39408750D01*
X240995200Y-39408750D01*
X240836450Y-39250000D01*
X240247200Y-39246928D01*
X240122718Y-39259188D01*
X240003020Y-39295498D01*
X239892706Y-39354463D01*
X239796015Y-39433815D01*
X239716663Y-39530506D01*
X239657698Y-39640820D01*
X239621388Y-39760518D01*
X239609128Y-39885000D01*
X237025120Y-39885000D01*
X237020015Y-33918000D01*
X239609128Y-33918000D01*
X239609128Y-34668000D01*
X239626192Y-34841254D01*
X239676728Y-35007850D01*
X239758795Y-35161386D01*
X239869238Y-35295962D01*
X240003814Y-35406405D01*
X240157350Y-35488472D01*
X240323946Y-35539008D01*
X240497200Y-35556072D01*
X241747200Y-35556072D01*
X241920454Y-35539008D01*
X242087050Y-35488472D01*
X242240586Y-35406405D01*
X242375162Y-35295962D01*
X242485605Y-35161386D01*
X242544073Y-35052000D01*
X243307532Y-35052000D01*
X243349744Y-35080205D01*
X243538102Y-35158226D01*
X243738061Y-35198000D01*
X243941939Y-35198000D01*
X244141898Y-35158226D01*
X244192168Y-35137403D01*
X244219858Y-35165094D01*
X244206718Y-35166388D01*
X244087020Y-35202698D01*
X243976706Y-35261663D01*
X243880015Y-35341015D01*
X243800663Y-35437706D01*
X243741698Y-35548020D01*
X243705388Y-35667718D01*
X243693128Y-35792200D01*
X243693128Y-36992200D01*
X243705388Y-37116682D01*
X243741698Y-37236380D01*
X243800663Y-37346694D01*
X243880015Y-37443385D01*
X243976706Y-37522737D01*
X244087020Y-37581702D01*
X244206718Y-37618012D01*
X244331200Y-37630272D01*
X246531200Y-37630272D01*
X246655682Y-37618012D01*
X246775380Y-37581702D01*
X246885694Y-37522737D01*
X246982385Y-37443385D01*
X247061737Y-37346694D01*
X247120702Y-37236380D01*
X247157012Y-37116682D01*
X247169272Y-36992200D01*
X247169272Y-35792200D01*
X247157012Y-35667718D01*
X247120702Y-35548020D01*
X247061737Y-35437706D01*
X246982385Y-35341015D01*
X246885694Y-35261663D01*
X246775380Y-35202698D01*
X246655682Y-35166388D01*
X246531200Y-35154128D01*
X246321060Y-35154128D01*
X246324500Y-35119199D01*
X246320200Y-35075539D01*
X246320200Y-35075534D01*
X246308518Y-34956928D01*
X246307336Y-34944925D01*
X246261754Y-34794659D01*
X246256503Y-34777349D01*
X246173953Y-34622909D01*
X246062859Y-34487541D01*
X246028941Y-34459705D01*
X245072740Y-33503505D01*
X244971291Y-33420248D01*
X244816852Y-33337698D01*
X244649274Y-33286864D01*
X244475000Y-33269700D01*
X244431340Y-33274000D01*
X244372468Y-33274000D01*
X244330256Y-33245795D01*
X244141898Y-33167774D01*
X243941939Y-33128000D01*
X243738061Y-33128000D01*
X243538102Y-33167774D01*
X243349744Y-33245795D01*
X243307532Y-33274000D01*
X242355620Y-33274000D01*
X242240586Y-33179595D01*
X242087050Y-33097528D01*
X241920454Y-33046992D01*
X241747200Y-33029928D01*
X240497200Y-33029928D01*
X240323946Y-33046992D01*
X240157350Y-33097528D01*
X240003814Y-33179595D01*
X239869238Y-33290038D01*
X239758795Y-33424614D01*
X239676728Y-33578150D01*
X239626192Y-33744746D01*
X239609128Y-33918000D01*
X237020015Y-33918000D01*
X237018475Y-32118000D01*
X239609128Y-32118000D01*
X239621388Y-32242482D01*
X239657698Y-32362180D01*
X239716663Y-32472494D01*
X239796015Y-32569185D01*
X239892706Y-32648537D01*
X240003020Y-32707502D01*
X240122718Y-32743812D01*
X240247200Y-32756072D01*
X240836450Y-32753000D01*
X240995200Y-32594250D01*
X240995200Y-31620000D01*
X241249200Y-31620000D01*
X241249200Y-32594250D01*
X241407950Y-32753000D01*
X241997200Y-32756072D01*
X242121682Y-32743812D01*
X242241380Y-32707502D01*
X242351694Y-32648537D01*
X242448385Y-32569185D01*
X242527737Y-32472494D01*
X242549274Y-32432200D01*
X243693128Y-32432200D01*
X243705388Y-32556682D01*
X243741698Y-32676380D01*
X243800663Y-32786694D01*
X243880015Y-32883385D01*
X243976706Y-32962737D01*
X244087020Y-33021702D01*
X244206718Y-33058012D01*
X244331200Y-33070272D01*
X245145450Y-33067200D01*
X245304200Y-32908450D01*
X245304200Y-31959200D01*
X245558200Y-31959200D01*
X245558200Y-32908450D01*
X245716950Y-33067200D01*
X246531200Y-33070272D01*
X246655682Y-33058012D01*
X246775380Y-33021702D01*
X246885694Y-32962737D01*
X246982385Y-32883385D01*
X247061737Y-32786694D01*
X247120702Y-32676380D01*
X247157012Y-32556682D01*
X247169272Y-32432200D01*
X247166200Y-32117950D01*
X247007450Y-31959200D01*
X245558200Y-31959200D01*
X245304200Y-31959200D01*
X243854950Y-31959200D01*
X243696200Y-32117950D01*
X243693128Y-32432200D01*
X242549274Y-32432200D01*
X242586702Y-32362180D01*
X242623012Y-32242482D01*
X242635272Y-32118000D01*
X242632200Y-31778750D01*
X242473450Y-31620000D01*
X241249200Y-31620000D01*
X240995200Y-31620000D01*
X239770950Y-31620000D01*
X239612200Y-31778750D01*
X239609128Y-32118000D01*
X237018475Y-32118000D01*
X237017406Y-30868000D01*
X239609128Y-30868000D01*
X239612200Y-31207250D01*
X239770950Y-31366000D01*
X240995200Y-31366000D01*
X240995200Y-30391750D01*
X241249200Y-30391750D01*
X241249200Y-31366000D01*
X242473450Y-31366000D01*
X242607250Y-31232200D01*
X243693128Y-31232200D01*
X243696200Y-31546450D01*
X243854950Y-31705200D01*
X245304200Y-31705200D01*
X245304200Y-30755950D01*
X245558200Y-30755950D01*
X245558200Y-31705200D01*
X247007450Y-31705200D01*
X247166200Y-31546450D01*
X247169272Y-31232200D01*
X247157012Y-31107718D01*
X247120702Y-30988020D01*
X247061737Y-30877706D01*
X246982385Y-30781015D01*
X246885694Y-30701663D01*
X246775380Y-30642698D01*
X246655682Y-30606388D01*
X246531200Y-30594128D01*
X245716950Y-30597200D01*
X245558200Y-30755950D01*
X245304200Y-30755950D01*
X245145450Y-30597200D01*
X244331200Y-30594128D01*
X244206718Y-30606388D01*
X244087020Y-30642698D01*
X243976706Y-30701663D01*
X243880015Y-30781015D01*
X243800663Y-30877706D01*
X243741698Y-30988020D01*
X243705388Y-31107718D01*
X243693128Y-31232200D01*
X242607250Y-31232200D01*
X242632200Y-31207250D01*
X242635272Y-30868000D01*
X242623012Y-30743518D01*
X242586702Y-30623820D01*
X242527737Y-30513506D01*
X242448385Y-30416815D01*
X242351694Y-30337463D01*
X242241380Y-30278498D01*
X242121682Y-30242188D01*
X241997200Y-30229928D01*
X241407950Y-30233000D01*
X241249200Y-30391750D01*
X240995200Y-30391750D01*
X240836450Y-30233000D01*
X240247200Y-30229928D01*
X240122718Y-30242188D01*
X240003020Y-30278498D01*
X239892706Y-30337463D01*
X239796015Y-30416815D01*
X239716663Y-30513506D01*
X239657698Y-30623820D01*
X239621388Y-30743518D01*
X239609128Y-30868000D01*
X237017406Y-30868000D01*
X237012517Y-25155000D01*
X239609128Y-25155000D01*
X239609128Y-25905000D01*
X239626192Y-26078254D01*
X239676728Y-26244850D01*
X239758795Y-26398386D01*
X239869238Y-26532962D01*
X240003814Y-26643405D01*
X240157350Y-26725472D01*
X240323946Y-26776008D01*
X240497200Y-26793072D01*
X241747200Y-26793072D01*
X241920454Y-26776008D01*
X242087050Y-26725472D01*
X242240586Y-26643405D01*
X242375162Y-26532962D01*
X242485605Y-26398386D01*
X242567672Y-26244850D01*
X242592803Y-26162004D01*
X243434532Y-26162004D01*
X243476744Y-26190209D01*
X243665102Y-26268230D01*
X243865061Y-26308004D01*
X244068939Y-26308004D01*
X244222270Y-26277505D01*
X244335893Y-26391128D01*
X244331200Y-26391128D01*
X244206718Y-26403388D01*
X244087020Y-26439698D01*
X243976706Y-26498663D01*
X243880015Y-26578015D01*
X243800663Y-26674706D01*
X243741698Y-26785020D01*
X243705388Y-26904718D01*
X243693128Y-27029200D01*
X243693128Y-28229200D01*
X243705388Y-28353682D01*
X243741698Y-28473380D01*
X243800663Y-28583694D01*
X243880015Y-28680385D01*
X243976706Y-28759737D01*
X244087020Y-28818702D01*
X244206718Y-28855012D01*
X244331200Y-28867272D01*
X246531200Y-28867272D01*
X246655682Y-28855012D01*
X246775380Y-28818702D01*
X246885694Y-28759737D01*
X246982385Y-28680385D01*
X247061737Y-28583694D01*
X247120702Y-28473380D01*
X247157012Y-28353682D01*
X247169272Y-28229200D01*
X247169272Y-27029200D01*
X247157012Y-26904718D01*
X247120702Y-26785020D01*
X247061737Y-26674706D01*
X246982385Y-26578015D01*
X246885694Y-26498663D01*
X246775380Y-26439698D01*
X246655682Y-26403388D01*
X246531200Y-26391128D01*
X246320200Y-26391128D01*
X246320200Y-26272859D01*
X246324500Y-26229199D01*
X246320200Y-26185539D01*
X246320200Y-26185533D01*
X246307336Y-26054926D01*
X246307336Y-26054924D01*
X246256502Y-25887347D01*
X246247627Y-25870744D01*
X246173953Y-25732909D01*
X246062859Y-25597541D01*
X246028936Y-25569701D01*
X245134503Y-24675268D01*
X245106663Y-24641345D01*
X244971295Y-24530251D01*
X244816855Y-24447701D01*
X244649278Y-24396868D01*
X244518671Y-24384004D01*
X244518664Y-24384004D01*
X244496149Y-24381787D01*
X244457256Y-24355799D01*
X244340022Y-24307239D01*
X245145450Y-24304200D01*
X245304200Y-24145450D01*
X245304200Y-23196200D01*
X245558200Y-23196200D01*
X245558200Y-24145450D01*
X245716950Y-24304200D01*
X246531200Y-24307272D01*
X246655682Y-24295012D01*
X246775380Y-24258702D01*
X246885694Y-24199737D01*
X246982385Y-24120385D01*
X247061737Y-24023694D01*
X247120702Y-23913380D01*
X247157012Y-23793682D01*
X247169272Y-23669200D01*
X247166200Y-23354950D01*
X247007450Y-23196200D01*
X245558200Y-23196200D01*
X245304200Y-23196200D01*
X243854950Y-23196200D01*
X243696200Y-23354950D01*
X243693128Y-23669200D01*
X243705388Y-23793682D01*
X243741698Y-23913380D01*
X243800663Y-24023694D01*
X243880015Y-24120385D01*
X243976706Y-24199737D01*
X244048297Y-24238004D01*
X243865061Y-24238004D01*
X243665102Y-24277778D01*
X243476744Y-24355799D01*
X243434532Y-24384004D01*
X242179613Y-24384004D01*
X242087050Y-24334528D01*
X241920454Y-24283992D01*
X241747200Y-24266928D01*
X240497200Y-24266928D01*
X240323946Y-24283992D01*
X240157350Y-24334528D01*
X240003814Y-24416595D01*
X239869238Y-24527038D01*
X239758795Y-24661614D01*
X239676728Y-24815150D01*
X239626192Y-24981746D01*
X239609128Y-25155000D01*
X237012517Y-25155000D01*
X237010977Y-23355000D01*
X239609128Y-23355000D01*
X239621388Y-23479482D01*
X239657698Y-23599180D01*
X239716663Y-23709494D01*
X239796015Y-23806185D01*
X239892706Y-23885537D01*
X240003020Y-23944502D01*
X240122718Y-23980812D01*
X240247200Y-23993072D01*
X240836450Y-23990000D01*
X240995200Y-23831250D01*
X240995200Y-22857000D01*
X241249200Y-22857000D01*
X241249200Y-23831250D01*
X241407950Y-23990000D01*
X241997200Y-23993072D01*
X242121682Y-23980812D01*
X242241380Y-23944502D01*
X242351694Y-23885537D01*
X242448385Y-23806185D01*
X242527737Y-23709494D01*
X242586702Y-23599180D01*
X242623012Y-23479482D01*
X242635272Y-23355000D01*
X242632200Y-23015750D01*
X242473450Y-22857000D01*
X241249200Y-22857000D01*
X240995200Y-22857000D01*
X239770950Y-22857000D01*
X239612200Y-23015750D01*
X239609128Y-23355000D01*
X237010977Y-23355000D01*
X237009907Y-22105000D01*
X239609128Y-22105000D01*
X239612200Y-22444250D01*
X239770950Y-22603000D01*
X240995200Y-22603000D01*
X240995200Y-21628750D01*
X241249200Y-21628750D01*
X241249200Y-22603000D01*
X242473450Y-22603000D01*
X242607250Y-22469200D01*
X243693128Y-22469200D01*
X243696200Y-22783450D01*
X243854950Y-22942200D01*
X245304200Y-22942200D01*
X245304200Y-21992950D01*
X245558200Y-21992950D01*
X245558200Y-22942200D01*
X247007450Y-22942200D01*
X247166200Y-22783450D01*
X247169272Y-22469200D01*
X247157012Y-22344718D01*
X247120702Y-22225020D01*
X247061737Y-22114706D01*
X246982385Y-22018015D01*
X246885694Y-21938663D01*
X246775380Y-21879698D01*
X246655682Y-21843388D01*
X246531200Y-21831128D01*
X245716950Y-21834200D01*
X245558200Y-21992950D01*
X245304200Y-21992950D01*
X245145450Y-21834200D01*
X244331200Y-21831128D01*
X244206718Y-21843388D01*
X244087020Y-21879698D01*
X243976706Y-21938663D01*
X243880015Y-22018015D01*
X243800663Y-22114706D01*
X243741698Y-22225020D01*
X243705388Y-22344718D01*
X243693128Y-22469200D01*
X242607250Y-22469200D01*
X242632200Y-22444250D01*
X242635272Y-22105000D01*
X242623012Y-21980518D01*
X242586702Y-21860820D01*
X242527737Y-21750506D01*
X242448385Y-21653815D01*
X242351694Y-21574463D01*
X242241380Y-21515498D01*
X242121682Y-21479188D01*
X241997200Y-21466928D01*
X241407950Y-21470000D01*
X241249200Y-21628750D01*
X240995200Y-21628750D01*
X240836450Y-21470000D01*
X240247200Y-21466928D01*
X240122718Y-21479188D01*
X240003020Y-21515498D01*
X239892706Y-21574463D01*
X239796015Y-21653815D01*
X239716663Y-21750506D01*
X239657698Y-21860820D01*
X239621388Y-21980518D01*
X239609128Y-22105000D01*
X237009907Y-22105000D01*
X237007509Y-19304000D01*
X247421290Y-19304000D01*
X247396109Y-48514000D01*
X247396109Y-48514000D01*
G37*
X247396109Y-48514000D02*
X236907606Y-48514000D01*
X235547803Y-47154197D01*
X235528557Y-47138403D01*
X235506601Y-47126667D01*
X235482776Y-47119440D01*
X235458130Y-47117000D01*
X206287000Y-47087130D01*
X206287000Y-39213921D01*
X210259015Y-39242621D01*
X214667197Y-43650803D01*
X214686443Y-43666597D01*
X214708399Y-43678333D01*
X214732224Y-43685560D01*
X214757000Y-43688000D01*
X236901264Y-43688000D01*
X236926040Y-43685560D01*
X236949865Y-43678333D01*
X236971821Y-43666597D01*
X236991067Y-43650803D01*
X237006861Y-43631557D01*
X237018597Y-43609601D01*
X237025824Y-43585776D01*
X237028264Y-43560891D01*
X237027729Y-42935000D01*
X239609128Y-42935000D01*
X239609128Y-43685000D01*
X239626192Y-43858254D01*
X239676728Y-44024850D01*
X239758795Y-44178386D01*
X239869238Y-44312962D01*
X240003814Y-44423405D01*
X240157350Y-44505472D01*
X240323946Y-44556008D01*
X240497200Y-44573072D01*
X241747200Y-44573072D01*
X241920454Y-44556008D01*
X242087050Y-44505472D01*
X242240586Y-44423405D01*
X242375162Y-44312962D01*
X242485605Y-44178386D01*
X242544073Y-44069000D01*
X243307532Y-44069000D01*
X243349744Y-44097205D01*
X243538102Y-44175226D01*
X243738061Y-44215000D01*
X243941939Y-44215000D01*
X244141898Y-44175226D01*
X244192168Y-44154403D01*
X244219858Y-44182094D01*
X244206718Y-44183388D01*
X244087020Y-44219698D01*
X243976706Y-44278663D01*
X243880015Y-44358015D01*
X243800663Y-44454706D01*
X243741698Y-44565020D01*
X243705388Y-44684718D01*
X243693128Y-44809200D01*
X243693128Y-46009200D01*
X243705388Y-46133682D01*
X243741698Y-46253380D01*
X243800663Y-46363694D01*
X243880015Y-46460385D01*
X243976706Y-46539737D01*
X244087020Y-46598702D01*
X244206718Y-46635012D01*
X244331200Y-46647272D01*
X246531200Y-46647272D01*
X246655682Y-46635012D01*
X246775380Y-46598702D01*
X246885694Y-46539737D01*
X246982385Y-46460385D01*
X247061737Y-46363694D01*
X247120702Y-46253380D01*
X247157012Y-46133682D01*
X247169272Y-46009200D01*
X247169272Y-44809200D01*
X247157012Y-44684718D01*
X247120702Y-44565020D01*
X247061737Y-44454706D01*
X246982385Y-44358015D01*
X246885694Y-44278663D01*
X246775380Y-44219698D01*
X246655682Y-44183388D01*
X246531200Y-44171128D01*
X246321060Y-44171128D01*
X246324500Y-44136199D01*
X246320200Y-44092539D01*
X246320200Y-44092534D01*
X246309438Y-43983271D01*
X246307336Y-43961925D01*
X246261754Y-43811659D01*
X246256503Y-43794349D01*
X246173953Y-43639909D01*
X246062859Y-43504541D01*
X246028941Y-43476705D01*
X245134499Y-42582264D01*
X245106659Y-42548341D01*
X244971291Y-42437247D01*
X244816851Y-42354697D01*
X244649274Y-42303864D01*
X244518667Y-42291000D01*
X244518660Y-42291000D01*
X244475000Y-42286700D01*
X244431340Y-42291000D01*
X244372468Y-42291000D01*
X244330256Y-42262795D01*
X244141898Y-42184774D01*
X243941939Y-42145000D01*
X243738061Y-42145000D01*
X243538102Y-42184774D01*
X243349744Y-42262795D01*
X243307532Y-42291000D01*
X242355620Y-42291000D01*
X242240586Y-42196595D01*
X242087050Y-42114528D01*
X241920454Y-42063992D01*
X241747200Y-42046928D01*
X240497200Y-42046928D01*
X240323946Y-42063992D01*
X240157350Y-42114528D01*
X240003814Y-42196595D01*
X239869238Y-42307038D01*
X239758795Y-42441614D01*
X239676728Y-42595150D01*
X239626192Y-42761746D01*
X239609128Y-42935000D01*
X237027729Y-42935000D01*
X237026189Y-41135000D01*
X239609128Y-41135000D01*
X239621388Y-41259482D01*
X239657698Y-41379180D01*
X239716663Y-41489494D01*
X239796015Y-41586185D01*
X239892706Y-41665537D01*
X240003020Y-41724502D01*
X240122718Y-41760812D01*
X240247200Y-41773072D01*
X240836450Y-41770000D01*
X240995200Y-41611250D01*
X240995200Y-40637000D01*
X241249200Y-40637000D01*
X241249200Y-41611250D01*
X241407950Y-41770000D01*
X241997200Y-41773072D01*
X242121682Y-41760812D01*
X242241380Y-41724502D01*
X242351694Y-41665537D01*
X242448385Y-41586185D01*
X242527737Y-41489494D01*
X242549274Y-41449200D01*
X243693128Y-41449200D01*
X243705388Y-41573682D01*
X243741698Y-41693380D01*
X243800663Y-41803694D01*
X243880015Y-41900385D01*
X243976706Y-41979737D01*
X244087020Y-42038702D01*
X244206718Y-42075012D01*
X244331200Y-42087272D01*
X245145450Y-42084200D01*
X245304200Y-41925450D01*
X245304200Y-40976200D01*
X245558200Y-40976200D01*
X245558200Y-41925450D01*
X245716950Y-42084200D01*
X246531200Y-42087272D01*
X246655682Y-42075012D01*
X246775380Y-42038702D01*
X246885694Y-41979737D01*
X246982385Y-41900385D01*
X247061737Y-41803694D01*
X247120702Y-41693380D01*
X247157012Y-41573682D01*
X247169272Y-41449200D01*
X247166200Y-41134950D01*
X247007450Y-40976200D01*
X245558200Y-40976200D01*
X245304200Y-40976200D01*
X243854950Y-40976200D01*
X243696200Y-41134950D01*
X243693128Y-41449200D01*
X242549274Y-41449200D01*
X242586702Y-41379180D01*
X242623012Y-41259482D01*
X242635272Y-41135000D01*
X242632200Y-40795750D01*
X242473450Y-40637000D01*
X241249200Y-40637000D01*
X240995200Y-40637000D01*
X239770950Y-40637000D01*
X239612200Y-40795750D01*
X239609128Y-41135000D01*
X237026189Y-41135000D01*
X237025120Y-39885000D01*
X239609128Y-39885000D01*
X239612200Y-40224250D01*
X239770950Y-40383000D01*
X240995200Y-40383000D01*
X240995200Y-39408750D01*
X241249200Y-39408750D01*
X241249200Y-40383000D01*
X242473450Y-40383000D01*
X242607250Y-40249200D01*
X243693128Y-40249200D01*
X243696200Y-40563450D01*
X243854950Y-40722200D01*
X245304200Y-40722200D01*
X245304200Y-39772950D01*
X245558200Y-39772950D01*
X245558200Y-40722200D01*
X247007450Y-40722200D01*
X247166200Y-40563450D01*
X247169272Y-40249200D01*
X247157012Y-40124718D01*
X247120702Y-40005020D01*
X247061737Y-39894706D01*
X246982385Y-39798015D01*
X246885694Y-39718663D01*
X246775380Y-39659698D01*
X246655682Y-39623388D01*
X246531200Y-39611128D01*
X245716950Y-39614200D01*
X245558200Y-39772950D01*
X245304200Y-39772950D01*
X245145450Y-39614200D01*
X244331200Y-39611128D01*
X244206718Y-39623388D01*
X244087020Y-39659698D01*
X243976706Y-39718663D01*
X243880015Y-39798015D01*
X243800663Y-39894706D01*
X243741698Y-40005020D01*
X243705388Y-40124718D01*
X243693128Y-40249200D01*
X242607250Y-40249200D01*
X242632200Y-40224250D01*
X242635272Y-39885000D01*
X242623012Y-39760518D01*
X242586702Y-39640820D01*
X242527737Y-39530506D01*
X242448385Y-39433815D01*
X242351694Y-39354463D01*
X242241380Y-39295498D01*
X242121682Y-39259188D01*
X241997200Y-39246928D01*
X241407950Y-39250000D01*
X241249200Y-39408750D01*
X240995200Y-39408750D01*
X240836450Y-39250000D01*
X240247200Y-39246928D01*
X240122718Y-39259188D01*
X240003020Y-39295498D01*
X239892706Y-39354463D01*
X239796015Y-39433815D01*
X239716663Y-39530506D01*
X239657698Y-39640820D01*
X239621388Y-39760518D01*
X239609128Y-39885000D01*
X237025120Y-39885000D01*
X237020015Y-33918000D01*
X239609128Y-33918000D01*
X239609128Y-34668000D01*
X239626192Y-34841254D01*
X239676728Y-35007850D01*
X239758795Y-35161386D01*
X239869238Y-35295962D01*
X240003814Y-35406405D01*
X240157350Y-35488472D01*
X240323946Y-35539008D01*
X240497200Y-35556072D01*
X241747200Y-35556072D01*
X241920454Y-35539008D01*
X242087050Y-35488472D01*
X242240586Y-35406405D01*
X242375162Y-35295962D01*
X242485605Y-35161386D01*
X242544073Y-35052000D01*
X243307532Y-35052000D01*
X243349744Y-35080205D01*
X243538102Y-35158226D01*
X243738061Y-35198000D01*
X243941939Y-35198000D01*
X244141898Y-35158226D01*
X244192168Y-35137403D01*
X244219858Y-35165094D01*
X244206718Y-35166388D01*
X244087020Y-35202698D01*
X243976706Y-35261663D01*
X243880015Y-35341015D01*
X243800663Y-35437706D01*
X243741698Y-35548020D01*
X243705388Y-35667718D01*
X243693128Y-35792200D01*
X243693128Y-36992200D01*
X243705388Y-37116682D01*
X243741698Y-37236380D01*
X243800663Y-37346694D01*
X243880015Y-37443385D01*
X243976706Y-37522737D01*
X244087020Y-37581702D01*
X244206718Y-37618012D01*
X244331200Y-37630272D01*
X246531200Y-37630272D01*
X246655682Y-37618012D01*
X246775380Y-37581702D01*
X246885694Y-37522737D01*
X246982385Y-37443385D01*
X247061737Y-37346694D01*
X247120702Y-37236380D01*
X247157012Y-37116682D01*
X247169272Y-36992200D01*
X247169272Y-35792200D01*
X247157012Y-35667718D01*
X247120702Y-35548020D01*
X247061737Y-35437706D01*
X246982385Y-35341015D01*
X246885694Y-35261663D01*
X246775380Y-35202698D01*
X246655682Y-35166388D01*
X246531200Y-35154128D01*
X246321060Y-35154128D01*
X246324500Y-35119199D01*
X246320200Y-35075539D01*
X246320200Y-35075534D01*
X246308518Y-34956928D01*
X246307336Y-34944925D01*
X246261754Y-34794659D01*
X246256503Y-34777349D01*
X246173953Y-34622909D01*
X246062859Y-34487541D01*
X246028941Y-34459705D01*
X245072740Y-33503505D01*
X244971291Y-33420248D01*
X244816852Y-33337698D01*
X244649274Y-33286864D01*
X244475000Y-33269700D01*
X244431340Y-33274000D01*
X244372468Y-33274000D01*
X244330256Y-33245795D01*
X244141898Y-33167774D01*
X243941939Y-33128000D01*
X243738061Y-33128000D01*
X243538102Y-33167774D01*
X243349744Y-33245795D01*
X243307532Y-33274000D01*
X242355620Y-33274000D01*
X242240586Y-33179595D01*
X242087050Y-33097528D01*
X241920454Y-33046992D01*
X241747200Y-33029928D01*
X240497200Y-33029928D01*
X240323946Y-33046992D01*
X240157350Y-33097528D01*
X240003814Y-33179595D01*
X239869238Y-33290038D01*
X239758795Y-33424614D01*
X239676728Y-33578150D01*
X239626192Y-33744746D01*
X239609128Y-33918000D01*
X237020015Y-33918000D01*
X237018475Y-32118000D01*
X239609128Y-32118000D01*
X239621388Y-32242482D01*
X239657698Y-32362180D01*
X239716663Y-32472494D01*
X239796015Y-32569185D01*
X239892706Y-32648537D01*
X240003020Y-32707502D01*
X240122718Y-32743812D01*
X240247200Y-32756072D01*
X240836450Y-32753000D01*
X240995200Y-32594250D01*
X240995200Y-31620000D01*
X241249200Y-31620000D01*
X241249200Y-32594250D01*
X241407950Y-32753000D01*
X241997200Y-32756072D01*
X242121682Y-32743812D01*
X242241380Y-32707502D01*
X242351694Y-32648537D01*
X242448385Y-32569185D01*
X242527737Y-32472494D01*
X242549274Y-32432200D01*
X243693128Y-32432200D01*
X243705388Y-32556682D01*
X243741698Y-32676380D01*
X243800663Y-32786694D01*
X243880015Y-32883385D01*
X243976706Y-32962737D01*
X244087020Y-33021702D01*
X244206718Y-33058012D01*
X244331200Y-33070272D01*
X245145450Y-33067200D01*
X245304200Y-32908450D01*
X245304200Y-31959200D01*
X245558200Y-31959200D01*
X245558200Y-32908450D01*
X245716950Y-33067200D01*
X246531200Y-33070272D01*
X246655682Y-33058012D01*
X246775380Y-33021702D01*
X246885694Y-32962737D01*
X246982385Y-32883385D01*
X247061737Y-32786694D01*
X247120702Y-32676380D01*
X247157012Y-32556682D01*
X247169272Y-32432200D01*
X247166200Y-32117950D01*
X247007450Y-31959200D01*
X245558200Y-31959200D01*
X245304200Y-31959200D01*
X243854950Y-31959200D01*
X243696200Y-32117950D01*
X243693128Y-32432200D01*
X242549274Y-32432200D01*
X242586702Y-32362180D01*
X242623012Y-32242482D01*
X242635272Y-32118000D01*
X242632200Y-31778750D01*
X242473450Y-31620000D01*
X241249200Y-31620000D01*
X240995200Y-31620000D01*
X239770950Y-31620000D01*
X239612200Y-31778750D01*
X239609128Y-32118000D01*
X237018475Y-32118000D01*
X237017406Y-30868000D01*
X239609128Y-30868000D01*
X239612200Y-31207250D01*
X239770950Y-31366000D01*
X240995200Y-31366000D01*
X240995200Y-30391750D01*
X241249200Y-30391750D01*
X241249200Y-31366000D01*
X242473450Y-31366000D01*
X242607250Y-31232200D01*
X243693128Y-31232200D01*
X243696200Y-31546450D01*
X243854950Y-31705200D01*
X245304200Y-31705200D01*
X245304200Y-30755950D01*
X245558200Y-30755950D01*
X245558200Y-31705200D01*
X247007450Y-31705200D01*
X247166200Y-31546450D01*
X247169272Y-31232200D01*
X247157012Y-31107718D01*
X247120702Y-30988020D01*
X247061737Y-30877706D01*
X246982385Y-30781015D01*
X246885694Y-30701663D01*
X246775380Y-30642698D01*
X246655682Y-30606388D01*
X246531200Y-30594128D01*
X245716950Y-30597200D01*
X245558200Y-30755950D01*
X245304200Y-30755950D01*
X245145450Y-30597200D01*
X244331200Y-30594128D01*
X244206718Y-30606388D01*
X244087020Y-30642698D01*
X243976706Y-30701663D01*
X243880015Y-30781015D01*
X243800663Y-30877706D01*
X243741698Y-30988020D01*
X243705388Y-31107718D01*
X243693128Y-31232200D01*
X242607250Y-31232200D01*
X242632200Y-31207250D01*
X242635272Y-30868000D01*
X242623012Y-30743518D01*
X242586702Y-30623820D01*
X242527737Y-30513506D01*
X242448385Y-30416815D01*
X242351694Y-30337463D01*
X242241380Y-30278498D01*
X242121682Y-30242188D01*
X241997200Y-30229928D01*
X241407950Y-30233000D01*
X241249200Y-30391750D01*
X240995200Y-30391750D01*
X240836450Y-30233000D01*
X240247200Y-30229928D01*
X240122718Y-30242188D01*
X240003020Y-30278498D01*
X239892706Y-30337463D01*
X239796015Y-30416815D01*
X239716663Y-30513506D01*
X239657698Y-30623820D01*
X239621388Y-30743518D01*
X239609128Y-30868000D01*
X237017406Y-30868000D01*
X237012517Y-25155000D01*
X239609128Y-25155000D01*
X239609128Y-25905000D01*
X239626192Y-26078254D01*
X239676728Y-26244850D01*
X239758795Y-26398386D01*
X239869238Y-26532962D01*
X240003814Y-26643405D01*
X240157350Y-26725472D01*
X240323946Y-26776008D01*
X240497200Y-26793072D01*
X241747200Y-26793072D01*
X241920454Y-26776008D01*
X242087050Y-26725472D01*
X242240586Y-26643405D01*
X242375162Y-26532962D01*
X242485605Y-26398386D01*
X242567672Y-26244850D01*
X242592803Y-26162004D01*
X243434532Y-26162004D01*
X243476744Y-26190209D01*
X243665102Y-26268230D01*
X243865061Y-26308004D01*
X244068939Y-26308004D01*
X244222270Y-26277505D01*
X244335893Y-26391128D01*
X244331200Y-26391128D01*
X244206718Y-26403388D01*
X244087020Y-26439698D01*
X243976706Y-26498663D01*
X243880015Y-26578015D01*
X243800663Y-26674706D01*
X243741698Y-26785020D01*
X243705388Y-26904718D01*
X243693128Y-27029200D01*
X243693128Y-28229200D01*
X243705388Y-28353682D01*
X243741698Y-28473380D01*
X243800663Y-28583694D01*
X243880015Y-28680385D01*
X243976706Y-28759737D01*
X244087020Y-28818702D01*
X244206718Y-28855012D01*
X244331200Y-28867272D01*
X246531200Y-28867272D01*
X246655682Y-28855012D01*
X246775380Y-28818702D01*
X246885694Y-28759737D01*
X246982385Y-28680385D01*
X247061737Y-28583694D01*
X247120702Y-28473380D01*
X247157012Y-28353682D01*
X247169272Y-28229200D01*
X247169272Y-27029200D01*
X247157012Y-26904718D01*
X247120702Y-26785020D01*
X247061737Y-26674706D01*
X246982385Y-26578015D01*
X246885694Y-26498663D01*
X246775380Y-26439698D01*
X246655682Y-26403388D01*
X246531200Y-26391128D01*
X246320200Y-26391128D01*
X246320200Y-26272859D01*
X246324500Y-26229199D01*
X246320200Y-26185539D01*
X246320200Y-26185533D01*
X246307336Y-26054926D01*
X246307336Y-26054924D01*
X246256502Y-25887347D01*
X246247627Y-25870744D01*
X246173953Y-25732909D01*
X246062859Y-25597541D01*
X246028936Y-25569701D01*
X245134503Y-24675268D01*
X245106663Y-24641345D01*
X244971295Y-24530251D01*
X244816855Y-24447701D01*
X244649278Y-24396868D01*
X244518671Y-24384004D01*
X244518664Y-24384004D01*
X244496149Y-24381787D01*
X244457256Y-24355799D01*
X244340022Y-24307239D01*
X245145450Y-24304200D01*
X245304200Y-24145450D01*
X245304200Y-23196200D01*
X245558200Y-23196200D01*
X245558200Y-24145450D01*
X245716950Y-24304200D01*
X246531200Y-24307272D01*
X246655682Y-24295012D01*
X246775380Y-24258702D01*
X246885694Y-24199737D01*
X246982385Y-24120385D01*
X247061737Y-24023694D01*
X247120702Y-23913380D01*
X247157012Y-23793682D01*
X247169272Y-23669200D01*
X247166200Y-23354950D01*
X247007450Y-23196200D01*
X245558200Y-23196200D01*
X245304200Y-23196200D01*
X243854950Y-23196200D01*
X243696200Y-23354950D01*
X243693128Y-23669200D01*
X243705388Y-23793682D01*
X243741698Y-23913380D01*
X243800663Y-24023694D01*
X243880015Y-24120385D01*
X243976706Y-24199737D01*
X244048297Y-24238004D01*
X243865061Y-24238004D01*
X243665102Y-24277778D01*
X243476744Y-24355799D01*
X243434532Y-24384004D01*
X242179613Y-24384004D01*
X242087050Y-24334528D01*
X241920454Y-24283992D01*
X241747200Y-24266928D01*
X240497200Y-24266928D01*
X240323946Y-24283992D01*
X240157350Y-24334528D01*
X240003814Y-24416595D01*
X239869238Y-24527038D01*
X239758795Y-24661614D01*
X239676728Y-24815150D01*
X239626192Y-24981746D01*
X239609128Y-25155000D01*
X237012517Y-25155000D01*
X237010977Y-23355000D01*
X239609128Y-23355000D01*
X239621388Y-23479482D01*
X239657698Y-23599180D01*
X239716663Y-23709494D01*
X239796015Y-23806185D01*
X239892706Y-23885537D01*
X240003020Y-23944502D01*
X240122718Y-23980812D01*
X240247200Y-23993072D01*
X240836450Y-23990000D01*
X240995200Y-23831250D01*
X240995200Y-22857000D01*
X241249200Y-22857000D01*
X241249200Y-23831250D01*
X241407950Y-23990000D01*
X241997200Y-23993072D01*
X242121682Y-23980812D01*
X242241380Y-23944502D01*
X242351694Y-23885537D01*
X242448385Y-23806185D01*
X242527737Y-23709494D01*
X242586702Y-23599180D01*
X242623012Y-23479482D01*
X242635272Y-23355000D01*
X242632200Y-23015750D01*
X242473450Y-22857000D01*
X241249200Y-22857000D01*
X240995200Y-22857000D01*
X239770950Y-22857000D01*
X239612200Y-23015750D01*
X239609128Y-23355000D01*
X237010977Y-23355000D01*
X237009907Y-22105000D01*
X239609128Y-22105000D01*
X239612200Y-22444250D01*
X239770950Y-22603000D01*
X240995200Y-22603000D01*
X240995200Y-21628750D01*
X241249200Y-21628750D01*
X241249200Y-22603000D01*
X242473450Y-22603000D01*
X242607250Y-22469200D01*
X243693128Y-22469200D01*
X243696200Y-22783450D01*
X243854950Y-22942200D01*
X245304200Y-22942200D01*
X245304200Y-21992950D01*
X245558200Y-21992950D01*
X245558200Y-22942200D01*
X247007450Y-22942200D01*
X247166200Y-22783450D01*
X247169272Y-22469200D01*
X247157012Y-22344718D01*
X247120702Y-22225020D01*
X247061737Y-22114706D01*
X246982385Y-22018015D01*
X246885694Y-21938663D01*
X246775380Y-21879698D01*
X246655682Y-21843388D01*
X246531200Y-21831128D01*
X245716950Y-21834200D01*
X245558200Y-21992950D01*
X245304200Y-21992950D01*
X245145450Y-21834200D01*
X244331200Y-21831128D01*
X244206718Y-21843388D01*
X244087020Y-21879698D01*
X243976706Y-21938663D01*
X243880015Y-22018015D01*
X243800663Y-22114706D01*
X243741698Y-22225020D01*
X243705388Y-22344718D01*
X243693128Y-22469200D01*
X242607250Y-22469200D01*
X242632200Y-22444250D01*
X242635272Y-22105000D01*
X242623012Y-21980518D01*
X242586702Y-21860820D01*
X242527737Y-21750506D01*
X242448385Y-21653815D01*
X242351694Y-21574463D01*
X242241380Y-21515498D01*
X242121682Y-21479188D01*
X241997200Y-21466928D01*
X241407950Y-21470000D01*
X241249200Y-21628750D01*
X240995200Y-21628750D01*
X240836450Y-21470000D01*
X240247200Y-21466928D01*
X240122718Y-21479188D01*
X240003020Y-21515498D01*
X239892706Y-21574463D01*
X239796015Y-21653815D01*
X239716663Y-21750506D01*
X239657698Y-21860820D01*
X239621388Y-21980518D01*
X239609128Y-22105000D01*
X237009907Y-22105000D01*
X237007509Y-19304000D01*
X247421290Y-19304000D01*
X247396109Y-48514000D01*
G04 #@! TD*
M02*
