M48
; DRILL file {KiCad (5.1.4-0)} date среда, 15 января 2020 г., 23:20:40
; FORMAT={-:-/ absolute / metric / decimal}
; #@! TF.CreationDate,2020-01-15T23:20:40+03:00
; #@! TF.GenerationSoftware,Kicad,Pcbnew,(5.1.4-0)
FMAT,2
METRIC
T1C0.400
T2C0.950
T3C1.000
T4C1.300
T5C1.320
T6C4.000
%
G90
G05
T1
X176.784Y-23.876
X176.784Y-32.131
X176.911Y-40.64
X184.912Y-49.403
X185.039Y-14.732
X188.214Y-21.336
X189.23Y-49.403
X193.421Y-14.732
X194.31Y-35.179
X194.437Y-30.48
X195.346Y-41.258
X196.596Y-21.336
X197.759Y-41.258
X197.866Y-49.403
X199.698Y-43.561
X199.698Y-45.339
X199.771Y-38.227
X201.79Y-38.03
X202.311Y-14.732
X205.486Y-21.336
X205.74Y-42.799
X205.74Y-45.466
X205.867Y-40.132
X206.248Y-49.403
X206.883Y-31.877
X208.407Y-24.765
X208.407Y-27.432
X208.661Y-41.402
X210.566Y-34.671
X210.947Y-14.732
X211.201Y-45.593
X213.741Y-27.94
X215.138Y-49.403
X216.154Y-44.069
X216.23Y-41.91
X216.75Y-33.76
X216.789Y-35.052
X217.369Y-38.839
X217.76Y-41.91
X219.329Y-14.732
X219.55Y-33.44
X220.98Y-45.72
X221.107Y-37.592
X221.742Y-27.051
X222.79Y-40.41
X223.774Y-20.32
X223.774Y-49.403
X224.409Y-37.592
X225.933Y-44.069
X226.01Y-37.59
X226.695Y-29.718
X228.219Y-14.732
X229.362Y-40.132
X230.505Y-32.385
X230.759Y-45.847
X232.156Y-49.403
X233.0Y-42.28
X234.442Y-20.574
X234.442Y-25.908
X236.855Y-14.732
X237.744Y-24.892
X237.744Y-31.115
X237.896Y-46.482
X237.947Y-19.685
X237.998Y-37.592
X237.998Y-43.561
X240.093Y-47.803
X240.144Y-20.955
X240.233Y-29.921
X240.386Y-38.862
X241.046Y-49.657
X242.291Y-47.803
X242.341Y-19.685
X242.621Y-29.921
X242.773Y-38.862
X243.84Y-34.163
X243.84Y-43.18
X243.967Y-25.273
X244.488Y-47.803
X244.538Y-20.955
X245.237Y-14.732
X246.685Y-47.803
X246.736Y-19.685
X249.682Y-49.403
X251.841Y-20.574
X254.127Y-14.732
X257.175Y-28.702
X257.175Y-31.115
X257.429Y-37.211
X257.429Y-40.005
X258.064Y-49.403
X258.445Y-21.336
X264.541Y-46.228
X273.558Y-23.495
X273.558Y-32.385
X273.558Y-40.767
T2
X211.709Y-23.241
X214.209Y-23.241
X216.709Y-23.241
X219.209Y-23.241
T3
X228.346Y-23.241
X230.846Y-23.241
T4
X265.887Y-24.714
X265.887Y-29.714
X265.887Y-34.714
X265.887Y-39.714
T5
X185.674Y-27.004
X185.674Y-32.004
T6
X178.562Y-46.736
X271.018Y-46.99
X178.689Y-17.78
X271.145Y-17.399
T0
M30
